<svg width="22" height="20" viewBox="0 0 22 20" fill="none" xmlns="http://www.w3.org/2000/svg">
<path fill-rule="evenodd" clip-rule="evenodd" d="M5.39252 2.33025C6.04361 1.25654 7.20958 0.5 8.54508 0.5H13.4549C14.7904 0.5 15.9564 1.25654 16.6075 2.33025C16.8059 2.65753 17.0281 3.00118 17.257 3.31533C17.3665 3.46564 17.5804 3.58571 17.8771 3.58571H17.9998C20.209 3.58571 22 5.37668 22 7.58571V15.5C22 17.7091 20.2091 19.5 18 19.5H4C1.79086 19.5 0 17.7091 0 15.5V7.58572C0 5.37668 1.79052 3.58571 3.99976 3.58571H4.12238C4.41912 3.58571 4.63348 3.46564 4.74301 3.31533C4.97193 3.00118 5.19407 2.65753 5.39252 2.33025ZM8.54508 2.5C7.98673 2.5 7.43356 2.82159 7.10267 3.36727C6.88516 3.72596 6.63139 4.11989 6.35939 4.49317C5.81056 5.24635 4.94404 5.58571 4.12286 5.58571H4.00024C2.89578 5.58571 2 6.48104 2 7.58572V15.5C2 16.6046 2.89543 17.5 4 17.5H18C19.1046 17.5 20 16.6046 20 15.5V7.58571C20 6.48104 19.1047 5.58571 18.0002 5.58571H17.8776C17.0564 5.58571 16.1894 5.24635 15.6406 4.49317C15.3686 4.11989 15.1148 3.72596 14.8973 3.36727C14.5664 2.82159 14.0133 2.5 13.4549 2.5H8.54508ZM11 7.5C9.34315 7.5 8 8.84315 8 10.5C8 12.1569 9.34315 13.5 11 13.5C12.6569 13.5 14 12.1569 14 10.5C14 8.84315 12.6569 7.5 11 7.5ZM6 10.5C6 7.73858 8.23858 5.5 11 5.5C13.7614 5.5 16 7.73858 16 10.5C16 13.2614 13.7614 15.5 11 15.5C8.23858 15.5 6 13.2614 6 10.5Z" fill="#000001"/>
</svg>
