<svg width="21" height="20" viewBox="0 0 21 20" fill="none" xmlns="http://www.w3.org/2000/svg">
<path d="M0.5 10C0.5 4.47715 4.97715 0 10.5 0C16.0228 0 20.5 4.47715 20.5 10C20.5 15.5228 16.0228 20 10.5 20C4.97715 20 0.5 15.5228 0.5 10Z" fill="#85BC08"/>
<path d="M7.29571 7.47629C6.62639 7.47629 5.98416 7.7422 5.5112 8.21566C5.03774 8.68912 4.77183 9.33082 4.77183 10.0002C4.77183 10.6695 5.03774 11.3112 5.5112 11.7847C5.98413 12.2581 6.62636 12.524 7.29571 12.524C7.96505 12.524 8.60672 12.2581 9.08021 11.7847C9.55314 11.3112 9.81905 10.6695 9.81905 10.0002C9.81852 9.33085 9.55261 8.68967 9.07915 8.21675C8.60622 7.74329 7.96449 7.47734 7.29571 7.47629ZM8.22564 11.3122L7.84083 10.4799L6.73522 10.5123L6.36579 11.3122L5.9709 11.1322L7.10304 8.68912V8.68965C7.13754 8.61162 7.21451 8.5612 7.29996 8.5612C7.38488 8.5612 7.46185 8.61162 7.49635 8.68965L8.62849 11.1328L8.22564 11.3122ZM13.4723 9.55578H13.9113C13.8821 9.7819 13.8057 10 13.6873 10.1954C13.5727 9.99898 13.4994 9.78136 13.4723 9.55578ZM7.29568 9.29252L7.64387 10.0457L6.93635 10.0653L7.29568 9.29252ZM13.7043 7.47622C13.035 7.47622 12.3933 7.74213 11.9198 8.21559C11.4469 8.68905 11.1809 9.33075 11.1809 10.0001C11.1809 10.6694 11.4469 11.3111 11.9198 11.7846C12.3932 12.2581 13.035 12.524 13.7043 12.524C14.3736 12.524 15.0158 12.2581 15.4888 11.7846C15.9623 11.3111 16.2282 10.6694 16.2282 10.0001C16.2276 9.33078 15.9612 8.68961 15.4883 8.21668C15.0148 7.74322 14.3736 7.47728 13.7043 7.47622ZM14.7462 9.55585H14.3487C14.311 9.91253 14.1831 10.2533 13.9761 10.5463C14.0891 10.6519 14.2154 10.7406 14.3529 10.8111L14.6772 10.9768L14.4792 11.3648L14.1549 11.1976H14.1544C13.9845 11.111 13.8274 11.0012 13.6873 10.8722C13.5482 11.0017 13.3917 11.111 13.2218 11.1976L12.8975 11.3648L12.6995 10.9768L13.0238 10.8111C13.1608 10.7406 13.2871 10.6514 13.4002 10.5463C13.1926 10.2538 13.0647 9.91253 13.0281 9.55585H12.6655V9.11956H13.4723V8.8255H13.907V9.12009L14.7462 9.11955L14.7462 9.55585ZM13.7075 12.9528C13.9952 12.9528 14.2813 12.9104 14.5567 12.8265V15.1295C14.5567 15.6099 14.1677 15.9995 13.6873 16H7.31798C6.83816 15.9995 6.4491 15.6099 6.4491 15.1295V12.8307C6.72456 12.9146 7.01066 12.957 7.29834 12.957H7.42573V14.8042C7.42573 14.9236 7.52233 15.0213 7.64229 15.0218H13.3604C13.4803 15.0213 13.5769 14.9236 13.5769 14.8042V12.9556L13.7075 12.9528ZM14.5567 4.86529V7.1694C14.2813 7.08554 13.9952 7.04308 13.7075 7.04308H13.5801V5.19593C13.5801 5.07651 13.483 4.97884 13.3635 4.97831H12.432C12.2027 4.97884 11.9803 5.05633 11.8009 5.19911C11.699 5.28085 11.5722 5.32491 11.4411 5.32491H9.55886C9.42776 5.32491 9.3009 5.28085 9.199 5.19911C9.01959 5.05633 8.7972 4.97884 8.5679 4.97831H7.63958C7.51962 4.97884 7.42301 5.0765 7.42301 5.19593V7.04457H7.29562C7.00794 7.04457 6.72132 7.08703 6.44638 7.17036V4.87047C6.44638 4.39011 6.83491 4.00053 7.31526 4H13.6846C13.9155 4 14.1368 4.09182 14.3003 4.25477C14.4632 4.41825 14.5551 4.63958 14.5551 4.87047L14.5567 4.86529ZM12.0711 5.53991C11.8912 5.68003 11.6693 5.7554 11.4411 5.75381H9.55886C9.33009 5.75381 9.10823 5.67632 8.92883 5.5346C8.82639 5.45286 8.699 5.40827 8.5679 5.40827H7.86038V7.09562C8.7627 7.27449 9.5302 7.86365 9.9373 8.68853C10.3444 9.51336 10.3444 10.4809 9.9373 11.3058C9.53019 12.1312 8.76269 12.7198 7.86038 12.8988V14.5861H13.1427V12.9046C12.2404 12.7257 11.4723 12.1366 11.0658 11.3117C10.6587 10.4869 10.6587 9.5193 11.0658 8.69438C11.4724 7.86902 12.2404 7.28042 13.1427 7.10146V5.41411H12.4346C12.3025 5.41305 12.1746 5.45764 12.0711 5.53991ZM11.3561 12.9894V13.4241H10.1661L10.544 13.8062L10.2357 14.112L9.48991 13.3588H9.48938C9.40605 13.2739 9.40605 13.138 9.48938 13.053L10.2351 12.3015L10.5435 12.6072L10.1656 12.9894H11.3561ZM11.5106 6.94694L10.7648 7.69852L10.4565 7.39279L10.8344 7.01063H9.65074V6.57592H10.8413L10.4634 6.19376L10.7649 5.89546L11.5106 6.64864V6.64811C11.5897 6.73198 11.5897 6.86308 11.5106 6.94694Z" fill="white"/>
</svg>
