<svg width="14" height="14" viewBox="0 0 14 14" fill="none" xmlns="http://www.w3.org/2000/svg">
<path d="M11.1959 5.68904C11.1875 5.60368 11.1663 5.51992 11.1334 5.44038C11.0894 5.3342 11.0249 5.23762 10.9437 5.15635C10.8624 5.07508 10.7658 5.01063 10.6596 4.96665C10.5801 4.93372 10.4963 4.91254 10.411 4.9041L10.3248 4.9H5.77517C5.54306 4.9 5.32047 4.99222 5.15635 5.15635C4.99222 5.32047 4.9 5.54306 4.9 5.77517V10.3248C4.9 10.4397 4.92269 10.5535 4.96665 10.6596C5.01063 10.7658 5.07508 10.8624 5.15635 10.9437C5.23762 11.0249 5.3342 11.0894 5.44038 11.1334C5.54653 11.1773 5.66028 11.2 5.77517 11.2H10.3248L10.411 11.1959C10.4963 11.1875 10.5801 11.1663 10.6596 11.1334C10.7658 11.0894 10.8624 11.0249 10.9437 10.9437C11.0249 10.8624 11.0894 10.7658 11.1334 10.6596C11.1663 10.5801 11.1875 10.4963 11.1959 10.411L11.2 10.3248V5.77517L11.1959 5.68904ZM1.75 3.325C1.75 2.45755 2.45755 1.75 3.325 1.75H8.575C8.87021 1.75 9.13298 1.82863 9.35737 1.99148C9.51716 2.10746 9.63807 2.25204 9.73369 2.39856L9.82136 2.54468L9.84495 2.59287C9.95024 2.83731 9.85537 3.12669 9.61782 3.25886C9.38034 3.39092 9.08456 3.31906 8.93235 3.10095L8.90364 3.05532L8.85288 2.97073C8.80572 2.89881 8.76861 2.86188 8.7406 2.84153C8.71459 2.82265 8.67349 2.8 8.575 2.8H3.325C3.03745 2.8 2.8 3.03745 2.8 3.325V8.57449L2.80461 8.6437C2.81378 8.7121 2.8363 8.7785 2.87126 8.83853C2.90622 8.89848 2.95271 8.95067 3.00764 8.99233L3.06558 9.03027L3.11121 9.0595C3.32792 9.2137 3.3972 9.51025 3.26296 9.74651C3.12865 9.9828 2.83836 10.0749 2.59492 9.96748L2.54673 9.94338L2.45803 9.88904C2.25573 9.75567 2.08676 9.57678 1.96431 9.3666C1.82437 9.12637 1.75027 8.85353 1.75 8.57551V3.325ZM12.25 10.3248L12.2474 10.4197C12.2366 10.6401 12.188 10.8573 12.1034 11.0616C12.0066 11.2951 11.8648 11.5073 11.686 11.686C11.5073 11.8648 11.2951 12.0066 11.0616 12.1034C10.8573 12.188 10.6401 12.2366 10.4197 12.2474L10.3248 12.25H5.77517C5.52236 12.25 5.272 12.2001 5.03843 12.1034C4.80487 12.0066 4.59272 11.8648 4.41396 11.686C4.23521 11.5073 4.09338 11.2951 3.99663 11.0616C3.89988 10.828 3.85 10.5776 3.85 10.3248V5.77517C3.85 5.26458 4.05293 4.775 4.41396 4.41396C4.775 4.05293 5.26458 3.85 5.77517 3.85H10.3248L10.4197 3.85256C10.6401 3.86344 10.8573 3.912 11.0616 3.99663C11.2951 4.09338 11.5073 4.23521 11.686 4.41396C11.8648 4.59272 12.0066 4.80487 12.1034 5.03843C12.2001 5.272 12.25 5.52236 12.25 5.77517V10.3248Z" fill="#000001"/>
</svg>
