<svg width="18" height="17" viewBox="0 0 18 17" fill="none" xmlns="http://www.w3.org/2000/svg">
<path fill-rule="evenodd" clip-rule="evenodd" d="M16.1114 1.32608C15.853 1.06759 15.6299 0.844561 15.4328 0.672566C15.2251 0.491473 15.0016 0.326242 14.73 0.213739C14.1174 -0.0399962 13.4291 -0.0399962 12.8165 0.213739C12.5449 0.326242 12.3214 0.491473 12.1138 0.672566C11.9166 0.844559 11.6936 1.06759 11.4351 1.32607L6.44793 6.3132C6.1021 6.65873 5.84069 6.9199 5.64311 7.23054C5.47593 7.49339 5.34641 7.77838 5.25835 8.07719C5.15428 8.43032 5.12945 8.799 5.0966 9.28675L4.98683 10.9061C4.97904 11.0203 4.96997 11.1535 4.97222 11.2702C4.97478 11.4029 4.99135 11.6 5.09166 11.8062C5.21406 12.0578 5.41736 12.2611 5.66901 12.3835C5.87524 12.4839 6.07233 12.5004 6.20498 12.503C6.32168 12.5052 6.45488 12.4962 6.56916 12.4884L8.18843 12.3786C8.67619 12.3458 9.04488 12.3209 9.39801 12.2169C9.69682 12.1288 9.98181 11.9993 10.2447 11.8321C10.5553 11.6345 10.8165 11.3731 11.162 11.0273L16.1491 6.04012C16.4076 5.78165 16.6306 5.55863 16.8026 5.36145C16.9837 5.15384 17.149 4.93026 17.2615 4.65866C17.5152 4.04609 17.5152 3.35781 17.2615 2.74524C17.149 2.47363 16.9837 2.25006 16.8026 2.04245C16.6307 1.84528 16.4076 1.62228 16.1492 1.36384L16.1114 1.32608ZM14.0922 1.75354C14.1268 1.7679 14.1937 1.80338 14.3372 1.92857C14.4864 2.05868 14.6691 2.24082 14.9518 2.52344C15.2344 2.80606 15.4165 2.98883 15.5466 3.138C15.6718 3.28152 15.7073 3.34837 15.7217 3.38305C15.8062 3.58724 15.8062 3.81666 15.7217 4.02085C15.7073 4.05553 15.6718 4.12238 15.5466 4.2659C15.4569 4.36881 15.3423 4.48773 15.1871 4.6444L12.8308 2.28809C12.9875 2.13287 13.1064 2.01834 13.2093 1.92857C13.3528 1.80338 13.4197 1.7679 13.4544 1.75354C13.6585 1.66896 13.888 1.66896 14.0922 1.75354ZM11.6519 3.46625L14.009 5.82327L10.0387 9.79351C9.61383 10.2184 9.48684 10.3389 9.3502 10.4258C9.21877 10.5094 9.07628 10.5741 8.92687 10.6182C8.77154 10.6639 8.59726 10.6804 7.99776 10.721L6.66375 10.8115L6.75419 9.47745C6.79483 8.87794 6.81126 8.70367 6.85704 8.54833C6.90107 8.39893 6.96583 8.25643 7.04942 8.12501C7.13633 7.98837 7.2568 7.86138 7.68169 7.43649L11.6519 3.46625Z" fill="#79808A"/>
<path d="M8.17125 0.166415C7.01624 0.166408 6.09768 0.166402 5.357 0.227913C4.59843 0.290908 3.95211 0.422705 3.3618 0.729348C2.44858 1.20373 1.70398 1.94833 1.2296 2.86154C0.922959 3.45185 0.791162 4.09817 0.728166 4.85674C0.666656 5.59742 0.666661 6.51598 0.666668 7.67099V9.3285C0.666661 10.4835 0.666656 11.4021 0.728166 12.1428C0.791162 12.9013 0.922959 13.5476 1.2296 14.138C1.70398 15.0512 2.44858 15.7958 3.3618 16.2701C3.95211 16.5768 4.59843 16.7086 5.357 16.7716C6.09767 16.8331 7.01622 16.8331 8.1712 16.8331H9.86982C11.0056 16.8331 11.909 16.8331 12.6379 16.7735C13.3842 16.7126 14.0206 16.585 14.6033 16.2881C15.5441 15.8087 16.309 15.0438 16.7884 14.103C17.0853 13.5203 17.2128 12.8839 17.2738 12.1376C17.3333 11.4088 17.3333 10.5055 17.3333 9.36964V9.33308C17.3333 8.87284 16.9602 8.49975 16.5 8.49975C16.0398 8.49975 15.6667 8.87284 15.6667 9.33308C15.6667 10.5136 15.666 11.3489 15.6127 12.0019C15.5601 12.6451 15.4606 13.0378 15.3034 13.3464C14.9838 13.9736 14.4738 14.4835 13.8466 14.8031C13.538 14.9603 13.1454 15.0599 12.5021 15.1124C11.8491 15.1658 11.0139 15.1664 9.83333 15.1664H8.20833C7.00791 15.1664 6.15855 15.1657 5.49493 15.1106C4.84129 15.0564 4.44285 14.9536 4.13009 14.7911C3.52128 14.4749 3.02488 13.9785 2.70862 13.3697C2.54616 13.0569 2.4434 12.6585 2.38912 12.0048C2.334 11.3412 2.33334 10.4918 2.33334 9.29141V7.70808C2.33334 6.50766 2.334 5.65829 2.38912 4.99468C2.4434 4.34104 2.54616 3.9426 2.70862 3.62983C3.02488 3.02102 3.52128 2.52462 4.13009 2.20837C4.44285 2.0459 4.84129 1.94314 5.49493 1.88886C6.15855 1.83375 7.00791 1.83308 8.20833 1.83308H9C9.46024 1.83308 9.83333 1.45999 9.83333 0.999748C9.83333 0.539511 9.46024 0.166415 9 0.166415L8.17125 0.166415Z" fill="#79808A"/>
</svg>
