<svg width="21" height="20" viewBox="0 0 21 20" fill="none" xmlns="http://www.w3.org/2000/svg">
<path d="M0.5 10C0.5 4.47715 4.97715 0 10.5 0C16.0228 0 20.5 4.47715 20.5 10C20.5 15.5228 16.0228 20 10.5 20C4.97715 20 0.5 15.5228 0.5 10Z" fill="#FCA241"/>
<path d="M7.15591 5.19312H13.8849V6.36605H7.15591V5.19312Z" fill="white"/>
<path d="M13.8854 6.5594H7.15631C7.02217 6.5594 6.91241 6.47245 6.91241 6.36617V5.19323C6.91241 5.08695 7.02217 5 7.15631 5H13.8854C14.0195 5 14.1293 5.08695 14.1293 5.19323V6.36617C14.1293 6.47245 14.0195 6.5594 13.8854 6.5594ZM7.40013 6.17294H13.6414V5.38647H7.40013V6.17294Z" fill="white"/>
<path d="M8.52728 8.60575H5.74445L7.15661 6.36621" fill="white"/>
<path d="M8.52732 8.79903H5.74448C5.65912 8.79903 5.58107 8.76425 5.53718 8.70821C5.49328 8.65217 5.4884 8.58068 5.52742 8.52078L6.93958 6.28124C7.00056 6.18655 7.14689 6.14597 7.26641 6.19428C7.38593 6.2426 7.4347 6.35853 7.37617 6.45322L6.14206 8.41265H8.52982C8.66397 8.41265 8.77372 8.4996 8.77372 8.60588C8.77372 8.71216 8.66146 8.79903 8.52732 8.79903Z" fill="white"/>
<path d="M15.2561 8.7991H8.52703C8.43435 8.7991 8.34899 8.75659 8.30753 8.69089L6.93684 6.45135C6.90025 6.39145 6.90513 6.31995 6.94903 6.26392C6.99293 6.20788 7.07098 6.1731 7.15634 6.1731H13.8854C13.9781 6.1731 14.0634 6.21561 14.1049 6.28131L15.4756 8.52085C15.5122 8.58075 15.5073 8.65225 15.4634 8.70828C15.4195 8.76432 15.339 8.7991 15.2561 8.7991ZM8.67813 8.41263H14.8658L13.7317 6.55956H7.54401L8.67813 8.41263Z" fill="white"/>
<path d="M8.527 8.60571H15.256V14.8085H8.527V8.60571Z" fill="white"/>
<path d="M15.2564 14.9999H8.5274C8.39326 14.9999 8.28351 14.9129 8.28351 14.8067V8.60388C8.28351 8.4976 8.39326 8.41064 8.5274 8.41064H15.2564C15.3906 8.41064 15.5003 8.4976 15.5003 8.60388V14.8067C15.5003 14.9129 15.3906 14.9999 15.2564 14.9999ZM8.77122 14.6134H15.0125V8.79711H8.77122V14.6134Z" fill="white"/>
<path d="M8.52639 14.9999H5.74355C5.60941 14.9999 5.49966 14.9129 5.49966 14.8067V8.60388C5.49966 8.4976 5.60941 8.41064 5.74355 8.41064H8.52639C8.66054 8.41064 8.77029 8.4976 8.77029 8.60388V14.8067C8.77029 14.9129 8.66054 14.9999 8.52639 14.9999ZM5.98737 14.6134H8.28242V8.79711H5.98737V14.6134Z" fill="white"/>
<path d="M7.15631 14.9999C7.02217 14.9999 6.91241 14.9129 6.91241 14.8067V8.60388C6.91241 8.4976 7.02217 8.41064 7.15631 8.41064C7.29045 8.41064 7.40021 8.4976 7.40021 8.60388V14.8067C7.40021 14.9129 7.29045 14.9999 7.15631 14.9999Z" fill="white"/>
</svg>
