<svg width="17" height="17" viewBox="0 0 17 17" fill="none" xmlns="http://www.w3.org/2000/svg">
<path d="M16.7193 15.3845L12.9862 11.6499C14.1055 10.1913 14.6281 8.36152 14.4479 6.5318C14.2678 4.70208 13.3983 3.00939 12.0161 1.79711C10.6338 0.584833 8.84211 -0.0562613 7.00452 0.00387866C5.16693 0.0640186 3.42102 0.820889 2.12096 2.12096C0.820889 3.42102 0.0640186 5.16693 0.00387866 7.00452C-0.0562613 8.84211 0.584833 10.6338 1.79711 12.0161C3.00939 13.3983 4.70208 14.2678 6.5318 14.4479C8.36152 14.6281 10.1913 14.1055 11.6499 12.9862L15.3861 16.7232C15.4739 16.811 15.578 16.8806 15.6927 16.9281C15.8073 16.9756 15.9302 17 16.0543 17C16.1784 17 16.3012 16.9756 16.4159 16.9281C16.5305 16.8806 16.6347 16.811 16.7224 16.7232C16.8102 16.6355 16.8798 16.5313 16.9273 16.4167C16.9748 16.302 16.9992 16.1792 16.9992 16.0551C16.9992 15.931 16.9748 15.8081 16.9273 15.6935C16.8798 15.5788 16.8102 15.4746 16.7224 15.3869L16.7193 15.3845ZM1.90245 7.24781C1.90245 6.1906 2.21595 5.15713 2.80331 4.27809C3.39066 3.39905 4.22549 2.71392 5.20223 2.30935C6.17897 1.90477 7.25374 1.79891 8.29064 2.00516C9.32753 2.21142 10.28 2.72051 11.0275 3.46807C11.7751 4.21563 12.2842 5.16809 12.4905 6.20498C12.6967 7.24188 12.5908 8.31665 12.1863 9.29339C11.7817 10.2701 11.0966 11.105 10.2175 11.6923C9.33849 12.2797 8.30502 12.5932 7.24781 12.5932C5.83058 12.5917 4.47181 12.0281 3.46968 11.0259C2.46755 10.0238 1.90391 8.66504 1.90245 7.24781Z" fill="#79808A"/>
</svg>
