<svg width="20" height="20" viewBox="0 0 20 20" fill="none" xmlns="http://www.w3.org/2000/svg">
<path fill-rule="evenodd" clip-rule="evenodd" d="M17.2111 0.0672202L1.70001 3.94499C-0.361575 4.46039 -0.618922 7.28612 1.31563 8.16546L6.09467 10.3378C7.07447 10.7831 8.13509 10.944 9.16579 10.8342C9.05597 11.8649 9.21685 12.9255 9.66221 13.9053L11.8345 18.6843C12.7139 20.6189 15.5396 20.3615 16.055 18.3L19.9327 2.78886C20.3437 1.14517 18.8548 -0.3437 17.2111 0.0672202ZM6.92228 8.51702C7.85936 8.94297 8.90819 8.97555 9.8474 8.64237C10.2024 8.51645 10.5417 8.33829 10.8534 8.10937C10.8968 8.07749 10.9397 8.04463 10.982 8.01079L13.2708 6.17974C13.6351 5.88831 14.1117 6.36491 13.8202 6.7292L11.9892 9.01801C11.9553 9.06031 11.9225 9.10318 11.8906 9.14659C11.6617 9.45829 11.4835 9.7976 11.3576 10.1526C11.0244 11.0918 11.057 12.1406 11.4829 13.0777L13.6552 17.8567C13.751 18.0673 14.0586 18.0393 14.1147 17.8149L17.9925 2.30379C18.0372 2.12485 17.8751 1.96277 17.6962 2.00751L2.18509 5.88528C1.96065 5.94138 1.93264 6.249 2.14324 6.34473L6.92228 8.51702Z" fill="#000001"/>
</svg>
