<svg width="121" height="120" viewBox="0 0 121 120" fill="none" xmlns="http://www.w3.org/2000/svg">
<path d="M48.5 21C48.5 22.6567 47.1567 24 45.5 24H33.5C28.5371 24 24.5 28.0371 24.5 33V45C24.5 46.6567 23.1567 48 21.5 48C19.8433 48 18.5 46.6567 18.5 45V33C18.5 24.7295 25.2295 18 33.5 18H45.5C47.1567 18 48.5 19.3433 48.5 21ZM87.5 18H75.5C73.8418 18 72.5 19.3433 72.5 21C72.5 22.6567 73.8418 24 75.5 24H87.5C92.4629 24 96.5 28.0371 96.5 33V45C96.5 46.6567 97.8418 48 99.5 48C101.158 48 102.5 46.6567 102.5 45V33C102.5 24.7295 95.7705 18 87.5 18ZM45.5 96H33.5C28.5371 96 24.5 91.9629 24.5 87V75C24.5 73.3418 23.1567 72 21.5 72C19.8433 72 18.5 73.3418 18.5 75V87C18.5 95.2705 25.2295 102 33.5 102H45.5C47.1567 102 48.5 100.658 48.5 99C48.5 97.3418 47.1567 96 45.5 96ZM99.5 72C97.8418 72 96.5 73.3418 96.5 75V87C96.5 91.9629 92.4629 96 87.5 96H75.5C73.8418 96 72.5 97.3418 72.5 99C72.5 100.658 73.8418 102 75.5 102H87.5C95.7705 102 102.5 95.2705 102.5 87V75C102.5 73.3418 101.158 72 99.5 72Z" fill="#1152F4"/>
<g clip-path="url(#clip0_4947_27321)">
<path d="M69.4342 37.4085C69.4516 36.3832 68.3086 35.6763 67.3992 36.1508L52.2344 43.7333H69.4342V37.4085Z" fill="#1152F4"/>
<path d="M60.5012 58.3945C58.4446 58.3945 56.6978 59.7457 56.1016 61.6069H64.9009C64.3047 59.7456 62.5578 58.3945 60.5012 58.3945Z" fill="#1152F4"/>
<path d="M74.0564 46.5469H46.9452C46.1687 46.5469 45.5391 47.1765 45.5391 47.9531V82.5951C45.5391 83.3717 46.1687 84.0013 46.9452 84.0013H74.0564C74.833 84.0013 75.4626 83.3717 75.4626 82.5951V47.9531C75.4626 47.1765 74.833 46.5469 74.0564 46.5469ZM63.5132 77.9765H57.4884C55.6268 77.9084 55.6242 75.2333 57.4884 75.1642H63.5131C64.2896 75.1642 64.9192 75.7938 64.9192 76.5703C64.9192 77.3469 64.2897 77.9765 63.5132 77.9765ZM68.0317 71.9519H52.9699C51.1108 71.885 51.1032 69.2096 52.9699 69.1395H68.0317C69.8907 69.2065 69.8983 71.8818 68.0317 71.9519ZM68.0317 64.4209H52.9699C52.1933 64.4209 51.5637 63.7913 51.5637 63.0148C51.5679 62.1211 52.339 61.522 53.2051 61.6086C53.7768 58.6371 56.1231 56.2908 59.0946 55.7191C58.9548 53.5403 62.0473 53.5416 61.9069 55.7191C64.8784 56.2908 67.2247 58.6371 67.7964 61.6086C69.8248 61.4492 70.0399 64.3005 68.0317 64.4209Z" fill="#1152F4"/>
</g>
<defs>
<clipPath id="clip0_4947_27321">
<rect width="48" height="48" fill="white" transform="translate(36.5 36)"/>
</clipPath>
</defs>
</svg>
