<svg width="27" height="27" viewBox="0 0 27 27" fill="none" xmlns="http://www.w3.org/2000/svg">
<path d="M26.2441 5.85C26.2441 3.04 23.9641 0.75 21.1641 0.75H5.82414C3.02414 0.75 0.744141 3.04 0.744141 5.85V18.62C0.744141 21.43 3.02414 23.72 5.82414 23.72H18.2541L24.3941 26.19C24.4941 26.23 24.5941 26.25 24.7141 26.25C24.9241 26.25 25.1241 26.17 25.2841 26.03C25.5241 25.82 25.6141 25.49 25.5341 25.17L24.7241 22.26C25.7141 21.3 26.2541 20.01 26.2541 18.62V5.85H26.2441ZM9.25414 13.7C8.45414 13.7 7.79414 13.04 7.79414 12.24C7.79414 11.44 8.44414 10.78 9.25414 10.78C10.0641 10.78 10.7141 11.44 10.7141 12.24C10.7141 13.04 10.0641 13.7 9.25414 13.7ZM13.4941 13.7C12.6941 13.7 12.0341 13.04 12.0341 12.24C12.0341 11.44 12.6841 10.78 13.4941 10.78C14.3041 10.78 14.9541 11.44 14.9541 12.24C14.9541 13.04 14.3041 13.7 13.4941 13.7ZM17.7341 13.7C16.9341 13.7 16.2741 13.04 16.2741 12.24C16.2741 11.44 16.9241 10.78 17.7341 10.78C18.5441 10.78 19.1941 11.44 19.1941 12.24C19.1941 13.04 18.5441 13.7 17.7341 13.7Z" fill="#1152F4"/>
</svg>
