<svg width="14" height="14" viewBox="0 0 14 14" fill="none" xmlns="http://www.w3.org/2000/svg">
<path d="M0 0H14V14H0V0Z" fill="#D80027"/>
<path d="M3.83086 4.25972L4.43516 6.11909H6.39023L4.80977 7.27026L5.41406 9.12964L3.83086 7.9812L2.24766 9.12964L2.85469 7.27026L1.27148 6.11909H3.22656L3.83086 4.25972ZM8.29883 10.8414L7.83672 10.2726L7.15313 10.5378L7.54961 9.92261L7.0875 9.35112L7.7957 9.53979L8.19492 8.92456L8.2332 9.65737L8.94414 9.84605L8.25781 10.1085L8.29883 10.8414ZM9.21758 9.17339L9.43633 8.47339L8.8375 8.04956L9.57031 8.03862L9.78633 7.33862L10.0242 8.03315L10.757 8.02495L10.1691 8.46245L10.4043 9.15698L9.80547 8.73315L9.21758 9.17339ZM10.4563 5.13745L10.1336 5.79644L10.6586 6.30776L9.93398 6.20386L9.61133 6.86011L9.48555 6.13823L8.7582 6.03433L9.40899 5.69253L9.2832 4.96792L9.8082 5.47925L10.4563 5.13745ZM8.31797 3.14136L8.26328 3.87144L8.94414 4.14761L8.23047 4.32261L8.17852 5.05542L7.79297 4.43198L7.0793 4.60698L7.55234 4.04644L7.16406 3.42573L7.84492 3.7019L8.31797 3.14136Z" fill="#FFDA44"/>
</svg>
