<svg width="14" height="14" viewBox="0 0 14 14" fill="none" xmlns="http://www.w3.org/2000/svg">
<path d="M0 0L0.21875 0.601562L0 1.23047V1.85938L0.875 3.33594L0 4.8125V5.6875L0.875 7L0 8.3125V9.1875L0.875 10.6641L0 12.1406V14L0.601562 13.7812L1.23047 14H1.85938L3.33594 13.125L4.8125 14H5.6875L7 13.125L8.3125 14H9.1875L10.6641 13.125L12.1406 14H14L13.7812 13.3984L14 12.7695V12.1406L13.125 10.6641L14 9.1875V8.3125L13.125 7L14 5.6875V4.8125L13.125 3.33594L14 1.85938V0L13.3984 0.21875L12.7695 0H12.1406L10.6641 0.875L9.1875 0H8.3125L7 0.875L5.6875 0H4.8125L3.33594 0.875L1.85938 0H0Z" fill="#EEEEEE"/>
<path d="M9.1875 0V2.95312L12.1406 0H9.1875ZM14 1.85938L11.0469 4.8125H14V1.85938ZM0 4.8125H2.95312L0 1.85938V4.8125ZM1.85938 0L4.8125 2.95312V0H1.85938ZM4.8125 14V11.0469L1.85938 14H4.8125ZM0 12.1406L2.95312 9.1875H0V12.1406ZM14 9.1875H11.0469L14 12.1406V9.1875ZM12.1406 14L9.1875 11.0469V14H12.1406Z" fill="#0052B4"/>
<path d="M0 0V1.23047L3.58203 4.8125H4.8125L0 0ZM5.6875 0V5.6875H0V8.3125H5.6875V14H8.3125V8.3125H14V5.6875H8.3125V0H5.6875ZM12.7695 0L9.1875 3.58203V4.8125L14 0H12.7695ZM4.8125 9.1875L0 14H1.23047L4.8125 10.418V9.1875ZM9.1875 9.1875L14 14V12.7695L10.418 9.1875H9.1875Z" fill="#D80027"/>
</svg>
