<svg width="20" height="20" viewBox="0 0 20 20" fill="none" xmlns="http://www.w3.org/2000/svg">
<path fill-rule="evenodd" clip-rule="evenodd" d="M0 3.5C0 1.84315 1.34315 0.5 3 0.5H6.74586C7.80773 0.5 8.82604 0.92223 9.57635 1.67364L11.4 3.5H14.9925C17.7576 3.5 19.9977 5.7443 19.9925 8.50939L19.9812 14.5094C19.976 17.2671 17.739 19.5 14.9812 19.5H5C2.23858 19.5 0 17.2614 0 14.5V3.5ZM9.57222 4.5L8.1611 3.08682C7.78595 2.71111 7.27679 2.5 6.74586 2.5H3C2.44772 2.5 2 2.94772 2 3.5V6.5H6.74586C7.2768 6.5 7.78595 6.28889 8.1611 5.91318L9.57222 4.5ZM2 8.5V14.5C2 16.1569 3.34315 17.5 5 17.5H14.9812C16.6359 17.5 17.9781 16.1603 17.9812 14.5056L17.9925 8.50563C17.9956 6.84658 16.6515 5.5 14.9925 5.5H11.4L9.57635 7.32636C8.82604 8.07777 7.80773 8.5 6.74586 8.5H2Z" fill="#000001"/>
</svg>
