<svg width="18" height="17" viewBox="0 0 18 17" fill="none" xmlns="http://www.w3.org/2000/svg">
<path d="M1.62421 2.60472H12.2226C12.3603 2.98408 12.6115 3.31185 12.942 3.54348C13.2724 3.77511 13.6662 3.89937 14.0698 3.89937C14.4734 3.89937 14.8672 3.77511 15.1977 3.54348C15.5281 3.31185 15.7793 2.98408 15.917 2.60472H17.345C17.5187 2.60472 17.6853 2.53571 17.8081 2.41286C17.931 2.29002 18 2.12341 18 1.94969C18 1.77596 17.931 1.60935 17.8081 1.48651C17.6853 1.36367 17.5187 1.29465 17.345 1.29465H15.917C15.7793 0.915291 15.5281 0.587522 15.1977 0.355891C14.8672 0.124259 14.4734 0 14.0698 0C13.6662 0 13.2724 0.124259 12.942 0.355891C12.6115 0.587522 12.3603 0.915291 12.2226 1.29465H1.62421C1.45048 1.29465 1.28387 1.36367 1.16103 1.48651C1.03819 1.60935 0.969177 1.77596 0.969177 1.94969C0.969177 2.12341 1.03819 2.29002 1.16103 2.41286C1.28387 2.53571 1.45048 2.60472 1.62421 2.60472ZM14.0698 1.29465C14.1994 1.29465 14.326 1.33307 14.4337 1.40505C14.5414 1.47702 14.6254 1.57932 14.675 1.69902C14.7246 1.81871 14.7375 1.95041 14.7123 2.07748C14.687 2.20454 14.6246 2.32125 14.533 2.41286C14.4414 2.50447 14.3247 2.56686 14.1976 2.59213C14.0705 2.61741 13.9388 2.60443 13.8191 2.55486C13.6994 2.50528 13.5971 2.42132 13.5252 2.3136C13.4532 2.20588 13.4148 2.07924 13.4148 1.94969C13.4148 1.77596 13.4838 1.60935 13.6066 1.48651C13.7295 1.36367 13.8961 1.29465 14.0698 1.29465Z" fill="white"/>
<path d="M17.3449 7.84495H6.74652C6.60883 7.46558 6.35768 7.13782 6.02719 6.90618C5.6967 6.67455 5.30291 6.55029 4.89934 6.55029C4.49576 6.55029 4.10197 6.67455 3.77148 6.90618C3.44099 7.13782 3.18984 7.46558 3.05215 7.84495H1.62418C1.45045 7.84495 1.28384 7.91396 1.161 8.0368C1.03816 8.15964 0.969147 8.32625 0.969147 8.49998C0.969147 8.6737 1.03816 8.84031 1.161 8.96316C1.28384 9.086 1.45045 9.15501 1.62418 9.15501H3.05215C3.18984 9.53437 3.44099 9.86214 3.77148 10.0938C4.10197 10.3254 4.49576 10.4497 4.89934 10.4497C5.30291 10.4497 5.6967 10.3254 6.02719 10.0938C6.35768 9.86214 6.60883 9.53437 6.74652 9.15501H17.3449C17.5187 9.15501 17.6853 9.086 17.8081 8.96316C17.931 8.84031 18 8.6737 18 8.49998C18 8.32625 17.931 8.15964 17.8081 8.0368C17.6853 7.91396 17.5187 7.84495 17.3449 7.84495ZM4.89934 9.15501C4.76978 9.15501 4.64314 9.11659 4.53542 9.04462C4.4277 8.97264 4.34374 8.87034 4.29417 8.75065C4.24459 8.63096 4.23162 8.49925 4.25689 8.37219C4.28216 8.24512 4.34455 8.12841 4.43616 8.0368C4.52777 7.94519 4.64448 7.88281 4.77155 7.85753C4.89861 7.83226 5.03031 7.84523 5.15001 7.89481C5.2697 7.94439 5.372 8.02834 5.44397 8.13606C5.51595 8.24378 5.55437 8.37043 5.55437 8.49998C5.55437 8.6737 5.48535 8.84031 5.36251 8.96316C5.23967 9.086 5.07306 9.15501 4.89934 9.15501Z" fill="white"/>
<path d="M17.3449 14.3952H12.6418C12.5041 14.0159 12.253 13.6881 11.9225 13.4565C11.592 13.2248 11.1982 13.1006 10.7946 13.1006C10.391 13.1006 9.99725 13.2248 9.66676 13.4565C9.33628 13.6881 9.08512 14.0159 8.94743 14.3952H1.62418C1.45045 14.3952 1.28384 14.4643 1.161 14.5871C1.03816 14.7099 0.969147 14.8765 0.969147 15.0503C0.969147 15.224 1.03816 15.3906 1.161 15.5134C1.28384 15.6363 1.45045 15.7053 1.62418 15.7053H8.94743C9.08512 16.0847 9.33628 16.4124 9.66676 16.6441C9.99725 16.8757 10.391 17 10.7946 17C11.1982 17 11.592 16.8757 11.9225 16.6441C12.253 16.4124 12.5041 16.0847 12.6418 15.7053H17.3449C17.5187 15.7053 17.6853 15.6363 17.8081 15.5134C17.931 15.3906 18 15.224 18 15.0503C18 14.8765 17.931 14.7099 17.8081 14.5871C17.6853 14.4643 17.5187 14.3952 17.3449 14.3952ZM10.7946 15.7053C10.6651 15.7053 10.5384 15.6669 10.4307 15.5949C10.323 15.5229 10.239 15.4206 10.1894 15.3009C10.1399 15.1812 10.1269 15.0495 10.1522 14.9225C10.1774 14.7954 10.2398 14.6787 10.3314 14.5871C10.423 14.4955 10.5398 14.4331 10.6668 14.4078C10.7939 14.3826 10.9256 14.3955 11.0453 14.4451C11.165 14.4947 11.2673 14.5786 11.3393 14.6864C11.4112 14.7941 11.4496 14.9207 11.4496 15.0503C11.4496 15.224 11.3806 15.3906 11.2578 15.5134C11.135 15.6363 10.9683 15.7053 10.7946 15.7053Z" fill="white"/>
</svg>
