<svg width="21" height="20" viewBox="0 0 21 20" fill="none" xmlns="http://www.w3.org/2000/svg">
<path d="M0.5 10C0.5 4.47715 4.97715 0 10.5 0C16.0228 0 20.5 4.47715 20.5 10C20.5 15.5228 16.0228 20 10.5 20C4.97715 20 0.5 15.5228 0.5 10Z" fill="#FA4144"/>
<path d="M14.0908 7.13298C13.2351 6.64415 11.9424 6.60975 10.9461 7.05288C10.9028 7.07239 10.8589 7.09242 10.8155 7.11347C10.8759 6.80847 11.0246 6.41822 11.3803 6.08703C11.8963 5.60589 12.527 5.5335 12.7745 5.5258L12.7537 5C12.4402 5.01027 11.6405 5.10115 10.9845 5.71374C10.8007 5.88473 10.6601 6.06752 10.5531 6.24878C10.4675 6.08036 10.3506 5.92425 10.2046 5.78716C9.78465 5.39435 9.18416 5.22696 8.59844 5.34044L8.41565 5.37587L8.38052 5.54789C8.29215 5.9674 8.37778 6.39461 8.60941 6.74532C7.99136 6.73094 7.38262 6.86239 6.90788 7.133C6.23219 7.51811 5.7766 8.22002 5.58998 9.16535C5.29797 10.6401 5.73214 12.3936 6.66802 13.5294C7.56327 14.6179 8.56065 15.1304 9.47402 14.9712C9.84233 14.9071 10.192 14.7361 10.4999 14.4732C10.7475 14.6847 11.09 14.8952 11.5258 14.9712C11.6356 14.9897 11.7448 15 11.8562 15C12.6768 15 13.5441 14.4886 14.3306 13.5304C15.2681 12.3936 15.7023 10.6401 15.4098 9.16479C15.2231 8.21948 14.7675 7.51759 14.0919 7.13244L14.0908 7.13298ZM9.25881 6.67291C9.02114 6.45057 8.89763 6.14711 8.90916 5.83286C9.24343 5.81694 9.56838 5.93556 9.80715 6.15892C10.0487 6.38382 10.1738 6.68986 10.1601 7.00155C10.0629 7.00411 9.96742 6.99641 9.87467 6.97895H9.87192C9.77477 6.94352 9.67542 6.91169 9.57387 6.88447C9.4586 6.8321 9.35212 6.76072 9.25935 6.67394L9.25881 6.67291Z" fill="white"/>
</svg>
