<svg width="20" height="21" viewBox="0 0 20 21" fill="none" xmlns="http://www.w3.org/2000/svg">
<path d="M6.5 8.5C7.32843 8.5 8 7.82843 8 7C8 6.17157 7.32843 5.5 6.5 5.5C5.67157 5.5 5 6.17157 5 7C5 7.82843 5.67157 8.5 6.5 8.5Z" fill="#000001"/>
<path fill-rule="evenodd" clip-rule="evenodd" d="M9.00549 0.5H10.9945C12.3805 0.499992 13.4828 0.499985 14.3716 0.573798C15.2819 0.649392 16.0575 0.807549 16.7658 1.17552C17.8617 1.74477 18.7552 2.6383 19.3245 3.73415C19.6925 4.44253 19.8506 5.21811 19.9262 6.12839C20 7.0172 20 8.11946 20 9.50544V11.4945C20 12.1854 20 12.806 19.9909 13.3646C20.0049 13.4677 20.0028 13.5726 19.9846 13.675C19.9741 14.1124 19.9563 14.5097 19.9262 14.8716C19.8506 15.7819 19.6925 16.5575 19.3245 17.2658C18.7552 18.3617 17.8617 19.2552 16.7658 19.8245C16.0575 20.1925 15.2819 20.3506 14.3716 20.4262C13.4828 20.5 12.3805 20.5 10.9946 20.5H9.00553C7.61955 20.5 6.5172 20.5 5.62839 20.4262C4.71811 20.3506 3.94253 20.1925 3.23415 19.8245C2.43876 19.4113 1.74996 18.8273 1.21437 18.1191C1.20423 18.1062 1.19444 18.0932 1.185 18.0799C0.994554 17.8238 0.824006 17.5517 0.67552 17.2658C0.307549 16.5575 0.149392 15.7819 0.0737977 14.8716C-1.45957e-05 13.9828 -8.05237e-06 12.8805 1.73096e-07 11.4945V9.50549C-8.05237e-06 8.11949 -1.45957e-05 7.01721 0.0737977 6.12839C0.149392 5.21811 0.307549 4.44253 0.67552 3.73415C1.24477 2.6383 2.1383 1.74477 3.23415 1.17552C3.94253 0.807549 4.71811 0.649392 5.62839 0.573798C6.51721 0.499985 7.61949 0.499992 9.00549 0.5ZM18 9.55V11.0118L16.613 9.565C15.8228 8.74071 14.504 8.74421 13.7182 9.57267L9.05123 14.4929L7.51537 12.6359C6.69326 11.6419 5.15907 11.6746 4.38008 12.7028L2.19042 15.5928C2.13682 15.3463 2.09606 15.0568 2.06694 14.7061C2.0008 13.9097 2 12.8905 2 11.45V9.55C2 8.10949 2.0008 7.09025 2.06694 6.29391C2.13208 5.50955 2.25538 5.03142 2.45035 4.6561C2.82985 3.92553 3.42553 3.32985 4.1561 2.95035C4.53142 2.75538 5.00955 2.63208 5.79391 2.56694C6.59025 2.5008 7.60949 2.5 9.05 2.5H10.95C12.3905 2.5 13.4097 2.5008 14.2061 2.56694C14.9905 2.63208 15.4686 2.75538 15.8439 2.95035C16.5745 3.32985 17.1702 3.92553 17.5497 4.6561C17.7446 5.03142 17.8679 5.50955 17.9331 6.29391C17.9992 7.09025 18 8.10949 18 9.55ZM4.1561 18.0497C3.84198 17.8865 3.55279 17.6833 3.295 17.4467L5.97419 13.9106L7.51005 15.7676C8.27493 16.6924 9.67638 16.74 10.5023 15.8693L15.1693 10.949L17.9782 13.8792C17.9683 14.1812 17.9539 14.4547 17.9331 14.7061C17.8679 15.4905 17.7446 15.9686 17.5497 16.3439C17.1702 17.0745 16.5745 17.6702 15.8439 18.0497C15.4686 18.2446 14.9905 18.3679 14.2061 18.4331C13.4097 18.4992 12.3905 18.5 10.95 18.5H9.05C7.60949 18.5 6.59025 18.4992 5.79391 18.4331C5.00955 18.3679 4.53142 18.2446 4.1561 18.0497Z" fill="#000001"/>
</svg>
