<svg width="21" height="20" viewBox="0 0 21 20" fill="none" xmlns="http://www.w3.org/2000/svg">
<path d="M0.5 10C0.5 4.47715 4.97715 0 10.5 0C16.0228 0 20.5 4.47715 20.5 10C20.5 15.5228 16.0228 20 10.5 20C4.97715 20 0.5 15.5228 0.5 10Z" fill="#1152F4"/>
<path d="M9.96784 15.8519C10.1285 15.9494 10.3128 16.0007 10.5 16C10.6901 16 10.8766 15.9472 11.0395 15.8482L14.4468 13.6578H14.4475C15.0991 13.2605 15.4985 12.5485 15.5 11.7791V6.19153C15.5007 6.0762 15.4322 5.97205 15.3261 5.92814L10.8848 4.07701C10.6371 3.97433 10.3593 3.97433 10.1116 4.07701L5.67394 5.92814C5.56781 5.97204 5.49927 6.0762 5.50001 6.19153V11.7799C5.50148 12.5455 5.89727 13.2553 6.54511 13.6541L9.96784 15.8519ZM8.2808 9.34548C8.28006 9.28447 8.30365 9.2257 8.3464 9.18254C8.38914 9.13939 8.44737 9.11558 8.5078 9.11707H9.62513V7.98913H9.62439C9.62513 7.86339 9.7261 7.76146 9.85066 7.76071H11.1493C11.209 7.75997 11.2672 7.78452 11.31 7.82693C11.352 7.87009 11.3756 7.92886 11.3756 7.98913V9.11707H12.4929H12.4921C12.5526 9.11558 12.6108 9.13939 12.6536 9.18255C12.6963 9.2257 12.7199 9.28448 12.7191 9.34549V10.6557C12.7199 10.7167 12.6963 10.7755 12.6536 10.8187C12.6108 10.8618 12.5526 10.8856 12.4921 10.8841H11.3755V12.0121C11.3763 12.0731 11.3527 12.1319 11.3107 12.175C11.2679 12.2182 11.2097 12.242 11.1493 12.2405H9.85066C9.79096 12.2412 9.73273 12.2174 9.68999 12.1743C9.64797 12.1311 9.62365 12.0731 9.62439 12.0121V10.8841H8.5078C8.44736 10.8856 8.38914 10.8618 8.34639 10.8187C8.30364 10.7755 8.28006 10.7167 8.28079 10.6557L8.2808 9.34548Z" fill="white"/>
</svg>
