<svg width="16" height="21" viewBox="0 0 16 21" fill="none" xmlns="http://www.w3.org/2000/svg">
<path fill-rule="evenodd" clip-rule="evenodd" d="M3.00004 5C3.00004 2.23858 5.23862 0 8.00004 0C10.7615 0 13 2.23858 13 5V9C13 11.7614 10.7615 14 8.00004 14C5.23862 14 3.00004 11.7614 3.00004 9V5ZM8.00004 2C6.34318 2 5.00004 3.34315 5.00004 5V9C5.00004 10.6569 6.34318 12 8.00004 12C9.65689 12 11 10.6569 11 9V5C11 3.34315 9.65689 2 8.00004 2ZM0.494826 12.137C0.971445 11.858 1.58401 12.0182 1.86303 12.4948C3.08977 14.5903 5.37755 16 8.00004 16C10.6225 16 12.9103 14.5903 14.137 12.4948C14.4161 12.0182 15.0286 11.858 15.5053 12.137C15.9819 12.416 16.1421 13.0286 15.863 13.5052C14.4479 15.9225 11.9331 17.6272 9.00004 17.946V20C9.00004 20.5523 8.55232 21 8.00004 21C7.44775 21 7.00004 20.5523 7.00004 20V17.946C4.067 17.6272 1.55218 15.9225 0.137045 13.5052C-0.141977 13.0286 0.0182073 12.416 0.494826 12.137Z" fill="#000001"/>
</svg>
