<svg width="20" height="20" viewBox="0 0 20 20" fill="none" xmlns="http://www.w3.org/2000/svg">
<path fill-rule="evenodd" clip-rule="evenodd" d="M17.1114 2.82608C16.853 2.56759 16.6299 2.34456 16.4328 2.17257C16.2251 1.99147 16.0016 1.82624 15.73 1.71374C15.1174 1.46 14.4291 1.46 13.8165 1.71374C13.5449 1.82624 13.3214 1.99147 13.1138 2.17257C12.9166 2.34456 12.6936 2.56759 12.4351 2.82607L7.44792 7.8132C7.10209 8.15873 6.84068 8.4199 6.64311 8.73054C6.47592 8.99339 6.34641 9.27838 6.25835 9.57719C6.15428 9.93032 6.12945 10.299 6.0966 10.7868L5.98683 12.4061C5.97904 12.5203 5.96996 12.6535 5.97222 12.7702C5.97478 12.9029 5.99135 13.1 6.09166 13.3062C6.21406 13.5578 6.41736 13.7611 6.66901 13.8835C6.87524 13.9839 7.07233 14.0004 7.20498 14.003C7.32168 14.0052 7.45488 13.9962 7.56915 13.9884L9.18843 13.8786C9.67619 13.8458 10.0449 13.8209 10.398 13.7169C10.6968 13.6288 10.9818 13.4993 11.2447 13.3321C11.5553 13.1345 11.8165 12.8731 12.162 12.5273L17.1491 7.54012C17.4076 7.28165 17.6306 7.05863 17.8026 6.86145C17.9837 6.65384 18.149 6.43026 18.2615 6.15866C18.5152 5.54609 18.5152 4.85781 18.2615 4.24524C18.149 3.97363 17.9837 3.75006 17.8026 3.54245C17.6307 3.34528 17.4076 3.12228 17.1492 2.86384L17.1114 2.82608ZM15.0922 3.25354C15.1268 3.2679 15.1937 3.30338 15.3372 3.42857C15.4864 3.55868 15.6691 3.74082 15.9518 4.02344C16.2344 4.30606 16.4165 4.48883 16.5466 4.638C16.6718 4.78152 16.7073 4.84837 16.7217 4.88305C16.8062 5.08724 16.8062 5.31666 16.7217 5.52085C16.7073 5.55553 16.6718 5.62238 16.5466 5.7659C16.4569 5.86881 16.3423 5.98773 16.1871 6.1444L13.8308 3.78809C13.9875 3.63287 14.1064 3.51834 14.2093 3.42857C14.3528 3.30338 14.4197 3.2679 14.4544 3.25354C14.6585 3.16896 14.888 3.16896 15.0922 3.25354ZM12.6519 4.96625L15.009 7.32327L11.0387 11.2935C10.6138 11.7184 10.4868 11.8389 10.3502 11.9258C10.2188 12.0094 10.0763 12.0741 9.92687 12.1182C9.77153 12.1639 9.59726 12.1804 8.99775 12.221L7.66374 12.3115L7.75418 10.9774C7.79483 10.3779 7.81126 10.2037 7.85704 10.0483C7.90107 9.89893 7.96583 9.75643 8.04942 9.62501C8.13633 9.48837 8.2568 9.36138 8.68169 8.93649L12.6519 4.96625Z" fill="#000001"/>
<path d="M9.17124 1.66641C8.01624 1.66641 7.09768 1.6664 6.35699 1.72791C5.59843 1.79091 4.95211 1.92271 4.36179 2.22935C3.44858 2.70373 2.70398 3.44833 2.2296 4.36154C1.92296 4.95185 1.79116 5.59817 1.72816 6.35674C1.66665 7.09742 1.66666 8.01598 1.66667 9.17099V10.8285C1.66666 11.9835 1.66665 12.9021 1.72816 13.6428C1.79116 14.4013 1.92296 15.0476 2.2296 15.638C2.70398 16.5512 3.44858 17.2958 4.36179 17.7701C4.95211 18.0768 5.59843 18.2086 6.35699 18.2716C7.09767 18.3331 8.01622 18.3331 9.1712 18.3331H10.8698C12.0056 18.3331 12.909 18.3331 13.6379 18.2735C14.3842 18.2126 15.0206 18.085 15.6033 17.7881C16.5441 17.3087 17.309 16.5438 17.7884 15.603C18.0853 15.0203 18.2128 14.3839 18.2738 13.6376C18.3333 12.9088 18.3333 12.0055 18.3333 10.8696V10.8331C18.3333 10.3728 17.9602 9.99975 17.5 9.99975C17.0398 9.99975 16.6667 10.3728 16.6667 10.8331C16.6667 12.0136 16.666 12.8489 16.6127 13.5019C16.5601 14.1451 16.4606 14.5378 16.3034 14.8464C15.9838 15.4736 15.4738 15.9835 14.8466 16.3031C14.538 16.4603 14.1454 16.5599 13.5021 16.6124C12.8491 16.6658 12.0139 16.6664 10.8333 16.6664H9.20833C8.00791 16.6664 7.15854 16.6657 6.49493 16.6106C5.84129 16.5564 5.44285 16.4536 5.13008 16.2911C4.52127 15.9749 4.02487 15.4785 3.70862 14.8697C3.54615 14.5569 3.4434 14.1585 3.38911 13.5048C3.334 12.8412 3.33333 11.9918 3.33333 10.7914V9.20808C3.33333 8.00766 3.334 7.15829 3.38911 6.49468C3.4434 5.84104 3.54615 5.4426 3.70862 5.12983C4.02487 4.52102 4.52127 4.02462 5.13008 3.70837C5.44285 3.5459 5.84129 3.44314 6.49493 3.38886C7.15854 3.33375 8.00791 3.33308 9.20833 3.33308H10C10.4602 3.33308 10.8333 2.95999 10.8333 2.49975C10.8333 2.03951 10.4602 1.66641 10 1.66641L9.17124 1.66641Z" fill="#000001"/>
</svg>
