<svg width="30" height="31" viewBox="0 0 30 31" fill="none" xmlns="http://www.w3.org/2000/svg">
<path d="M0 15.5C0 7.21573 6.71573 0.5 15 0.5C23.2843 0.5 30 7.21573 30 15.5C30 23.7843 23.2843 30.5 15 30.5C6.71573 30.5 0 23.7843 0 15.5Z" fill="#9441FA"/>
<path d="M12.1313 17.9446L17.4424 12.6335L13.9091 9.10023C13.198 8.38909 12.2558 7.99902 11.2536 7.99902C10.2514 7.99902 9.3062 8.38909 8.59805 9.10023C7.13377 10.5645 7.13377 12.947 8.59805 14.4113L12.1313 17.9446ZM9.62928 10.1312C9.74649 10.014 9.93638 10.014 10.0536 10.1312C10.1708 10.2484 10.1708 10.4385 10.0536 10.5555C9.7336 10.8754 9.5575 11.3014 9.5575 11.7552C9.5575 12.2089 9.7336 12.635 10.0536 12.9548C10.1708 13.0719 10.1708 13.2619 10.0536 13.3791C9.99499 13.4377 9.91821 13.467 9.84144 13.467C9.76466 13.467 9.68788 13.4377 9.62928 13.3791C9.19589 12.946 8.95736 12.3692 8.95736 11.7552C8.95736 11.1411 9.19589 10.5643 9.62928 10.1312Z" fill="white"/>
<path d="M17.8668 13.0576L12.5558 18.3687L16.0907 21.9036C16.8228 22.6358 17.783 23.0018 18.7462 23.0018C19.2263 23.0018 19.7064 22.9118 20.1595 22.7258C20.6125 22.5457 21.0356 22.2697 21.4017 21.9036C22.866 20.4393 22.866 18.0568 21.4017 16.5926L17.8668 13.0576Z" fill="white"/>
</svg>
