<svg width="6" height="6" viewBox="0 0 6 6" fill="none" xmlns="http://www.w3.org/2000/svg">
<path fill-rule="evenodd" clip-rule="evenodd" d="M0.604605 0.604605C0.744078 0.465132 0.970208 0.465132 1.10968 0.604605L3 2.49492L4.89032 0.604605C5.02979 0.465132 5.25592 0.465132 5.3954 0.604605C5.53487 0.744078 5.53487 0.970208 5.3954 1.10968L3.50508 3L5.3954 4.89032C5.53487 5.02979 5.53487 5.25592 5.3954 5.3954C5.25592 5.53487 5.02979 5.53487 4.89032 5.3954L3 3.50508L1.10968 5.3954C0.970208 5.53487 0.744078 5.53487 0.604605 5.3954C0.465132 5.25592 0.465132 5.02979 0.604605 4.89032L2.49492 3L0.604605 1.10968C0.465132 0.970208 0.465132 0.744078 0.604605 0.604605Z" fill="white"/>
</svg>
