<svg width="114" height="86" viewBox="0 0 114 86" fill="none" xmlns="http://www.w3.org/2000/svg">
<path d="M72.59 0.359985H40.63C18.1907 0.359985 0 18.5506 0 40.99V44.54C0 66.9793 18.1907 85.17 40.63 85.17H72.59C95.0293 85.17 113.22 66.9793 113.22 44.54V40.99C113.22 18.5506 95.0293 0.359985 72.59 0.359985Z" fill="#1152F4"/>
<path d="M90.74 42.77C90.74 31.19 81.36 21.81 69.78 21.81H43.44C31.86 21.81 22.48 31.19 22.48 42.77C22.48 54.35 31.86 63.73 43.44 63.73H69.78C70.95 63.73 72.08 63.61 73.2 63.43L90.74 80.21V42.77Z" fill="white"/>
<path d="M42.1499 48.73C45.4416 48.73 48.1099 46.0616 48.1099 42.77C48.1099 39.4784 45.4416 36.81 42.1499 36.81C38.8583 36.81 36.1899 39.4784 36.1899 42.77C36.1899 46.0616 38.8583 48.73 42.1499 48.73Z" fill="#1152F4"/>
<path d="M71.08 48.73C74.3716 48.73 77.04 46.0616 77.04 42.77C77.04 39.4784 74.3716 36.81 71.08 36.81C67.7884 36.81 65.12 39.4784 65.12 42.77C65.12 46.0616 67.7884 48.73 71.08 48.73Z" fill="#1152F4"/>
</svg>
