<svg width="14" height="14" viewBox="0 0 14 14" fill="none" xmlns="http://www.w3.org/2000/svg">
<path d="M7.66671 4.3335C7.66671 3.96531 7.36823 3.66683 7.00004 3.66683C6.63185 3.66683 6.33337 3.96531 6.33337 4.3335V6.3335H4.33337C3.96518 6.3335 3.66671 6.63197 3.66671 7.00016C3.66671 7.36835 3.96518 7.66683 4.33337 7.66683H6.33337V9.66683C6.33337 10.035 6.63185 10.3335 7.00004 10.3335C7.36823 10.3335 7.66671 10.035 7.66671 9.66683V7.66683H9.66671C10.0349 7.66683 10.3334 7.36835 10.3334 7.00016C10.3334 6.63197 10.0349 6.3335 9.66671 6.3335H7.66671V4.3335Z" fill="#1152F4"/>
<path fill-rule="evenodd" clip-rule="evenodd" d="M7.00004 0.333496C3.31814 0.333496 0.333374 3.31826 0.333374 7.00016C0.333374 10.6821 3.31814 13.6668 7.00004 13.6668C10.6819 13.6668 13.6667 10.6821 13.6667 7.00016C13.6667 3.31826 10.6819 0.333496 7.00004 0.333496ZM1.66671 7.00016C1.66671 4.05464 4.05452 1.66683 7.00004 1.66683C9.94556 1.66683 12.3334 4.05464 12.3334 7.00016C12.3334 9.94568 9.94556 12.3335 7.00004 12.3335C4.05452 12.3335 1.66671 9.94568 1.66671 7.00016Z" fill="#1152F4"/>
</svg>
