<svg width="14" height="14" viewBox="0 0 14 14" fill="none" xmlns="http://www.w3.org/2000/svg">
<path d="M7.66659 4.3335C7.66659 3.96531 7.36811 3.66683 6.99992 3.66683C6.63173 3.66683 6.33325 3.96531 6.33325 4.3335V6.3335H4.33325C3.96506 6.3335 3.66659 6.63197 3.66659 7.00016C3.66659 7.36835 3.96506 7.66683 4.33325 7.66683H6.33325V9.66683C6.33325 10.035 6.63173 10.3335 6.99992 10.3335C7.36811 10.3335 7.66659 10.035 7.66659 9.66683V7.66683H9.66659C10.0348 7.66683 10.3333 7.36835 10.3333 7.00016C10.3333 6.63197 10.0348 6.3335 9.66659 6.3335H7.66659V4.3335Z" fill="white"/>
<path fill-rule="evenodd" clip-rule="evenodd" d="M6.99992 0.333496C3.31802 0.333496 0.333252 3.31826 0.333252 7.00016C0.333252 10.6821 3.31802 13.6668 6.99992 13.6668C10.6818 13.6668 13.6666 10.6821 13.6666 7.00016C13.6666 3.31826 10.6818 0.333496 6.99992 0.333496ZM1.66659 7.00016C1.66659 4.05464 4.0544 1.66683 6.99992 1.66683C9.94544 1.66683 12.3333 4.05464 12.3333 7.00016C12.3333 9.94568 9.94544 12.3335 6.99992 12.3335C4.0544 12.3335 1.66659 9.94568 1.66659 7.00016Z" fill="white"/>
</svg>
