<svg width="13" height="14" viewBox="0 0 13 14" fill="none" xmlns="http://www.w3.org/2000/svg">
<path fill-rule="evenodd" clip-rule="evenodd" d="M5.35317 1.71067C5.78702 0.703215 7.21545 0.703214 7.6493 1.71067L8.64057 4.01249C8.73105 4.2226 8.9291 4.36648 9.15688 4.38761L11.6524 4.61906C12.7446 4.72036 13.186 6.07887 12.3619 6.80281L10.4791 8.45686C10.3072 8.60784 10.2315 8.84066 10.2818 9.06383L10.8329 11.5087C11.074 12.5787 9.91842 13.4184 8.97526 12.8583L6.82034 11.5788C6.62363 11.462 6.37884 11.462 6.18214 11.5788L4.02721 12.8583C3.08405 13.4184 1.92843 12.5787 2.1696 11.5087L2.72062 9.06383C2.77092 8.84066 2.69527 8.60784 2.52341 8.45686L0.640568 6.80281C-0.183509 6.07887 0.257898 4.72036 1.35011 4.61906L3.84559 4.38761C4.07337 4.36648 4.27142 4.2226 4.3619 4.01249L5.35317 1.71067ZM7.4925 4.50689L6.50124 2.20508L5.50997 4.50689C5.23852 5.13722 4.64439 5.56889 3.96103 5.63227L1.46555 5.86372L3.34839 7.51777C3.86399 7.97071 4.09093 8.66916 3.94003 9.33866L3.38901 11.7835L5.54393 10.504C6.13404 10.1536 6.86843 10.1536 7.45854 10.504L9.61346 11.7835L9.06244 9.33866C8.91154 8.66916 9.13848 7.97071 9.65408 7.51777L11.5369 5.86372L9.04144 5.63227C8.35808 5.56889 7.76395 5.13722 7.4925 4.50689Z" fill="white"/>
<path d="M5.79551 3.21372C5.80434 3.0623 5.86684 2.92544 5.96457 2.82188C5.96548 2.76904 5.96694 2.71935 5.96885 2.67722C5.97003 2.65104 5.97204 2.62248 5.97434 2.59605C5.97545 2.58323 5.9771 2.56552 5.97983 2.546C5.981 2.53771 5.98748 2.48561 6.0073 2.42576C6.01132 2.41362 6.04985 2.28522 6.1666 2.17185C6.23785 2.10272 6.37295 2.00678 6.56821 1.99607C6.7647 1.98537 6.91099 2.06679 6.99118 2.13035C7.12136 2.23356 7.17239 2.36069 7.17734 2.37205C7.19385 2.4099 7.20312 2.44163 7.20725 2.45628C7.22137 2.50641 7.22808 2.5563 7.22983 2.56797C7.23616 2.61013 7.2442 2.67338 7.2518 2.73338C7.26834 2.86383 7.29245 3.04573 7.32932 3.25523C7.3906 3.60339 7.48958 4.02889 7.59482 4.40818C7.69757 4.32355 7.83957 4.26052 8.00986 4.26475C8.19611 4.26944 8.32271 4.3543 8.37241 4.3917C8.4296 4.43474 8.46718 4.47836 8.48594 4.50157C8.59632 4.63826 8.71809 4.7934 8.81553 4.94041C8.86422 5.01388 8.91456 5.09658 8.95591 5.18211C8.98824 5.24901 9.03158 5.35595 9.05051 5.48301C9.16146 5.54167 9.29627 5.59367 9.4509 5.6417C9.64496 5.61835 9.84431 5.59419 10.0387 5.57334C10.3201 5.54316 10.5991 5.51751 10.7918 5.51597C10.8418 5.51558 10.8978 5.51709 10.953 5.52207C10.9918 5.52558 11.096 5.53542 11.2051 5.5825C11.2579 5.60533 11.3824 5.66613 11.4803 5.80406C11.604 5.9784 11.6265 6.19202 11.5652 6.37595C11.5164 6.52197 11.4283 6.6122 11.3894 6.64878C11.3431 6.69228 11.2979 6.72285 11.2679 6.74156C11.1345 6.82478 10.9636 6.8672 10.8681 6.88926C10.7609 6.91405 10.6366 6.93479 10.505 6.95152C10.5049 6.96074 10.5053 6.96911 10.505 6.97654C10.5015 7.05845 10.4866 7.13115 10.4726 7.18467C10.4202 7.3863 10.3233 7.58629 10.1162 7.91831C10.0113 8.08654 9.86984 8.30089 9.72678 8.50059C9.59183 8.68895 9.42772 8.90376 9.28061 9.04441C9.24282 9.08054 9.19051 9.12533 9.12619 9.16892C9.12893 9.17338 9.13201 9.17791 9.13474 9.18235C9.40089 9.61618 9.64637 10.0789 9.80368 10.3609C9.9655 10.651 10.0532 10.7876 10.0936 10.8449C10.1139 10.8738 10.1159 10.8728 10.1028 10.8584C10.099 10.8543 10.0925 10.8485 10.0844 10.8407C10.2055 11.5932 9.45894 11.8877 9.41001 11.8691C9.40034 11.8649 9.38729 11.8592 9.38376 11.8575L9.37766 11.8545C9.35531 11.8433 9.33614 11.8301 9.31907 11.8197C9.3229 11.8224 9.32553 11.8249 9.327 11.8258C9.33049 11.8279 9.33523 11.831 9.33677 11.8319C9.33769 11.8324 9.33861 11.8334 9.33921 11.8337C9.33666 11.8322 9.33241 11.8291 9.327 11.8258C9.31975 11.8213 9.31301 11.8163 9.30625 11.8117C9.29537 11.8049 9.28498 11.8003 9.27756 11.7953C9.25601 11.7806 9.2361 11.7657 9.22324 11.7562C9.19318 11.734 9.17674 11.7217 9.15549 11.7074C9.1198 11.6833 9.07635 11.658 9.01389 11.6372C8.56811 11.4888 8.11836 11.3582 7.80234 11.3259C7.63801 11.3091 7.46105 11.2715 7.2695 11.177C7.08638 11.0866 6.91866 10.9583 6.74887 10.7986C6.57199 10.6322 6.42238 10.4917 6.2905 10.3805C6.15584 10.5176 6.00567 10.6243 5.8779 10.7027C5.62476 10.8581 5.33671 10.9828 5.08689 11.0775C5.06478 11.0859 5.03828 11.0947 5.00815 11.1031C4.8288 11.241 4.6693 11.3652 4.551 11.4645C4.29403 11.6802 4.28366 11.7251 4.17624 11.8313C4.15069 11.8565 4.06073 11.9453 3.91867 11.9955C3.83897 12.0236 3.69203 12.0574 3.5195 12.0046C3.331 11.9469 3.2104 11.8164 3.14658 11.697C3.04691 11.5105 3.07201 11.3339 3.07578 11.3039C3.08395 11.2391 3.09998 11.1842 3.11362 11.1452C3.14048 11.0685 3.14926 10.9985 3.20273 10.7796C3.24636 10.6011 3.31325 10.3653 3.44199 10.1321C3.57696 9.88751 3.70301 9.65148 3.80149 9.44297C3.83416 9.37378 3.86058 9.31171 3.88327 9.25742C3.87704 9.23106 3.87019 9.20585 3.86496 9.18174C3.80648 8.91211 3.75857 8.57102 3.72702 8.33457C3.71284 8.22823 3.70083 8.12537 3.6904 8.02757C3.65318 8.03033 3.62152 8.03082 3.59824 8.0294C3.44763 8.02017 3.32092 7.95984 3.28635 7.94395C3.22749 7.91688 3.1649 7.88325 3.1124 7.85484C2.90626 7.74327 2.54764 7.55507 2.18528 7.29392C1.87351 7.06923 1.56149 6.88066 1.32285 6.73484C1.21379 6.6682 1.09612 6.59631 1.01523 6.5377C0.995067 6.52309 0.892602 6.45144 0.816257 6.34361C0.795005 6.31363 0.622825 6.07589 0.732029 5.76255C0.850632 5.42228 1.16549 5.3571 1.21421 5.34751L1.27829 5.33103C1.32778 5.31816 1.39733 5.29958 1.49375 5.2761C1.68664 5.22913 1.9819 5.16182 2.44345 5.06858C2.63043 5.03083 2.85787 5.00089 3.02634 4.97459C3.2153 4.94509 3.36672 4.91581 3.48532 4.87693C3.74204 4.79276 3.95385 4.6852 4.21103 4.56443C4.44727 4.4535 4.74871 4.31744 5.08811 4.27696C5.24419 4.25834 5.40542 4.24556 5.56235 4.24156C5.61393 4.02357 5.66168 3.82328 5.69724 3.66844C5.75346 3.42361 5.77959 3.30234 5.79123 3.24119C5.79409 3.22617 5.79543 3.21733 5.79612 3.21311L5.79551 3.21372ZM9.22934 11.7513C9.2312 11.7529 9.23355 11.754 9.23545 11.7556C9.23317 11.7535 9.23094 11.7515 9.22873 11.7495L9.22934 11.7513ZM4.29343 11.5578C4.29646 11.5492 4.30075 11.536 4.30503 11.5188C4.30088 11.5317 4.29792 11.545 4.29343 11.5578ZM9.9874 10.765C9.99508 10.7699 10.0375 10.801 10.0747 10.8321C10.0697 10.8276 10.0649 10.822 10.0588 10.8169C10.0475 10.8073 10.0329 10.7956 10.0155 10.7833C10.0066 10.7771 9.99694 10.7707 9.98679 10.7644L9.97763 10.7589C9.97939 10.7599 9.98405 10.7629 9.9874 10.765Z" fill="white"/>
</svg>
