<svg width="20" height="20" viewBox="0 0 20 20" fill="none" xmlns="http://www.w3.org/2000/svg">
<path fill-rule="evenodd" clip-rule="evenodd" d="M9.99997 6.66685C8.15902 6.66685 6.66664 8.15923 6.66664 10.0002C6.66664 11.8411 8.15902 13.3335 9.99997 13.3335C11.8409 13.3335 13.3333 11.8411 13.3333 10.0002C13.3333 8.15923 11.8409 6.66685 9.99997 6.66685ZM8.33331 10.0002C8.33331 9.07971 9.0795 8.33351 9.99997 8.33351C10.9204 8.33351 11.6666 9.07971 11.6666 10.0002C11.6666 10.9207 10.9204 11.6668 9.99997 11.6668C9.0795 11.6668 8.33331 10.9207 8.33331 10.0002Z" fill="#1152F4"/>
<path fill-rule="evenodd" clip-rule="evenodd" d="M9.99997 6.66685C8.15902 6.66685 6.66664 8.15923 6.66664 10.0002C6.66664 11.8411 8.15902 13.3335 9.99997 13.3335C11.8409 13.3335 13.3333 11.8411 13.3333 10.0002C13.3333 8.15923 11.8409 6.66685 9.99997 6.66685ZM8.33331 10.0002C8.33331 9.07971 9.0795 8.33351 9.99997 8.33351C10.9204 8.33351 11.6666 9.07971 11.6666 10.0002C11.6666 10.9207 10.9204 11.6668 9.99997 11.6668C9.0795 11.6668 8.33331 10.9207 8.33331 10.0002Z" fill="#1152F4"/>
<path fill-rule="evenodd" clip-rule="evenodd" d="M8.97271 0.847741C9.16042 0.833354 9.37111 0.833438 9.54294 0.833506L10.457 0.833506C10.6288 0.833438 10.8395 0.833354 11.0272 0.847741C11.249 0.864739 11.5565 0.90796 11.8862 1.05797C12.3029 1.24757 12.6596 1.54796 12.9172 1.92639C13.1211 2.22579 13.216 2.52141 13.2704 2.73708C13.3165 2.91961 13.3523 3.12724 13.3814 3.29658L13.4994 3.98045L13.5017 3.98173C13.5307 3.99776 13.5596 4.01399 13.5883 4.03041L13.5904 4.03161L14.3712 3.74904C14.5296 3.69165 14.7244 3.62107 14.9029 3.57135C15.1143 3.5125 15.4128 3.44924 15.768 3.47538C16.2178 3.50848 16.6502 3.66264 17.0196 3.92152C17.3112 4.12595 17.5024 4.3638 17.6288 4.54308C17.7357 4.69454 17.8419 4.87242 17.9283 5.01707L18.3465 5.71686C18.4379 5.86971 18.5494 6.0561 18.6355 6.22955C18.7369 6.43375 18.8607 6.72912 18.898 7.10072C18.9451 7.56868 18.8592 8.04042 18.6502 8.46175C18.4842 8.79634 18.2643 9.0291 18.0974 9.18446C17.9557 9.31642 17.7857 9.45157 17.6462 9.56237L17.0833 10.0002L17.6462 10.438C17.7857 10.5488 17.9557 10.6839 18.0974 10.8159C18.2642 10.9713 18.4842 11.204 18.6502 11.5386C18.8592 11.9599 18.9451 12.4317 18.898 12.8996C18.8606 13.2712 18.7368 13.5666 18.6355 13.7708C18.5494 13.9443 18.4379 14.1307 18.3465 14.2835L17.9282 14.9834C17.8418 15.1281 17.7356 15.3059 17.6288 15.4573C17.5023 15.6366 17.3111 15.8744 17.0195 16.0788C16.6502 16.3377 16.2177 16.4919 15.768 16.525C15.4128 16.5511 15.1142 16.4879 14.9029 16.429C14.7243 16.3793 14.5295 16.3087 14.3711 16.2513L13.5904 15.9688L13.5883 15.97C13.5596 15.9864 13.5307 16.0026 13.5017 16.0186L13.4994 16.0199L13.3814 16.7038C13.3523 16.8731 13.3165 17.0807 13.2704 17.2633C13.216 17.479 13.1211 17.7746 12.9172 18.074C12.6596 18.4524 12.3029 18.7528 11.8862 18.9424C11.5565 19.0924 11.249 19.1356 11.0272 19.1526C10.8395 19.167 10.6288 19.1669 10.457 19.1669H9.54295C9.37112 19.1669 9.16043 19.167 8.97271 19.1526C8.75092 19.1356 8.44348 19.0924 8.11377 18.9424C7.69705 18.7528 7.34039 18.4524 7.0827 18.074C6.87882 17.7746 6.78396 17.479 6.7295 17.2633C6.68341 17.0807 6.64767 16.8731 6.61852 16.7038L6.50055 16.0199L6.49824 16.0186C6.46923 16.0026 6.44036 15.9864 6.41161 15.97L6.4095 15.9687L5.62879 16.2513C5.4704 16.3087 5.27563 16.3793 5.09707 16.429C4.88571 16.4879 4.58717 16.5511 4.23199 16.525C3.7822 16.4919 3.34974 16.3377 2.98043 16.0788C2.68881 15.8744 2.4976 15.6366 2.37113 15.4573C2.2643 15.3058 2.1581 15.128 2.07173 14.9833L1.65347 14.2835C1.56203 14.1306 1.45054 13.9442 1.36445 13.7708C1.26311 13.5666 1.1393 13.2712 1.10194 12.8996C1.05488 12.4317 1.14079 11.9599 1.34978 11.5386C1.51575 11.204 1.73572 10.9713 1.90255 10.8159C2.04424 10.6839 2.21429 10.5488 2.35372 10.438L2.89868 10.0046V9.99576L2.35369 9.56236C2.21425 9.45155 2.04421 9.31644 1.90251 9.18447C1.73569 9.02911 1.51571 8.79635 1.34975 8.46176C1.14075 8.04043 1.05485 7.56869 1.1019 7.10073C1.13926 6.72913 1.26307 6.43376 1.36442 6.22956C1.4505 6.05612 1.562 5.86972 1.65343 5.71687L2.07169 5.01705C2.15806 4.8724 2.26426 4.69454 2.3711 4.54309C2.49756 4.36381 2.68877 4.12596 2.98039 3.92154C3.3497 3.66265 3.78216 3.50849 4.23196 3.47539C4.58713 3.44925 4.88568 3.51251 5.09703 3.57136C5.27558 3.62109 5.47035 3.69166 5.62874 3.74905L6.40949 4.03162L6.4116 4.03042C6.44035 4.014 6.46923 3.99777 6.49823 3.98173L6.50055 3.98045L6.61852 3.29658C6.64767 3.12724 6.68341 2.91962 6.7295 2.73708C6.78396 2.52141 6.87882 2.22579 7.0827 1.92639C7.34039 1.54796 7.69705 1.24757 8.11377 1.05797C8.44348 0.90796 8.75092 0.864739 8.97271 0.847741ZM11.7448 3.61374C11.6758 3.21378 11.6413 3.0138 11.5396 2.86447C11.4538 2.73833 11.3349 2.6382 11.196 2.575C11.0315 2.50018 10.8286 2.50018 10.4227 2.50018H9.57724C9.17137 2.50018 8.96843 2.50018 8.80399 2.575C8.66508 2.6382 8.54619 2.73833 8.4603 2.86447C8.35861 3.0138 8.32411 3.21378 8.2551 3.61374L8.12508 4.36737C8.07869 4.63627 8.05549 4.77072 8.00635 4.87407C7.95811 4.97555 7.91865 5.03102 7.83861 5.10988C7.75709 5.1902 7.60625 5.27358 7.30459 5.44035C7.28235 5.45264 7.26021 5.46509 7.23816 5.47768C6.94961 5.64248 6.80533 5.72488 6.69819 5.75278C6.59296 5.78018 6.52742 5.78582 6.41905 5.77679C6.30872 5.76761 6.18511 5.72288 5.9379 5.63341L5.09327 5.32773C4.7189 5.19224 4.53172 5.1245 4.35427 5.13756C4.20434 5.14859 4.06019 5.19998 3.93709 5.28627C3.7914 5.38841 3.68927 5.55928 3.48503 5.90102L3.10222 6.54154C2.88659 6.90233 2.77878 7.08272 2.7602 7.26748C2.74452 7.42346 2.77315 7.58071 2.84282 7.72115C2.92533 7.8875 3.08981 8.0183 3.41878 8.27991L4.02285 8.76032C4.2327 8.9272 4.33763 9.01064 4.40341 9.10012C4.47451 9.19682 4.50483 9.25968 4.53627 9.37552C4.56535 9.4827 4.56535 9.65519 4.56535 10.0002C4.56535 10.3452 4.56535 10.5177 4.53626 10.6249C4.50483 10.7407 4.47451 10.8036 4.40342 10.9003C4.33763 10.9897 4.2327 11.0732 4.02284 11.2401L3.41882 11.7204C3.08986 11.982 2.92537 12.1129 2.84286 12.2792C2.77319 12.4197 2.74456 12.5769 2.76024 12.7329C2.77882 12.9176 2.88663 13.098 3.10226 13.4588L3.48506 14.0993C3.68931 14.4411 3.79143 14.612 3.93712 14.7141C4.06023 14.8004 4.20438 14.8518 4.35431 14.8628C4.53176 14.8759 4.71894 14.8081 5.0933 14.6726L5.93792 14.367C6.18511 14.2775 6.30873 14.2328 6.41907 14.2236C6.52743 14.2146 6.59297 14.2202 6.6982 14.2476C6.80534 14.2755 6.94962 14.3579 7.23816 14.5227C7.26021 14.5353 7.28235 14.5477 7.30459 14.56C7.60625 14.7268 7.75709 14.8102 7.83861 14.8905C7.91865 14.9693 7.95811 15.0248 8.00635 15.1263C8.05549 15.2296 8.07869 15.3641 8.12508 15.633L8.2551 16.3866C8.32411 16.7866 8.35861 16.9866 8.4603 17.1359C8.54619 17.262 8.66508 17.3622 8.80399 17.4254C8.96843 17.5002 9.17137 17.5002 9.57724 17.5002H10.4227C10.8286 17.5002 11.0315 17.5002 11.196 17.4254C11.3349 17.3622 11.4538 17.262 11.5396 17.1359C11.6413 16.9866 11.6758 16.7866 11.7448 16.3866L11.8749 15.633C11.9213 15.3641 11.9445 15.2296 11.9936 15.1263C12.0418 15.0248 12.0813 14.9693 12.1613 14.8905C12.2429 14.8102 12.3937 14.7268 12.6954 14.56C12.7176 14.5477 12.7397 14.5353 12.7618 14.5227C13.0503 14.3579 13.1946 14.2755 13.3017 14.2476C13.407 14.2202 13.4725 14.2146 13.5809 14.2236C13.6912 14.2328 13.8148 14.2775 14.062 14.367L14.9066 14.6726C15.281 14.8081 15.4682 14.8759 15.6456 14.8628C15.7956 14.8518 15.9397 14.8004 16.0628 14.7141C16.2085 14.612 16.3106 14.4411 16.5149 14.0993L16.8977 13.4588C17.1133 13.098 17.2211 12.9176 17.2397 12.7329C17.2554 12.5769 17.2268 12.4197 17.1571 12.2792C17.0746 12.1129 16.9101 11.9821 16.5811 11.7205L15.9771 11.2401C15.7672 11.0732 15.6623 10.9897 15.5965 10.9003C15.5254 10.8036 15.4951 10.7407 15.4637 10.6249C15.4346 10.5177 15.4346 10.3452 15.4346 10.0002C15.4346 9.65518 15.4346 9.48269 15.4637 9.37551C15.4951 9.25967 15.5254 9.19681 15.5965 9.10011C15.6623 9.01064 15.7672 8.92719 15.9771 8.7603L16.5812 8.27991C16.9101 8.01829 17.0746 7.88749 17.1571 7.72114C17.2268 7.5807 17.2554 7.42345 17.2397 7.26746C17.2212 7.08271 17.1134 6.90232 16.8977 6.54153L16.5149 5.90101C16.3107 5.55927 16.2086 5.3884 16.0629 5.28626C15.9398 5.19997 15.7956 5.14858 15.6457 5.13755C15.4682 5.12449 15.281 5.19223 14.9067 5.32772L14.062 5.6334C13.8148 5.72287 13.6912 5.7676 13.5809 5.77679C13.4725 5.78581 13.407 5.78017 13.3017 5.75277C13.1946 5.72487 13.0503 5.64247 12.7618 5.47768C12.7397 5.46508 12.7176 5.45264 12.6954 5.44035C12.3937 5.27358 12.2429 5.1902 12.1613 5.10988C12.0813 5.03102 12.0418 4.97555 11.9936 4.87407C11.9445 4.77072 11.9213 4.63627 11.8749 4.36737L11.7448 3.61374Z" fill="#1152F4"/>
</svg>
