<svg width="16" height="18" viewBox="0 0 16 18" fill="none" xmlns="http://www.w3.org/2000/svg">
<path d="M12.9969 11.8919L15.804 10.7851C16.0651 10.6812 16.0651 10.3118 15.804 10.2079L12.9969 9.10111C11.991 8.70498 11.1942 7.90824 10.7981 6.90232L9.69131 4.09525C9.63938 3.96469 9.52069 3.89941 9.40348 3.89941C9.28627 3.89941 9.16609 3.9647 9.11565 4.09525L8.00884 6.90232C7.6127 7.90826 6.81597 8.70499 5.81005 9.10111L3.00297 10.2079C2.74185 10.3118 2.74185 10.6812 3.00297 10.7851L5.81005 11.8919C6.81599 12.288 7.61272 13.0848 8.00884 14.0907L9.11565 16.8978C9.16758 17.0283 9.28628 17.0936 9.40348 17.0936C9.52069 17.0936 9.64087 17.0283 9.69131 16.8978L10.7981 14.0907C11.1943 13.0848 11.991 12.288 12.9969 11.8919Z" fill="white"/>
<path d="M2.28041 8.14418L1.54154 6.79254C1.53116 6.77325 1.51484 6.75693 1.49407 6.74506L0.142433 6.0062C-0.0474777 5.90234 -0.0474777 5.63082 0.142433 5.52698L1.49407 4.78811C1.51335 4.77772 1.52968 4.7614 1.54006 4.74211L2.27893 3.39048C2.38279 3.20057 2.65431 3.20057 2.75815 3.39048L3.49702 4.74211C3.5074 4.7614 3.52372 4.77772 3.54449 4.78959L4.89613 5.52846C5.08604 5.63232 5.08604 5.90384 4.89613 6.00768L3.54449 6.74655C3.52521 6.75693 3.50889 6.77325 3.4985 6.79254L2.75963 8.14418C2.65578 8.33409 2.38425 8.33409 2.28041 8.14418Z" fill="white"/>
<path d="M8.3727 1.79695C8.3727 2.98389 6.59229 2.98389 6.59229 1.79695C6.59229 0.610003 8.3727 0.610003 8.3727 1.79695Z" fill="white"/>
</svg>
