<svg width="15" height="14" viewBox="0 0 15 14" fill="none" xmlns="http://www.w3.org/2000/svg">
<path fill-rule="evenodd" clip-rule="evenodd" d="M10.7197 0.46967C11.0126 0.176777 11.4874 0.176777 11.7803 0.46967L14.0303 2.71967C14.3232 3.01256 14.3232 3.48744 14.0303 3.78033L11.7803 6.03033C11.4874 6.32322 11.0126 6.32322 10.7197 6.03033C10.4268 5.73744 10.4268 5.26256 10.7197 4.96967L11.6893 4.00005H4.38886C2.78028 4.00005 1.5 5.31633 1.5 7C1.5 7.41421 1.16421 7.75 0.75 7.75C0.335786 7.75 0 7.41421 0 7C0 4.54153 1.89921 2.50005 4.38886 2.50005H11.6894L10.7197 1.53033C10.4268 1.23744 10.4268 0.762563 10.7197 0.46967ZM14.25 6.25C14.6642 6.25 15 6.58579 15 7C15 9.49624 12.9206 11.5 10.4684 11.5H3.31071L4.28033 12.4697C4.57322 12.7626 4.57322 13.2374 4.28033 13.5303C3.98744 13.8232 3.51256 13.8232 3.21967 13.5303L0.96967 11.2803C0.676777 10.9874 0.676777 10.5126 0.96967 10.2197L3.21967 7.96967C3.51256 7.67678 3.98744 7.67678 4.28033 7.96967C4.57322 8.26256 4.57322 8.73744 4.28033 9.03033L3.31061 10H10.4684C12.1143 10 13.5 8.6459 13.5 7C13.5 6.58579 13.8358 6.25 14.25 6.25Z" fill="#1152F4"/>
</svg>
