<svg width="20" height="21" viewBox="0 0 20 21" fill="none" xmlns="http://www.w3.org/2000/svg">
<path d="M15.9941 8.6272C15.9821 8.50526 15.9518 8.38559 15.9048 8.27197C15.842 8.12029 15.7499 7.98231 15.6338 7.86621C15.5177 7.75011 15.3797 7.65805 15.228 7.59521C15.1144 7.54817 14.9947 7.51792 14.8728 7.50586L14.7498 7.5H8.25024C7.91866 7.5 7.60068 7.63174 7.36621 7.86621C7.13174 8.10068 7 8.41866 7 8.75024V15.2498C7 15.4139 7.03242 15.5764 7.09521 15.728C7.15805 15.8797 7.25011 16.0177 7.36621 16.1338C7.48231 16.2499 7.62029 16.342 7.77197 16.4048C7.92362 16.4676 8.08611 16.5 8.25024 16.5H14.7498L14.8728 16.4941C14.9947 16.4821 15.1144 16.4518 15.228 16.4048C15.3797 16.342 15.5177 16.2499 15.6338 16.1338C15.7499 16.0177 15.842 15.8797 15.9048 15.728C15.9518 15.6144 15.9821 15.4947 15.9941 15.3728L16 15.2498V8.75024L15.9941 8.6272ZM2.5 5.25C2.5 4.01079 3.51079 3 4.75 3H12.25C12.6717 3 13.0471 3.11233 13.3677 3.34497C13.5959 3.51066 13.7687 3.71721 13.9053 3.92651L14.0305 4.13525L14.0642 4.2041C14.2146 4.5533 14.0791 4.96669 13.7397 5.15552C13.4005 5.34418 12.9779 5.24152 12.7605 4.92993L12.7195 4.86475L12.647 4.7439C12.5796 4.64116 12.5266 4.5884 12.4866 4.55933C12.4494 4.53236 12.3907 4.5 12.25 4.5H4.75C4.33921 4.5 4 4.83921 4 5.25V12.7493L4.00659 12.8481C4.01968 12.9459 4.05185 13.0407 4.10181 13.1265C4.15174 13.2121 4.21816 13.2867 4.29663 13.3462L4.37939 13.4004L4.44458 13.4421C4.75417 13.6624 4.85314 14.0861 4.66138 14.4236C4.4695 14.7611 4.0548 14.8927 3.70703 14.7393L3.63818 14.7048L3.51147 14.6272C3.22247 14.4367 2.98108 14.1811 2.80615 13.8809C2.60625 13.5377 2.50038 13.1479 2.5 12.7507V5.25ZM17.5 15.2498L17.4963 15.3853C17.4808 15.7001 17.4114 16.0104 17.2905 16.3022C17.1523 16.6359 16.9497 16.939 16.6943 17.1943C16.439 17.4497 16.1359 17.6523 15.8022 17.7905C15.5104 17.9114 15.2001 17.9808 14.8853 17.9963L14.7498 18H8.25024C7.88908 18 7.53143 17.9287 7.19775 17.7905C6.8641 17.6523 6.56103 17.4497 6.30566 17.1943C6.0503 16.939 5.84769 16.6359 5.70947 16.3022C5.57126 15.9686 5.5 15.6109 5.5 15.2498V8.75024C5.5 8.02083 5.78989 7.32143 6.30566 6.80566C6.82143 6.28989 7.52083 6 8.25024 6H14.7498L14.8853 6.00366C15.2001 6.0192 15.5104 6.08857 15.8022 6.20947C16.1359 6.34769 16.439 6.5503 16.6943 6.80566C16.9497 7.06103 17.1523 7.3641 17.2905 7.69775C17.4287 8.03143 17.5 8.38908 17.5 8.75024V15.2498Z" fill="#000001"/>
</svg>
