<svg width="24" height="25" viewBox="0 0 24 25" fill="none" xmlns="http://www.w3.org/2000/svg">
<path fill-rule="evenodd" clip-rule="evenodd" d="M20.4618 3.96394C20.1542 3.65639 19.8889 3.39103 19.6543 3.18639C19.4073 2.97093 19.1413 2.77434 18.8181 2.64048C18.0893 2.33859 17.2704 2.33859 16.5415 2.64048C16.2184 2.77434 15.9524 2.97093 15.7054 3.18639C15.4708 3.39103 15.2054 3.65639 14.8979 3.96393L8.96419 9.89758C8.55273 10.3087 8.2417 10.6194 8.00663 10.989C7.80771 11.3018 7.65362 11.6408 7.54885 11.9964C7.42503 12.4165 7.39548 12.8552 7.35639 13.4355L7.2258 15.3621C7.21653 15.4981 7.20573 15.6566 7.20841 15.7954C7.21146 15.9532 7.23117 16.1877 7.35052 16.4331C7.49615 16.7325 7.73803 16.9744 8.03745 17.12C8.28282 17.2394 8.51731 17.2591 8.67514 17.2621C8.81399 17.2648 8.97246 17.254 9.10843 17.2448L11.035 17.1142C11.6154 17.0751 12.054 17.0455 12.4742 16.9217C12.8297 16.8169 13.1688 16.6628 13.4815 16.4639C13.8511 16.2288 14.1619 15.9178 14.573 15.5064L20.5066 9.57267C20.8142 9.26515 21.0795 8.9998 21.2842 8.76519C21.4996 8.51818 21.6962 8.25217 21.8301 7.92902C22.132 7.20018 22.132 6.38128 21.8301 5.65245C21.6962 5.32929 21.4996 5.06328 21.2842 4.81627C21.0795 4.58168 20.8142 4.31636 20.5067 4.00886L20.4618 3.96394ZM18.0592 4.47252C18.1005 4.48961 18.18 4.53183 18.3508 4.68077C18.5283 4.83558 18.7457 5.05228 19.082 5.38855C19.4183 5.72481 19.635 5.94227 19.7898 6.11975C19.9387 6.2905 19.9809 6.37004 19.998 6.4113C20.0987 6.65425 20.0987 6.92721 19.998 7.17016C19.9809 7.21142 19.9387 7.29096 19.7898 7.46171C19.683 7.58416 19.5467 7.72565 19.362 7.91205L16.5585 5.10853C16.7449 4.92386 16.8864 4.78758 17.0088 4.68077C17.1796 4.53183 17.2591 4.48961 17.3004 4.47252C17.5433 4.37189 17.8163 4.37189 18.0592 4.47252ZM15.1559 6.51029L17.9603 9.31466L13.2365 14.0384C12.731 14.544 12.5799 14.6873 12.4173 14.7907C12.2609 14.8902 12.0914 14.9672 11.9136 15.0196C11.7288 15.0741 11.5215 15.0936 10.8082 15.142L9.22097 15.2496L9.32858 13.6624C9.37694 12.9491 9.39649 12.7417 9.45096 12.5569C9.50334 12.3792 9.58039 12.2096 9.67985 12.0533C9.78325 11.8907 9.92659 11.7396 10.4321 11.2341L15.1559 6.51029Z" fill="#000001"/>
<path d="M11.0146 2.58418C9.64037 2.58417 8.54747 2.58416 7.66621 2.65735C6.76367 2.7323 5.99469 2.88911 5.29234 3.25395C4.2058 3.81836 3.31988 4.70428 2.75547 5.79082C2.39063 6.49317 2.23382 7.26216 2.15886 8.1647C2.08568 9.04595 2.08569 10.1389 2.08569 11.5131V13.4852C2.08569 14.8594 2.08568 15.9523 2.15886 16.8335C2.23382 17.7361 2.39063 18.5051 2.75547 19.2074C3.31988 20.294 4.2058 21.1799 5.29234 21.7443C5.99469 22.1091 6.76367 22.2659 7.66621 22.3409C8.54746 22.4141 9.64034 22.4141 11.0145 22.4141H13.0355C14.3869 22.4141 15.4618 22.4141 16.3289 22.3432C17.2169 22.2707 17.9741 22.1189 18.6674 21.7657C19.7868 21.1953 20.6968 20.2852 21.2672 19.1659C21.6204 18.4726 21.7722 17.7154 21.8447 16.8274C21.9156 15.9603 21.9156 14.8855 21.9156 13.5341V13.4906C21.9156 12.943 21.4717 12.4991 20.9241 12.4991C20.3765 12.4991 19.9326 12.943 19.9326 13.4906C19.9326 14.8952 19.9318 15.889 19.8683 16.6659C19.8058 17.4313 19.6874 17.8984 19.5003 18.2656C19.1201 19.0119 18.5134 19.6186 17.7671 19.9988C17.4 20.1859 16.9328 20.3043 16.1674 20.3668C15.3905 20.4303 14.3967 20.4311 12.9921 20.4311H11.0587C9.63046 20.4311 8.61989 20.4303 7.83033 20.3647C7.05263 20.3001 6.57857 20.1779 6.20645 19.9846C5.48209 19.6083 4.89147 19.0177 4.5152 18.2933C4.32189 17.9212 4.19963 17.4471 4.13505 16.6694C4.06948 15.8799 4.06868 14.8693 4.06868 13.441V11.5572C4.06868 10.1289 4.06948 9.11837 4.13505 8.32881C4.19963 7.55111 4.32189 7.07705 4.5152 6.70493C4.89147 5.98057 5.48209 5.38995 6.20645 5.01368C6.57857 4.82038 7.05263 4.69812 7.83033 4.63353C8.61989 4.56796 9.63046 4.56716 11.0587 4.56716H12.0006C12.5482 4.56716 12.9921 4.12326 12.9921 3.57567C12.9921 3.02808 12.5482 2.58418 12.0006 2.58418L11.0146 2.58418Z" fill="#000001"/>
</svg>
