<svg width="20" height="20" viewBox="0 0 20 20" fill="none" xmlns="http://www.w3.org/2000/svg">
<path d="M9.99984 8.33366C10.4601 8.33366 10.8332 8.70675 10.8332 9.16699V13.3337C10.8332 13.7939 10.4601 14.167 9.99984 14.167C9.5396 14.167 9.1665 13.7939 9.1665 13.3337V9.16699C9.1665 8.70675 9.5396 8.33366 9.99984 8.33366Z" fill="#000001"/>
<path d="M9.99984 5.83366C10.4601 5.83366 10.8332 6.20676 10.8332 6.66699C10.8332 7.12723 10.4601 7.50033 9.99984 7.50033C9.5396 7.50033 9.1665 7.12723 9.1665 6.66699C9.1665 6.20676 9.5396 5.83366 9.99984 5.83366Z" fill="#000001"/>
<path fill-rule="evenodd" clip-rule="evenodd" d="M1.6665 10.0003C1.6665 5.39795 5.39746 1.66699 9.99984 1.66699C14.6022 1.66699 18.3332 5.39795 18.3332 10.0003C18.3332 14.6027 14.6022 18.3337 9.99984 18.3337C5.39746 18.3337 1.6665 14.6027 1.6665 10.0003ZM9.99984 3.33366C6.31794 3.33366 3.33317 6.31843 3.33317 10.0003C3.33317 13.6822 6.31794 16.667 9.99984 16.667C13.6817 16.667 16.6665 13.6822 16.6665 10.0003C16.6665 6.31843 13.6817 3.33366 9.99984 3.33366Z" fill="#000001"/>
</svg>
