<svg width="16" height="17" viewBox="0 0 16 17" fill="none" xmlns="http://www.w3.org/2000/svg">
<path fill-rule="evenodd" clip-rule="evenodd" d="M3.92857 3.37188C3.92857 1.60173 5.36766 0.166748 7.14286 0.166748H8.85714C10.6323 0.166748 12.0714 1.60173 12.0714 3.37188V5.49438C12.4908 5.52763 12.8817 5.56133 13.2237 5.59223C14.3295 5.69216 15.2072 6.55915 15.3077 7.66633C15.3973 8.65421 15.5 10.0117 15.5 11.0642C15.5 12.1167 15.3973 13.4742 15.3077 14.462C15.2072 15.5692 14.3295 16.4362 13.2237 16.5361C11.8344 16.6617 9.63856 16.8334 8 16.8334C6.36144 16.8334 4.16557 16.6617 2.77634 16.5361C1.67053 16.4362 0.792768 15.5692 0.692314 14.462C0.602684 13.4742 0.5 12.1167 0.5 11.0642C0.5 10.0117 0.602684 8.65421 0.692314 7.66633C0.792768 6.55915 1.67052 5.69216 2.77634 5.59223C3.11832 5.56133 3.50918 5.52763 3.92857 5.49438V3.37188ZM4.6138 6.728C4.61723 6.72778 4.62065 6.72753 4.62406 6.72725C5.75094 6.64525 6.99216 6.577 8 6.577C9.00784 6.577 10.2491 6.64525 11.3759 6.72725C11.3794 6.72753 11.3828 6.72778 11.3862 6.728C12.0165 6.77394 12.6106 6.82414 13.1076 6.86905C13.5995 6.9135 13.9831 7.29587 14.0272 7.78184C14.1164 8.76501 14.2143 10.0735 14.2143 11.0642C14.2143 12.0548 14.1164 13.3634 14.0272 14.3465C13.9831 14.8325 13.5995 15.2149 13.1076 15.2593C11.7198 15.3847 9.57494 15.5514 8 15.5514C6.42506 15.5514 4.28024 15.3847 2.89238 15.2593C2.40052 15.2149 2.01689 14.8325 1.9728 14.3465C1.8836 13.3634 1.78571 12.0548 1.78571 11.0642C1.78571 10.0735 1.8836 8.76501 1.9728 7.78184C2.01689 7.29587 2.40052 6.9135 2.89238 6.86905C3.38941 6.82414 3.98354 6.77394 4.6138 6.728ZM10.7857 5.40165C9.83345 5.34041 8.84297 5.29495 8 5.29495C7.15703 5.29495 6.16655 5.34041 5.21429 5.40165V3.37188C5.21429 2.30979 6.07774 1.4488 7.14286 1.4488H8.85714C9.92226 1.4488 10.7857 2.30979 10.7857 3.37188V5.40165ZM8 9.56846C8.35504 9.56846 8.64286 9.85546 8.64286 10.2095V11.9189C8.64286 12.2729 8.35504 12.5599 8 12.5599C7.64496 12.5599 7.35714 12.2729 7.35714 11.9189V10.2095C7.35714 9.85546 7.64496 9.56846 8 9.56846Z" fill="#1E2A3B"/>
</svg>
