<svg width="116" height="18" viewBox="0 0 116 18" fill="none" xmlns="http://www.w3.org/2000/svg">
<path d="M14.9915 4.05788C14.7212 4.05788 14.5463 4.21689 14.4668 4.53491L11.9571 13.4449C11.6072 14.6878 11.0481 15.5995 10.2848 16.1798C9.52155 16.7602 8.51713 17.0518 7.27419 17.0518C6.54008 17.0518 5.90139 16.959 5.35015 16.7761C4.80156 16.5933 4.33513 16.3415 3.9535 16.0235C3.57187 15.7055 3.26975 15.3238 3.04448 14.876C2.82187 14.4307 2.67081 13.9537 2.5913 13.4422L0.585106 1.33083C0.537403 1.02871 0.51355 0.77429 0.51355 0.567575H5.07718C5.07718 0.647081 5.07983 0.742488 5.09043 0.853796C5.09838 0.965104 5.10898 1.07641 5.12753 1.18772L6.82366 12.2258C6.87136 12.5915 7.06217 12.7744 7.39609 12.7744C7.5392 12.7744 7.65846 12.7373 7.75387 12.6657C7.84928 12.5941 7.92083 12.4616 7.96854 12.2708L10.4306 3.59939C10.7645 2.43596 11.2813 1.57995 11.9836 1.03136C12.6832 0.482769 13.6876 0.207153 14.9942 0.207153C16.3007 0.207153 17.2628 0.477471 17.9333 1.02076C18.6011 1.5614 19.0887 2.38296 19.3909 3.48278L21.8052 12.2735C21.8529 12.4643 21.9244 12.5968 22.0198 12.6683C22.1153 12.7399 22.2345 12.777 22.3776 12.777C22.6956 12.777 22.8865 12.5941 22.9501 12.2284L24.7893 1.19037C24.8211 1.06316 24.837 0.946555 24.837 0.843197V0.567575H29.3529C29.3529 0.694784 29.3476 0.811396 29.3397 0.914754C29.3317 1.01811 29.3105 1.15857 29.2787 1.33348L27.1294 13.4687C26.9386 14.5367 26.4642 15.4007 25.7089 16.0606C24.951 16.7205 23.8485 17.0518 22.3988 17.0518C19.9924 17.0518 18.4712 15.8486 17.8352 13.4449L15.5189 4.53491C15.4394 4.21689 15.2645 4.05788 14.9942 4.05788H14.9915Z" fill="#1152F4"/>
<path d="M48.9644 16.0049C49.028 16.1321 49.081 16.2514 49.1208 16.3627C49.1605 16.474 49.195 16.5932 49.2294 16.7204H44.3557C44.3239 16.6091 44.2921 16.5084 44.2603 16.421C44.2285 16.3335 44.1967 16.2487 44.1649 16.1692L43.3036 14.2107H33.747L32.9096 16.1453C32.8778 16.2408 32.8459 16.3362 32.8141 16.4316C32.7823 16.527 32.7585 16.6224 32.7426 16.7178H27.7496C27.7814 16.5906 27.8159 16.4713 27.8583 16.36C27.898 16.2487 27.9484 16.1294 28.0147 16.0022L33.7974 3.19652C34.2585 2.1921 34.8654 1.44474 35.6128 0.951808C36.3601 0.458872 37.3168 0.212402 38.4803 0.212402C39.6437 0.212402 40.5554 0.458872 41.3107 0.951808C42.066 1.44474 42.6755 2.19475 43.1393 3.19652L48.9697 16.0022L48.9644 16.0049ZM41.7267 10.6542L39.2409 4.87144C39.1614 4.69652 39.058 4.56931 38.9308 4.48981C38.8036 4.4103 38.6605 4.37055 38.5015 4.37055C38.3583 4.37055 38.2232 4.40765 38.096 4.47921C37.9688 4.55077 37.8654 4.68327 37.7859 4.87409L35.3265 10.6568H41.7294L41.7267 10.6542Z" fill="#1152F4"/>
<path d="M45.2382 1.12147C45.111 0.994258 45.0182 0.890901 44.9626 0.811395C44.9069 0.73189 44.8619 0.652382 44.8301 0.572876H50.157C50.1888 0.636481 50.2312 0.715989 50.2895 0.811395C50.3451 0.906802 50.4299 1.01016 50.5412 1.12147L54.604 5.54198C54.7153 5.65329 54.8266 5.70895 54.9379 5.70895C55.0492 5.70895 55.1605 5.65329 55.2718 5.54198L59.3081 1.12147C59.5148 0.914752 59.6499 0.731887 59.7135 0.572876H64.945C64.8973 0.652382 64.8443 0.73189 64.7887 0.811395C64.733 0.890901 64.6402 0.994258 64.513 1.12147L56.9388 9.48282V16.7205H52.566V9.19394L45.2329 1.11881L45.2382 1.12147Z" fill="#1152F4"/>
<path d="M61.0519 16.7204V12.5862H70.0599C70.7754 12.5862 71.2896 12.4192 71.5996 12.0853C71.9097 11.7513 72.0661 11.2478 72.0661 10.58V0.57019H76.4389V10.3891C76.4389 12.3794 75.9221 13.9324 74.8859 15.0482C73.8497 16.1639 72.241 16.7204 70.0599 16.7204H61.0519Z" fill="#1152F4"/>
<path d="M95.6712 0.57019V4.8476H83.3929C83.1385 4.8476 83.0113 4.98276 83.0113 5.25308V7.09231H95.6023V10.1983H83.0113V12.1568C83.0113 12.443 83.1385 12.5862 83.3929 12.5862H95.6712V16.7204H80.9547C79.4415 16.7204 78.6862 15.9731 78.6862 14.4757V2.74599C78.6862 1.29634 79.4494 0.572839 80.9786 0.572839H95.6712V0.57019Z" fill="#1152F4"/>
<path d="M115.5 0.57019V4.8476H108.429V16.7204H104.08V4.8476H96.9858V0.57019H115.5Z" fill="#1152F4"/>
</svg>
