<svg width="16" height="17" viewBox="0 0 16 17" fill="none" xmlns="http://www.w3.org/2000/svg">
<path d="M0 8.5C0 4.08172 3.58172 0.5 8 0.5C12.4183 0.5 16 4.08172 16 8.5C16 12.9183 12.4183 16.5 8 16.5C3.58172 16.5 0 12.9183 0 8.5Z" fill="#1152F4"/>
<path d="M13 7.27652C13 5.55802 11.6258 4.16602 9.92939 4.16602H6.07061C4.37416 4.16602 3 5.55802 3 7.27652C3 8.99501 4.37416 10.387 6.07061 10.387H9.92939C10.1008 10.387 10.2663 10.3692 10.4304 10.3425L13 12.8327V7.27652Z" fill="white"/>
<path d="M5.83321 8.16667C6.29345 8.16667 6.66654 7.79357 6.66654 7.33333C6.66654 6.87309 6.29345 6.5 5.83321 6.5C5.37297 6.5 4.99988 6.87309 4.99988 7.33333C4.99988 7.79357 5.37297 8.16667 5.83321 8.16667Z" fill="#1152F4"/>
<path d="M9.83321 8.16667C10.2934 8.16667 10.6665 7.79357 10.6665 7.33333C10.6665 6.87309 10.2934 6.5 9.83321 6.5C9.37297 6.5 8.99988 6.87309 8.99988 7.33333C8.99988 7.79357 9.37297 8.16667 9.83321 8.16667Z" fill="#1152F4"/>
</svg>
