<svg width="30" height="23" viewBox="0 0 30 23" fill="none" xmlns="http://www.w3.org/2000/svg">
<path d="M19.0931 0.767944H10.9069C5.15933 0.767944 0.5 5.42727 0.5 11.1748V12.0841C0.5 17.8317 5.15933 22.4911 10.9069 22.4911H19.0931C24.8407 22.4911 29.5 17.8317 29.5 12.0841V11.1748C29.5 5.42727 24.8407 0.767944 19.0931 0.767944Z" fill="#1152F4"/>
<path d="M23.742 11.6308C23.742 8.66472 21.3394 6.26215 18.3733 6.26215H11.6267C8.66057 6.26215 6.258 8.66472 6.258 11.6308C6.258 14.5969 8.66057 16.9995 11.6267 16.9995H18.3733C18.673 16.9995 18.9625 16.9687 19.2493 16.9226L23.742 21.2206V11.6308Z" fill="white"/>
<path d="M11.2962 13.1574C12.1393 13.1574 12.8228 12.4739 12.8228 11.6308C12.8228 10.7877 12.1393 10.1042 11.2962 10.1042C10.4531 10.1042 9.76965 10.7877 9.76965 11.6308C9.76965 12.4739 10.4531 13.1574 11.2962 13.1574Z" fill="#1152F4"/>
<path d="M18.7064 13.1574C19.5495 13.1574 20.233 12.4739 20.233 11.6308C20.233 10.7877 19.5495 10.1042 18.7064 10.1042C17.8633 10.1042 17.1798 10.7877 17.1798 11.6308C17.1798 12.4739 17.8633 13.1574 18.7064 13.1574Z" fill="#1152F4"/>
</svg>
