<svg width="24" height="25" viewBox="0 0 24 25" fill="none" xmlns="http://www.w3.org/2000/svg">
<path d="M12 3.5C16.9706 3.5 21 7.52944 21 12.5C21 17.4706 16.9706 21.5 12 21.5C7.02944 21.5 3 17.4706 3 12.5C3 7.52944 7.02944 3.5 12 3.5Z" stroke="#000001" stroke-width="2"/>
<path fill-rule="evenodd" clip-rule="evenodd" d="M10.6665 12.4993C10.6665 11.763 11.2635 11.166 11.9998 11.166C12.7362 11.166 13.3332 11.763 13.3332 12.4993C13.3332 13.2357 12.7362 13.8327 11.9998 13.8327C11.2635 13.8327 10.6665 13.2357 10.6665 12.4993Z" fill="#000001"/>
<path fill-rule="evenodd" clip-rule="evenodd" d="M6.6665 12.4993C6.6665 11.763 7.26346 11.166 7.99984 11.166C8.73622 11.166 9.33317 11.763 9.33317 12.4993C9.33317 13.2357 8.73622 13.8327 7.99984 13.8327C7.26346 13.8327 6.6665 13.2357 6.6665 12.4993Z" fill="#000001"/>
<path fill-rule="evenodd" clip-rule="evenodd" d="M14.6665 12.4993C14.6665 11.763 15.2635 11.166 15.9998 11.166C16.7362 11.166 17.3332 11.763 17.3332 12.4993C17.3332 13.2357 16.7362 13.8327 15.9998 13.8327C15.2635 13.8327 14.6665 13.2357 14.6665 12.4993Z" fill="#000001"/>
</svg>
