<svg width="20" height="20" viewBox="0 0 20 20" fill="none" xmlns="http://www.w3.org/2000/svg">
<path fill-rule="evenodd" clip-rule="evenodd" d="M8.3335 10C8.3335 9.07954 9.07969 8.33334 10.0002 8.33334C10.9206 8.33334 11.6668 9.07954 11.6668 10C11.6668 10.9205 10.9206 11.6667 10.0002 11.6667C9.07969 11.6667 8.3335 10.9205 8.3335 10Z" fill="#1152F4"/>
<path fill-rule="evenodd" clip-rule="evenodd" d="M3.3335 10C3.3335 9.07954 4.07969 8.33334 5.00016 8.33334C5.92064 8.33334 6.66683 9.07954 6.66683 10C6.66683 10.9205 5.92064 11.6667 5.00016 11.6667C4.07969 11.6667 3.3335 10.9205 3.3335 10Z" fill="#1152F4"/>
<path fill-rule="evenodd" clip-rule="evenodd" d="M13.3335 10C13.3335 9.07954 14.0797 8.33334 15.0002 8.33334C15.9206 8.33334 16.6668 9.07954 16.6668 10C16.6668 10.9205 15.9206 11.6667 15.0002 11.6667C14.0797 11.6667 13.3335 10.9205 13.3335 10Z" fill="#1152F4"/>
</svg>
