<svg width="18" height="15" viewBox="0 0 18 15" fill="none" xmlns="http://www.w3.org/2000/svg">
<path fill-rule="evenodd" clip-rule="evenodd" d="M0 1.25C0 0.697715 0.447715 0.25 1 0.25H17C17.5523 0.25 18 0.697715 18 1.25C18 1.80228 17.5523 2.25 17 2.25H1C0.447715 2.25 0 1.80228 0 1.25ZM0 7.25C0 6.69772 0.447715 6.25 1 6.25H17C17.5523 6.25 18 6.69772 18 7.25C18 7.80228 17.5523 8.25 17 8.25H1C0.447715 8.25 0 7.80228 0 7.25ZM0 13.25C0 12.6977 0.447715 12.25 1 12.25H17C17.5523 12.25 18 12.6977 18 13.25C18 13.8023 17.5523 14.25 17 14.25H1C0.447715 14.25 0 13.8023 0 13.25Z" fill="white"/>
</svg>
