<svg width="24" height="25" viewBox="0 0 24 25" fill="none" xmlns="http://www.w3.org/2000/svg">
<path fill-rule="evenodd" clip-rule="evenodd" d="M20.4617 3.96394C20.1542 3.65639 19.8888 3.39103 19.6542 3.18639C19.4072 2.97093 19.1412 2.77434 18.818 2.64048C18.0892 2.33859 17.2703 2.33859 16.5415 2.64048C16.2183 2.77434 15.9523 2.97093 15.7053 3.18639C15.4707 3.39103 15.2053 3.65639 14.8978 3.96393L8.96413 9.89758C8.55267 10.3087 8.24164 10.6194 8.00657 10.989C7.80765 11.3018 7.65356 11.6408 7.54879 11.9964C7.42497 12.4165 7.39542 12.8552 7.35633 13.4355L7.22574 15.3621C7.21647 15.4981 7.20567 15.6566 7.20835 15.7954C7.2114 15.9532 7.23111 16.1877 7.35046 16.4331C7.49609 16.7325 7.73797 16.9744 8.03739 17.12C8.28276 17.2394 8.51725 17.2591 8.67508 17.2621C8.81393 17.2648 8.9724 17.254 9.10837 17.2448L11.035 17.1142C11.6153 17.0751 12.054 17.0455 12.4741 16.9217C12.8296 16.8169 13.1687 16.6628 13.4815 16.4639C13.8511 16.2288 14.1618 15.9178 14.5729 15.5064L20.5066 9.57267C20.8141 9.26515 21.0795 8.9998 21.2841 8.76519C21.4996 8.51818 21.6962 8.25217 21.83 7.92902C22.1319 7.20018 22.1319 6.38128 21.83 5.65245C21.6962 5.32929 21.4996 5.06328 21.2841 4.81627C21.0795 4.58168 20.8141 4.31636 20.5066 4.00886L20.4617 3.96394ZM18.0592 4.47252C18.1004 4.48961 18.18 4.53183 18.3507 4.68077C18.5282 4.83558 18.7457 5.05228 19.0819 5.38855C19.4182 5.72481 19.6349 5.94227 19.7897 6.11975C19.9387 6.2905 19.9809 6.37004 19.998 6.4113C20.0986 6.65425 20.0986 6.92721 19.998 7.17016C19.9809 7.21142 19.9387 7.29096 19.7897 7.46171C19.6829 7.58416 19.5466 7.72565 19.362 7.91205L16.5584 5.10853C16.7448 4.92386 16.8863 4.78758 17.0088 4.68077C17.1795 4.53183 17.2591 4.48961 17.3003 4.47252C17.5433 4.37189 17.8162 4.37189 18.0592 4.47252ZM15.1558 6.51029L17.9602 9.31466L13.2364 14.0384C12.7309 14.544 12.5798 14.6873 12.4172 14.7907C12.2609 14.8902 12.0913 14.9672 11.9136 15.0196C11.7287 15.0741 11.5214 15.0936 10.8081 15.142L9.22091 15.2496L9.32852 13.6624C9.37688 12.9491 9.39643 12.7417 9.45089 12.5569C9.50328 12.3792 9.58033 12.2096 9.67978 12.0533C9.78319 11.8907 9.92653 11.7396 10.4321 11.2341L15.1558 6.51029Z" fill="#000001"/>
<path d="M11.0145 2.58418C9.64031 2.58417 8.54741 2.58416 7.66615 2.65735C6.76361 2.7323 5.99463 2.88911 5.29228 3.25395C4.20574 3.81836 3.31982 4.70428 2.75541 5.79082C2.39057 6.49317 2.23375 7.26216 2.1588 8.1647C2.08562 9.04595 2.08562 10.1389 2.08563 11.5131V13.4852C2.08562 14.8594 2.08562 15.9523 2.1588 16.8335C2.23375 17.7361 2.39057 18.5051 2.75541 19.2074C3.31982 20.294 4.20574 21.1799 5.29228 21.7443C5.99463 22.1091 6.76361 22.2659 7.66615 22.3409C8.5474 22.4141 9.64028 22.4141 11.0145 22.4141H13.0355C14.3869 22.4141 15.4617 22.4141 16.3289 22.3432C17.2168 22.2707 17.974 22.1189 18.6673 21.7657C19.7867 21.1953 20.6968 20.2852 21.2671 19.1659C21.6204 18.4726 21.7721 17.7154 21.8447 16.8274C21.9155 15.9603 21.9155 14.8855 21.9155 13.5341V13.4906C21.9155 12.943 21.4716 12.4991 20.924 12.4991C20.3764 12.4991 19.9325 12.943 19.9325 13.4906C19.9325 14.8952 19.9318 15.889 19.8683 16.6659C19.8057 17.4313 19.6873 17.8984 19.5003 18.2656C19.12 19.0119 18.5133 19.6186 17.7671 19.9988C17.3999 20.1859 16.9327 20.3043 16.1674 20.3668C15.3905 20.4303 14.3967 20.4311 12.9921 20.4311H11.0587C9.6304 20.4311 8.61983 20.4303 7.83027 20.3647C7.05257 20.3001 6.57851 20.1779 6.20638 19.9846C5.48203 19.6083 4.89141 19.0177 4.51514 18.2933C4.32183 17.9212 4.19957 17.4471 4.13499 16.6694C4.06942 15.8799 4.06862 14.8693 4.06862 13.441V11.5572C4.06862 10.1289 4.06942 9.11837 4.13499 8.32881C4.19957 7.55111 4.32183 7.07705 4.51514 6.70493C4.89141 5.98057 5.48203 5.38995 6.20638 5.01368C6.57851 4.82038 7.05257 4.69812 7.83027 4.63353C8.61983 4.56796 9.6304 4.56716 11.0587 4.56716H12.0006C12.5482 4.56716 12.9921 4.12326 12.9921 3.57567C12.9921 3.02808 12.5482 2.58418 12.0006 2.58418L11.0145 2.58418Z" fill="#000001"/>
</svg>
