<svg width="28" height="28" viewBox="0 0 28 28" fill="none" xmlns="http://www.w3.org/2000/svg">
<path fill-rule="evenodd" clip-rule="evenodd" d="M14 3.33268C8.10897 3.33268 3.33334 8.10831 3.33334 13.9993C3.33334 19.8904 8.10897 24.666 14 24.666C19.891 24.666 24.6667 19.8904 24.6667 13.9993C24.6667 8.10831 19.891 3.33268 14 3.33268ZM0.666672 13.9993C0.666672 6.63555 6.63621 0.666016 14 0.666016C21.3638 0.666016 27.3333 6.63555 27.3333 13.9993C27.3333 21.3631 21.3638 27.3327 14 27.3327C6.63621 27.3327 0.666672 21.3631 0.666672 13.9993ZM13.7712 7.00916C14.5076 7.00916 15.1046 7.60611 15.1046 8.34249V14.9654L19.8071 16.753C20.4954 17.0147 20.8413 17.7848 20.5797 18.4731C20.318 19.1614 19.5479 19.5073 18.8596 19.2457L13.2975 17.1313C12.78 16.9346 12.4379 16.4386 12.4379 15.885V8.34249C12.4379 7.60611 13.0349 7.00916 13.7712 7.00916Z" fill="#374151"/>
</svg>
