<svg width="327" height="185" viewBox="0 0 327 185" fill="none" xmlns="http://www.w3.org/2000/svg">
<g clip-path="url(#clip0_385_11000)">
<path d="M217.168 133.986C217.071 133.986 216.986 133.986 216.889 133.986C214.541 133.828 212.765 131.809 212.923 129.461V129.327C212.947 129.12 212.96 128.901 212.972 128.682C213.093 121.749 209.335 114.986 205.88 113.258C204.785 112.711 204.335 112.966 204.177 113.039C203.326 113.526 202.377 115.314 202.17 118.209C202 120.557 199.98 122.321 197.621 122.15C195.273 121.98 193.509 119.949 193.679 117.601C194.069 112.042 196.368 107.687 199.968 105.631C202.9 103.953 206.367 103.953 209.7 105.631C216.463 109.025 221.645 119.207 221.487 128.804C221.487 129.169 221.462 129.522 221.438 129.875V129.996C221.28 132.247 219.407 133.974 217.181 133.974L217.168 133.986Z" fill="#0CFFFF"/>
<path d="M205.114 108.988C202.51 108.988 200.37 106.86 200.37 104.244V71.0241C200.37 68.4209 202.498 66.28 205.114 66.28C207.717 66.28 209.858 68.4088 209.858 71.0241V104.244C209.858 106.848 207.729 108.988 205.114 108.988Z" fill="#0C2471"/>
<path d="M184.459 58.8723C184.459 68.9686 191.307 81.2057 199.761 86.2174C202.474 87.8352 205.028 88.4921 207.242 88.3218L207.109 89.3314L210.125 87.5311C210.405 87.3851 210.685 87.227 210.94 87.0445L210.989 87.0202C213.519 85.2564 215.064 81.8261 215.064 77.0212C215.064 66.925 208.216 54.6878 199.761 49.6762C195.711 47.2677 192.025 46.9757 189.288 48.4233L189.179 48.4841C189.057 48.5449 188.947 48.6179 188.826 48.6909L185.736 50.5033L187.05 50.2479C185.42 52.182 184.471 55.1136 184.471 58.8723H184.459ZM191.38 62.9838C191.38 57.4612 195.127 55.1987 199.761 57.9478C204.384 60.6969 208.143 67.3994 208.143 72.9219C208.143 78.4445 204.396 80.707 199.761 77.9579C195.139 75.2088 191.38 68.5063 191.38 62.9838Z" fill="#0C0820"/>
<path d="M180.992 60.928C180.992 71.0242 187.84 83.2614 196.295 88.273C204.749 93.2847 211.597 89.1732 211.597 79.0769C211.597 68.9806 204.749 56.7435 196.295 51.7319C187.84 46.7202 180.992 50.8317 180.992 60.928Z" fill="#0C164E"/>
<path d="M183.522 66.037C183.522 70.4404 186.515 75.7805 190.2 77.97C193.886 80.1596 196.878 78.3593 196.878 73.9559C196.878 69.5524 193.886 64.2124 190.2 62.0228C186.515 59.8333 183.522 61.6335 183.522 66.037Z" fill="#EDF2FF"/>
<path d="M175.944 142.233C175.944 134.57 169.74 128.366 162.077 128.366C154.413 128.366 148.21 134.57 148.21 142.233V174.7H148.27C148.234 174.955 148.21 175.223 148.21 175.478C148.21 180.295 154.413 184.188 162.077 184.188C169.74 184.188 175.944 180.283 175.944 175.478C175.944 175.21 175.92 174.955 175.883 174.7H175.944V142.233Z" fill="url(#paint0_linear_385_11000)"/>
<path d="M158.841 133.463C158.841 132.003 157.661 130.823 156.201 130.823C154.742 130.823 153.562 132.003 153.562 133.463V154.872C153.562 154.872 153.562 154.969 153.562 155.018C153.562 155.93 154.742 156.672 156.201 156.672C157.661 156.672 158.841 155.93 158.841 155.018C158.841 154.969 158.841 154.92 158.841 154.872V133.463Z" fill="url(#paint1_linear_385_11000)"/>
<path d="M169.339 133.463C169.339 132.003 168.159 130.823 166.699 130.823C165.239 130.823 164.06 132.003 164.06 133.463V154.872C164.06 154.872 164.06 154.969 164.06 155.018C164.06 155.93 165.239 156.672 166.699 156.672C168.159 156.672 169.339 155.93 169.339 155.018C169.339 154.969 169.339 154.92 169.339 154.872V133.463Z" fill="url(#paint2_linear_385_11000)"/>
<path d="M209.164 80.1351C209.164 96.6906 187.804 137.246 161.456 137.246C135.109 137.246 113.736 96.6906 113.736 80.1351C113.736 63.5797 135.097 50.1626 161.444 50.1626C187.792 50.1626 209.152 63.5797 209.152 80.1351H209.164Z" fill="#EDF2FF"/>
<path d="M204.53 73.8707C204.53 88.8205 185.237 100.936 161.444 100.936C137.651 100.936 118.359 88.8205 118.359 73.8707C118.359 58.9209 137.651 60.332 161.444 60.332C185.237 60.332 204.53 58.9209 204.53 73.8707Z" fill="#0CFFFF"/>
<path d="M204.53 65.1855H118.371V75.5859H204.53V65.1855Z" fill="#0CFFFF"/>
<path d="M161.456 92.6157C185.252 92.6157 204.542 80.3348 204.542 65.1855C204.542 50.0362 185.252 37.7552 161.456 37.7552C137.661 37.7552 118.371 50.0362 118.371 65.1855C118.371 80.3348 137.661 92.6157 161.456 92.6157Z" fill="#EFFFFF"/>
<path d="M161.456 91.8736C185.252 91.8736 204.542 79.7561 204.542 64.8083C204.542 49.8606 185.252 37.743 161.456 37.743C137.661 37.743 118.371 49.8606 118.371 64.8083C118.371 79.7561 137.661 91.8736 161.456 91.8736Z" fill="#0CBEF2"/>
<path d="M161.456 85.9132C181.658 85.9132 198.034 75.6255 198.034 62.935C198.034 50.2446 181.658 39.9569 161.456 39.9569C141.255 39.9569 124.879 50.2446 124.879 62.935C124.879 75.6255 141.255 85.9132 161.456 85.9132Z" fill="#0C55F2"/>
<path d="M161.456 79.0283C175.605 79.0283 187.074 71.8232 187.074 62.9351C187.074 54.0471 175.605 46.8419 161.456 46.8419C147.308 46.8419 135.839 54.0471 135.839 62.9351C135.839 71.8232 147.308 79.0283 161.456 79.0283Z" fill="#0CFFFF"/>
<path d="M161.456 72.3379C169.726 72.3379 176.431 68.1281 176.431 62.935C176.431 57.7419 169.726 53.5321 161.456 53.5321C153.186 53.5321 146.482 57.7419 146.482 62.935C146.482 68.1281 153.186 72.3379 161.456 72.3379Z" fill="#B7FFFF"/>
<path d="M198.618 16.0421L174.849 2.19926C170.823 -0.0267805 165.921 0.435458 161.055 3.48867L130.754 22.5378C121.254 28.5104 113.822 43.1439 113.822 55.8676C113.822 62.4484 115.926 67.6669 119.648 70.5011L119.855 70.6349C120.232 70.9147 120.621 71.1945 121.035 71.4256C121.339 71.5959 121.655 71.7297 121.959 71.8635L145.29 85.5117L143.016 72.8245L141.532 65.9396L165.142 51.0993C172.964 46.1849 179.374 35.3953 181.406 24.63L198.655 16.0543L198.618 16.0421Z" fill="#DBD8FF"/>
<path d="M198.606 15.8841C194.543 13.4877 189.604 13.8162 184.69 16.8451L153.939 35.7725C144.244 41.7451 136.86 56.6463 137.165 69.5889C137.335 77.0334 140.169 82.7384 144.901 85.2807C146.64 86.2052 148.514 86.6674 150.46 86.6674C153.185 86.6674 156.056 85.7673 158.89 84.0035L189.069 65.1733C198.46 59.3102 205.807 44.7619 205.807 31.9408C205.807 24.4598 203.192 18.6089 198.606 15.8963V15.8841Z" fill="white"/>
<path d="M198.618 16.0422C194.592 13.8161 189.69 14.2784 184.824 17.3316L154.523 36.3807C145.023 42.3533 137.59 56.9868 137.59 69.7105C137.59 77.0698 140.218 82.7505 144.792 85.2807C146.47 86.2051 148.307 86.6674 150.229 86.6674C152.905 86.6674 155.752 85.7672 158.586 83.9913L188.887 64.9422C198.387 58.9695 205.819 44.336 205.819 31.6123C205.819 24.253 203.192 18.5723 198.618 16.0422Z" fill="#EDF2FF"/>
<path d="M186.843 61.7064L156.542 80.7555C148.21 85.9982 141.386 81.0231 141.386 69.7104C141.386 58.3977 148.21 44.859 156.542 39.6162L186.843 20.5671C195.176 15.3244 202 20.2995 202 31.6122C202 42.9249 195.176 56.4636 186.843 61.7064Z" fill="#0C164E"/>
<path d="M150.813 65.3313L195.261 35.4683" stroke="#0CFFFF" stroke-width="4.86567" stroke-linecap="round" stroke-linejoin="round"/>
<path d="M150.813 65.3313L195.261 35.4683" stroke="#C3FFFF" stroke-width="1.21642" stroke-linecap="round" stroke-linejoin="round"/>
<path d="M199.348 25.6396L153.829 80.8407C154.936 80.5123 156.092 80.0135 157.272 79.2715L164.266 74.8802L200.43 31.0041C200.309 28.9605 199.932 27.1602 199.336 25.6518L199.348 25.6396Z" fill="url(#paint3_linear_385_11000)"/>
<path d="M199.518 40.2002C199.713 39.3852 199.883 38.5823 200.017 37.7673L175.968 67.5209L179.265 65.453L199.518 40.2002Z" fill="url(#paint4_linear_385_11000)"/>
<path d="M186.892 22.0511L161.566 37.9741C156.372 44.6522 150.618 52.048 145.254 58.9451C144.256 62.2294 143.672 65.5989 143.672 68.7738C143.672 75.9628 146.567 80.427 150.849 81.1326L198.606 22.927C195.99 19.594 191.709 19.0223 186.892 22.0511Z" fill="url(#paint5_linear_385_11000)"/>
<path d="M115.403 97.3597C115.403 107.456 122.251 119.693 130.705 124.705C133.418 126.323 135.972 126.979 138.186 126.809L138.053 127.819L141.069 126.019C141.349 125.873 141.629 125.714 141.884 125.532L141.933 125.508C144.463 123.744 146.008 120.301 146.008 115.509C146.008 105.412 139.159 93.1752 130.705 88.1636C126.655 85.7551 122.969 85.4631 120.232 86.9107L120.123 86.9715C120.001 87.0323 119.891 87.1053 119.77 87.1783L116.68 88.9908L117.994 88.7353C116.364 90.6694 115.415 93.601 115.415 97.3597H115.403ZM122.336 101.471C122.336 95.9487 126.083 93.6861 130.718 96.4352C135.34 99.1843 139.099 105.887 139.099 111.409C139.099 116.932 135.352 119.194 130.718 116.445C126.095 113.696 122.336 106.994 122.336 101.471Z" fill="#0C0820"/>
<path d="M111.936 99.4154C111.936 109.512 118.784 121.749 127.239 126.76C135.693 131.772 142.541 127.661 142.541 117.564C142.541 107.468 135.693 95.2309 127.239 90.2193C118.784 85.2076 111.936 89.3191 111.936 99.4154Z" fill="#0C164E"/>
<path d="M113.566 101.642C113.566 109.244 118.724 118.477 125.098 122.26C131.472 126.043 136.629 122.929 136.629 115.326C136.629 107.724 131.472 98.4911 125.098 94.708C118.724 90.925 113.566 94.039 113.566 101.642Z" fill="#0CFFFF"/>
<path d="M114.466 104.524C114.466 108.928 117.459 114.268 121.144 116.457C124.83 118.647 127.822 116.847 127.822 112.443C127.822 108.04 124.83 102.7 121.144 100.51C117.459 98.3207 114.466 100.121 114.466 104.524Z" fill="#EDF2FF"/>
<path d="M171.382 4.79023C171.382 5.71471 170.19 6.46889 168.706 6.46889C167.222 6.46889 166.03 5.71471 166.03 4.79023C166.03 3.86575 167.222 3.11157 168.706 3.11157C170.19 3.11157 171.382 3.86575 171.382 4.79023Z" fill="#FF8D00"/>
<path d="M171.382 3.30627H166.03V4.7903H171.382V3.30627Z" fill="#FF8D00"/>
<path d="M171.382 3.30613C171.382 4.24278 170.19 5.00912 168.706 5.00912C167.222 5.00912 166.03 4.24278 166.03 3.30613C166.03 2.36949 167.222 1.60315 168.706 1.60315C170.19 1.60315 171.382 2.36949 171.382 3.30613Z" fill="#FFFF00"/>
<path d="M171.382 3.28181C171.382 4.20628 170.19 4.96046 168.706 4.96046C167.222 4.96046 166.03 4.20628 166.03 3.28181C166.03 2.35733 167.222 1.60315 168.706 1.60315C170.19 1.60315 171.382 2.35733 171.382 3.28181Z" fill="#FFCF00"/>
<path d="M168.706 4.23062C169.546 4.23062 170.227 3.80582 170.227 3.28181C170.227 2.7578 169.546 2.33301 168.706 2.33301C167.866 2.33301 167.186 2.7578 167.186 3.28181C167.186 3.80582 167.866 4.23062 168.706 4.23062Z" fill="#FFFF00"/>
<path d="M177.148 7.63664C176.783 7.52717 176.394 7.44202 175.956 7.44202C175.518 7.44202 175.129 7.52717 174.764 7.63664H173.28V9.12067C173.28 10.0452 174.472 10.7993 175.956 10.7993C177.44 10.7993 178.632 10.0452 178.632 9.12067V7.63664H177.148Z" fill="#0072FF"/>
<path d="M178.632 7.6367C178.632 8.57334 177.44 9.33969 175.956 9.33969C174.472 9.33969 173.28 8.57334 173.28 7.6367C173.28 6.70006 174.472 5.93372 175.956 5.93372C177.44 5.93372 178.632 6.70006 178.632 7.6367Z" fill="#0CFFFF"/>
<path d="M178.632 7.61237C178.632 8.53685 177.44 9.29103 175.956 9.29103C174.472 9.29103 173.28 8.53685 173.28 7.61237C173.28 6.6879 174.472 5.93372 175.956 5.93372C177.44 5.93372 178.632 6.6879 178.632 7.61237Z" fill="#0CC7FF"/>
<path d="M177.452 7.6123C177.452 8.1232 176.783 8.54894 175.968 8.54894C175.153 8.54894 174.484 8.13536 174.484 7.6123C174.484 7.08924 175.153 6.67566 175.968 6.67566C176.783 6.67566 177.452 7.08924 177.452 7.6123Z" fill="#0CFFFF"/>
<path d="M184.41 11.9671C184.045 11.8576 183.656 11.7725 183.218 11.7725C182.78 11.7725 182.391 11.8576 182.026 11.9671H180.542V13.4511C180.542 14.3756 181.734 15.1298 183.218 15.1298C184.702 15.1298 185.894 14.3756 185.894 13.4511V11.9671H184.41Z" fill="#8F0036"/>
<path d="M185.894 11.967C185.894 12.9037 184.702 13.67 183.218 13.67C181.734 13.67 180.542 12.9037 180.542 11.967C180.542 11.0304 181.734 10.264 183.218 10.264C184.702 10.264 185.894 11.0304 185.894 11.967Z" fill="#FF92BB"/>
<path d="M185.894 11.9427C185.894 12.8672 184.702 13.6214 183.218 13.6214C181.734 13.6214 180.542 12.8672 180.542 11.9427C180.542 11.0182 181.734 10.264 183.218 10.264C184.702 10.264 185.894 11.0182 185.894 11.9427Z" fill="#FF3866"/>
<path d="M183.218 12.855C184.024 12.855 184.678 12.4466 184.678 11.9427C184.678 11.4389 184.024 11.0304 183.218 11.0304C182.412 11.0304 181.758 11.4389 181.758 11.9427C181.758 12.4466 182.412 12.855 183.218 12.855Z" fill="#FF7BA0"/>
<path d="M172.526 11.9669C172.526 12.4778 171.857 12.9036 171.042 12.9036C170.227 12.9036 169.558 12.49 169.558 11.9669C169.558 11.4439 170.227 11.0303 171.042 11.0303C171.857 11.0303 172.526 11.4439 172.526 11.9669Z" fill="#FF8D00"/>
<path d="M172.526 11.1399H169.558V11.9671H172.526V11.1399Z" fill="#FF8D00"/>
<path d="M171.042 12.0887C171.861 12.0887 172.526 11.6639 172.526 11.1398C172.526 10.6158 171.861 10.191 171.042 10.191C170.222 10.191 169.558 10.6158 169.558 11.1398C169.558 11.6639 170.222 12.0887 171.042 12.0887Z" fill="#FFFF00"/>
<path d="M172.526 11.1277C172.526 11.6386 171.857 12.0643 171.042 12.0643C170.227 12.0643 169.558 11.6507 169.558 11.1277C169.558 10.6046 170.227 10.191 171.042 10.191C171.857 10.191 172.526 10.6046 172.526 11.1277Z" fill="#FFCF00"/>
<path d="M171.881 11.1276C171.881 11.4196 171.504 11.6629 171.042 11.6629C170.58 11.6629 170.203 11.4196 170.203 11.1276C170.203 10.8357 170.58 10.5924 171.042 10.5924C171.504 10.5924 171.881 10.8357 171.881 11.1276Z" fill="#FFFF00"/>
<path d="M175.737 13.5484C175.53 13.4876 175.324 13.439 175.08 13.439C174.837 13.439 174.618 13.4876 174.423 13.5484H173.596V14.3756C173.596 14.8865 174.265 15.3122 175.08 15.3122C175.895 15.3122 176.564 14.8987 176.564 14.3756V13.5484H175.737Z" fill="#0072FF"/>
<path d="M176.564 13.5483C176.564 14.0714 175.895 14.4971 175.08 14.4971C174.265 14.4971 173.596 14.0714 173.596 13.5483C173.596 13.0252 174.265 12.5995 175.08 12.5995C175.895 12.5995 176.564 13.0252 176.564 13.5483Z" fill="#0CFFFF"/>
<path d="M176.564 13.524C176.564 14.0349 175.895 14.4607 175.08 14.4607C174.265 14.4607 173.596 14.0471 173.596 13.524C173.596 13.001 174.265 12.5874 175.08 12.5874C175.895 12.5874 176.564 13.001 176.564 13.524Z" fill="#0CC7FF"/>
<path d="M175.895 13.524C175.895 13.816 175.53 14.0471 175.068 14.0471C174.606 14.0471 174.241 13.816 174.241 13.524C174.241 13.2321 174.606 13.001 175.068 13.001C175.53 13.001 175.895 13.2321 175.895 13.524Z" fill="#0CFFFF"/>
<path d="M179.763 15.9447C179.557 15.8839 179.35 15.8352 179.107 15.8352C178.863 15.8352 178.644 15.8839 178.45 15.9447H177.623V16.7718C177.623 17.2827 178.292 17.7085 179.107 17.7085C179.922 17.7085 180.591 17.2949 180.591 16.7718V15.9447H179.763Z" fill="#8F0036"/>
<path d="M179.107 16.8935C179.926 16.8935 180.591 16.4687 180.591 15.9447C180.591 15.4206 179.926 14.9958 179.107 14.9958C178.287 14.9958 177.623 15.4206 177.623 15.9447C177.623 16.4687 178.287 16.8935 179.107 16.8935Z" fill="#FF92BB"/>
<path d="M180.591 15.9325C180.591 16.4434 179.922 16.8691 179.107 16.8691C178.292 16.8691 177.623 16.4556 177.623 15.9325C177.623 15.4094 178.292 14.9958 179.107 14.9958C179.922 14.9958 180.591 15.4094 180.591 15.9325Z" fill="#FF3866"/>
<path d="M179.909 15.9325C179.909 16.2123 179.544 16.4434 179.107 16.4434C178.669 16.4434 178.304 16.2123 178.304 15.9325C178.304 15.6528 178.669 15.4216 179.107 15.4216C179.544 15.4216 179.909 15.6528 179.909 15.9325Z" fill="#FF7BA0"/>
<path d="M129.039 181.073C128.942 181.073 128.856 181.073 128.759 181.073C126.411 180.915 124.635 178.896 124.794 176.548V176.415C124.818 176.208 124.83 175.989 124.842 175.77C124.964 168.836 121.205 162.073 117.75 160.346C116.656 159.798 116.206 160.054 116.048 160.127C115.196 160.613 114.247 162.401 114.04 165.296C113.87 167.644 111.851 169.408 109.491 169.238C107.143 169.067 105.38 167.036 105.55 164.688C105.939 159.129 108.238 154.774 111.839 152.719C114.77 151.04 118.237 151.04 121.57 152.719C128.333 156.125 133.515 166.294 133.357 175.891C133.357 176.256 133.333 176.609 133.308 176.962V177.084C133.15 179.334 131.277 181.061 129.051 181.061L129.039 181.073Z" fill="#0CFFFF"/>
<path d="M119.429 155.176C116.826 155.176 114.685 153.047 114.685 150.432V111.178C114.685 108.575 116.814 106.434 119.429 106.434C122.032 106.434 124.173 108.563 124.173 111.178V150.432C124.173 153.035 122.045 155.176 119.429 155.176Z" fill="#0C2471"/>
</g>
<g clip-path="url(#clip1_385_11000)">
<path fill-rule="evenodd" clip-rule="evenodd" d="M89.1544 25.1551C90.5124 23.2662 90.2952 22.8052 91 12C91.7041 22.8045 91.4869 23.2662 92.8456 25.1551C94.7345 26.5131 95.1955 26.2959 106 27.0007C95.1962 27.7041 94.7345 27.4876 92.8456 28.8456C91.4876 30.7352 91.7048 31.1962 91 42.0007C90.2959 31.1962 90.5131 30.7352 89.1544 28.8456C87.2655 27.4876 86.8045 27.7041 76 27.0007C86.8038 26.2966 87.2655 26.5138 89.1544 25.1551Z" fill="white"/>
</g>
<g clip-path="url(#clip2_385_11000)">
<path fill-rule="evenodd" clip-rule="evenodd" d="M234.154 144.155C235.512 142.266 235.295 141.805 236 131C236.704 141.804 236.487 142.266 237.846 144.155C239.734 145.513 240.196 145.296 251 146.001C240.196 146.704 239.734 146.488 237.846 147.846C236.488 149.735 236.705 150.196 236 161.001C235.296 150.196 235.513 149.735 234.154 147.846C232.266 146.488 231.804 146.704 221 146.001C231.804 145.297 232.266 145.514 234.154 144.155Z" fill="white"/>
</g>
<defs>
<linearGradient id="paint0_linear_385_11000" x1="162.113" y1="181.767" x2="162.004" y2="115.229" gradientUnits="userSpaceOnUse">
<stop stop-color="#0C36FF" stop-opacity="0"/>
<stop offset="0.17" stop-color="#0C55FF" stop-opacity="0.15"/>
<stop offset="0.57" stop-color="#0CA3FF" stop-opacity="0.55"/>
<stop offset="1" stop-color="#0CFFFF"/>
</linearGradient>
<linearGradient id="paint1_linear_385_11000" x1="156.226" y1="155.553" x2="156.177" y2="124.741" gradientUnits="userSpaceOnUse">
<stop stop-color="#0C36FF" stop-opacity="0"/>
<stop offset="0.17" stop-color="#0C55FF" stop-opacity="0.15"/>
<stop offset="0.57" stop-color="#0CA3FF" stop-opacity="0.55"/>
<stop offset="1" stop-color="#0CFFFF"/>
</linearGradient>
<linearGradient id="paint2_linear_385_11000" x1="166.724" y1="155.553" x2="166.663" y2="124.741" gradientUnits="userSpaceOnUse">
<stop stop-color="#0C36FF" stop-opacity="0"/>
<stop offset="0.17" stop-color="#0C55FF" stop-opacity="0.15"/>
<stop offset="0.57" stop-color="#0CA3FF" stop-opacity="0.55"/>
<stop offset="1" stop-color="#0CFFFF"/>
</linearGradient>
<linearGradient id="paint3_linear_385_11000" x1="171.869" y1="74.2477" x2="201.805" y2="-29.7317" gradientUnits="userSpaceOnUse">
<stop stop-color="#0C36FF" stop-opacity="0"/>
<stop offset="0.12" stop-color="#0C60FF" stop-opacity="0.21"/>
<stop offset="0.24" stop-color="#0C8AFF" stop-opacity="0.42"/>
<stop offset="0.37" stop-color="#0CAEFF" stop-opacity="0.6"/>
<stop offset="0.5" stop-color="#0CCBFF" stop-opacity="0.74"/>
<stop offset="0.63" stop-color="#0CE1FF" stop-opacity="0.86"/>
<stop offset="0.75" stop-color="#0CF2FF" stop-opacity="0.94"/>
<stop offset="0.88" stop-color="#0CFBFF" stop-opacity="0.98"/>
<stop offset="1" stop-color="#0CFFFF"/>
</linearGradient>
<linearGradient id="paint4_linear_385_11000" x1="184.885" y1="63.7622" x2="200.966" y2="7.9286" gradientUnits="userSpaceOnUse">
<stop stop-color="#0C36FF" stop-opacity="0"/>
<stop offset="0.12" stop-color="#0C60FF" stop-opacity="0.21"/>
<stop offset="0.24" stop-color="#0C8AFF" stop-opacity="0.42"/>
<stop offset="0.37" stop-color="#0CAEFF" stop-opacity="0.6"/>
<stop offset="0.5" stop-color="#0CCBFF" stop-opacity="0.74"/>
<stop offset="0.63" stop-color="#0CE1FF" stop-opacity="0.86"/>
<stop offset="0.75" stop-color="#0CF2FF" stop-opacity="0.94"/>
<stop offset="0.88" stop-color="#0CFBFF" stop-opacity="0.98"/>
<stop offset="1" stop-color="#0CFFFF"/>
</linearGradient>
<linearGradient id="paint5_linear_385_11000" x1="162.989" y1="71.9851" x2="195.212" y2="-39.9253" gradientUnits="userSpaceOnUse">
<stop stop-color="#0C36FF" stop-opacity="0"/>
<stop offset="0.12" stop-color="#0C60FF" stop-opacity="0.21"/>
<stop offset="0.24" stop-color="#0C8AFF" stop-opacity="0.42"/>
<stop offset="0.37" stop-color="#0CAEFF" stop-opacity="0.6"/>
<stop offset="0.5" stop-color="#0CCBFF" stop-opacity="0.74"/>
<stop offset="0.63" stop-color="#0CE1FF" stop-opacity="0.86"/>
<stop offset="0.75" stop-color="#0CF2FF" stop-opacity="0.94"/>
<stop offset="0.88" stop-color="#0CFBFF" stop-opacity="0.98"/>
<stop offset="1" stop-color="#0CFFFF"/>
</linearGradient>
<clipPath id="clip0_385_11000">
<rect width="115.949" height="183.375" fill="white" transform="translate(105.526 0.8125)"/>
</clipPath>
<clipPath id="clip1_385_11000">
<rect width="30" height="30.0007" fill="white" transform="translate(76 12)"/>
</clipPath>
<clipPath id="clip2_385_11000">
<rect width="30" height="30.0007" fill="white" transform="translate(221 131)"/>
</clipPath>
</defs>
</svg>
