<svg width="14" height="14" viewBox="0 0 14 14" fill="none" xmlns="http://www.w3.org/2000/svg">
<path fill-rule="evenodd" clip-rule="evenodd" d="M11.8073 0.378065L1.46659 2.96325C0.0922023 3.30685 -0.0793625 5.19066 1.21034 5.77689L4.39637 7.22509C5.04957 7.522 5.75665 7.62924 6.44378 7.55603C6.37057 8.24317 6.47782 8.95024 6.77473 9.60345L8.22292 12.7895C8.80916 14.0792 10.693 13.9076 11.0366 12.5332L13.6217 2.19249C13.8957 1.0967 12.9031 0.104118 11.8073 0.378065ZM4.9481 6.01126C5.57282 6.29523 6.27204 6.31695 6.89818 6.09483C7.13483 6.01089 7.36103 5.89211 7.56884 5.7395C7.59777 5.71825 7.62635 5.69634 7.65455 5.67378L9.18043 4.45308C9.42329 4.25879 9.74102 4.57653 9.54673 4.81939L8.32604 6.34526C8.30347 6.37346 8.28157 6.40204 8.26031 6.43098C8.1077 6.63878 7.98893 6.86499 7.90498 7.10163C7.68286 7.72777 7.70458 8.42699 7.98855 9.05171L9.43674 12.2377C9.50056 12.3781 9.70564 12.3595 9.74304 12.2098L12.3282 1.86911C12.358 1.74982 12.25 1.64177 12.1307 1.67159L1.78998 4.25677C1.64036 4.29417 1.62168 4.49925 1.76208 4.56307L4.9481 6.01126Z" fill="#000001"/>
</svg>
