<svg width="150" height="23" viewBox="0 0 150 23" fill="none" xmlns="http://www.w3.org/2000/svg">
<path d="M18.8823 5.43435C18.5252 5.43435 18.3042 5.63839 18.1936 6.05496L14.9206 17.6765C14.4615 19.3002 13.7389 20.4905 12.7357 21.2471C11.741 22.0037 10.4318 22.3863 8.80801 22.3863C7.85585 22.3863 7.0142 22.2673 6.30008 22.0292C5.58596 21.7912 4.97385 21.4596 4.48076 21.0516C3.97918 20.635 3.58811 20.1334 3.29906 19.5553C3.01001 18.9772 2.81448 18.3481 2.70396 17.685L0.0940045 1.88924C0.0344942 1.49817 0.000488281 1.15811 0.000488281 0.894566H5.95152C5.95152 0.996584 5.95152 1.1241 5.96852 1.26863C5.97702 1.41315 5.99403 1.55768 6.01103 1.7022L8.22141 16.1037C8.28092 16.5798 8.53597 16.8178 8.96954 16.8178C9.15658 16.8178 9.3096 16.7753 9.43712 16.6818C9.56465 16.5883 9.65816 16.4183 9.71767 16.1717L12.9312 4.85625C13.3648 3.34299 14.0449 2.22079 14.9546 1.50667C15.8727 0.792543 17.1735 0.435486 18.8823 0.435486C20.5911 0.435486 21.8408 0.792548 22.7164 1.49817C23.5921 2.20379 24.2212 3.27498 24.6208 4.71173L27.7663 16.1802C27.8258 16.4268 27.9193 16.5968 28.0469 16.6903C28.1744 16.7838 28.3274 16.8263 28.5144 16.8263C28.931 16.8263 29.1775 16.5883 29.2626 16.1122L31.66 1.71071C31.7025 1.54068 31.7195 1.39615 31.7195 1.26012V0.903063H37.611C37.611 1.07309 37.611 1.21762 37.594 1.35364C37.5855 1.48966 37.56 1.66819 37.5175 1.89773L34.712 17.7275C34.4655 19.1217 33.8449 20.2439 32.8587 21.1111C31.8725 21.9697 30.4358 22.4033 28.5399 22.4033C25.4029 22.4033 23.422 20.839 22.5889 17.6935L19.5624 6.07196C19.4604 5.65539 19.2308 5.45135 18.8738 5.45135L18.8823 5.43435Z" fill="white"/>
<path d="M63.2001 21.0175C63.2851 21.1875 63.3532 21.3405 63.4042 21.4851C63.4552 21.6296 63.5062 21.7826 63.5487 21.9526H57.1896C57.1471 21.8081 57.1046 21.6806 57.0621 21.5616C57.0196 21.4511 56.977 21.3405 56.9345 21.2385L55.8123 18.6796H43.3492L42.261 21.2045C42.2185 21.332 42.176 21.4511 42.1335 21.5786C42.091 21.7061 42.057 21.8251 42.04 21.9526H35.5278C35.5703 21.7826 35.6128 21.6296 35.6724 21.4851C35.7234 21.3405 35.7914 21.1875 35.8764 21.0175L43.4172 4.31209C44.0208 3.00286 44.8114 2.0252 45.7891 1.37909C46.7668 0.732974 48.008 0.409912 49.5298 0.409912C51.0515 0.409912 52.2332 0.732974 53.2194 1.37909C54.2056 2.0252 55.0047 3.00286 55.5998 4.31209L63.2001 21.0175ZM53.7635 14.0378L50.5244 6.49697C50.4224 6.26743 50.2864 6.10591 50.1164 5.99539C49.9463 5.89337 49.7593 5.84236 49.5553 5.84236C49.3682 5.84236 49.1897 5.88486 49.0282 5.97838C48.8581 6.0719 48.7306 6.24193 48.6201 6.48847L45.4065 14.0293H53.755L53.7635 14.0378Z" fill="white"/>
<path d="M58.3454 1.60867C58.1754 1.43864 58.0564 1.31112 57.9884 1.2006C57.9119 1.09858 57.8609 0.996567 57.8184 0.886047H64.7641C64.8066 0.971062 64.8661 1.07308 64.9341 1.2006C65.0106 1.32812 65.1126 1.46415 65.2571 1.60867L70.5536 7.37267C70.6981 7.51719 70.8426 7.5937 70.9871 7.5937C71.1317 7.5937 71.2762 7.51719 71.4207 7.37267L76.6916 1.60867C76.9637 1.33662 77.1422 1.09859 77.2187 0.894551H84.0454C83.9859 0.996568 83.9179 1.09858 83.8414 1.2091C83.7649 1.31112 83.6458 1.44715 83.4843 1.61717L73.6056 12.5246V21.9697H67.9011V12.1505L58.3369 1.61717L58.3454 1.60867Z" fill="white"/>
<path d="M78.9707 21.9527V16.5628H90.7197C91.6549 16.5628 92.3265 16.3417 92.7261 15.9082C93.1342 15.4746 93.3297 14.82 93.3297 13.9443V0.886047H99.0342V13.6978C99.0342 16.2992 98.3626 18.3226 97.0108 19.7763C95.6591 21.2301 93.5592 21.9612 90.7197 21.9612H78.9707V21.9527Z" fill="white"/>
<path d="M124.13 0.886006V6.46298H108.114C107.782 6.46298 107.612 6.6415 107.612 6.99006V9.38747H124.037V13.4427H107.612V16.0016C107.612 16.3757 107.782 16.5627 108.114 16.5627H124.13V21.9527H104.934C102.962 21.9527 101.976 20.975 101.976 19.0196V3.717C101.976 1.82967 102.97 0.877502 104.968 0.877502H124.13V0.886006Z" fill="white"/>
<path d="M150 0.886047V6.46302H140.776V21.9527H135.105V6.46302H125.847V0.886047H150Z" fill="white"/>
</svg>
