<svg width="80" height="69" viewBox="0 0 80 69" fill="none" xmlns="http://www.w3.org/2000/svg">
<path d="M30.128 38.5311C32.3741 38.5311 34.1949 36.7103 34.1949 34.4642C34.1949 32.218 32.3741 30.3972 30.128 30.3972C27.8819 30.3972 26.061 32.218 26.061 34.4642C26.061 36.7103 27.8819 38.5311 30.128 38.5311Z" fill="white"/>
<path d="M49.8716 38.5311C52.1177 38.5311 53.9386 36.7103 53.9386 34.4642C53.9386 32.218 52.1177 30.3972 49.8716 30.3972C47.6255 30.3972 45.8047 32.218 45.8047 34.4642C45.8047 36.7103 47.6255 38.5311 49.8716 38.5311Z" fill="white"/>
<path d="M29.5155 0.525635C13.2122 0.525635 0 13.7378 0 30.0412V51.3374H15.6267V41.8716C13.5469 41.8289 11.8803 40.1409 11.8803 38.054V34.0796C11.8803 31.9714 13.5826 30.2691 15.6837 30.2549C16.2108 23.1751 22.1153 17.5911 29.3304 17.5911H64.3658V0.525635H29.5155Z" fill="white"/>
<path d="M64.3658 17.5911V30.262C66.4527 30.2904 68.1407 31.9856 68.1407 34.0867V38.0611C68.1407 40.1764 66.4242 41.8858 64.3159 41.8858H63.6891C61.9014 47.3701 56.7518 51.3445 50.6693 51.3445H15.6338V68.4099H50.4841C66.7874 68.4099 79.9996 55.1977 79.9996 38.8944V17.5982H64.3729L64.3658 17.5911Z" fill="white"/>
</svg>
