<svg width="16" height="17" viewBox="0 0 16 17" fill="none" xmlns="http://www.w3.org/2000/svg">
<path fill-rule="evenodd" clip-rule="evenodd" d="M4.73351 3.83332H2.00016C1.63197 3.83332 1.3335 4.1318 1.3335 4.49999C1.3335 4.86818 1.63197 5.16666 2.00016 5.16666H2.7072L3.25666 13.9581C3.32254 15.0121 4.19664 15.8333 5.25276 15.8333H10.7476C11.8037 15.8333 12.6778 15.0121 12.7437 13.9581L13.2931 5.16666H14.0002C14.3684 5.16666 14.6668 4.86818 14.6668 4.49999C14.6668 4.1318 14.3684 3.83332 14.0002 3.83332H12.6717C12.668 3.83329 12.6643 3.83329 12.6607 3.83332H11.2668C10.958 2.31183 9.6128 1.16666 8.00016 1.16666C6.38752 1.16666 5.04235 2.31183 4.73351 3.83332ZM6.11397 3.83332H9.88636C9.6118 3.05653 8.87098 2.49999 8.00016 2.49999C7.12935 2.49999 6.38852 3.05653 6.11397 3.83332ZM11.9572 5.16666H4.04313L4.5874 13.8749C4.60936 14.2263 4.90072 14.5 5.25276 14.5H10.7476C11.0996 14.5 11.391 14.2263 11.4129 13.8749L11.9572 5.16666ZM9.51952 7.17315C9.88681 7.19883 10.1637 7.51741 10.1381 7.8847L9.85903 11.875C9.83334 12.2422 9.51477 12.5192 9.14748 12.4935C8.78019 12.4678 8.50326 12.1492 8.52894 11.7819L8.80797 7.79169C8.83365 7.4244 9.15222 7.14747 9.51952 7.17315ZM6.48083 7.17317C6.84812 7.14749 7.16669 7.42442 7.19238 7.79171L7.4714 11.782C7.49709 12.1493 7.22016 12.4678 6.85286 12.4935C6.48557 12.5192 6.167 12.2423 6.14132 11.875L5.86229 7.88472C5.83661 7.51743 6.11354 7.19885 6.48083 7.17317Z" fill="#000001"/>
</svg>
