<svg width="26" height="27" viewBox="0 0 26 27" fill="none" xmlns="http://www.w3.org/2000/svg">
<path d="M8.59586 11.0236C7.92969 11.0236 7.38793 11.5677 7.38793 12.2368C7.38793 12.9059 7.92969 13.45 8.59586 13.45C9.26202 13.45 9.80378 12.9059 9.80378 12.2368C9.80378 11.5677 9.26202 11.0236 8.59586 11.0236ZM8.59586 12.252V12.2158C8.59586 12.2158 8.61329 12.2251 8.61329 12.2333L8.59586 12.2508V12.252ZM12.8334 11.0236C12.1672 11.0236 11.6254 11.5677 11.6254 12.2368C11.6254 12.9059 12.1672 13.45 12.8334 13.45C13.4995 13.45 14.0413 12.9059 14.0413 12.2368C14.0413 11.5677 13.4995 11.0236 12.8334 11.0236ZM12.8334 12.252V12.2158C12.8334 12.2158 12.8508 12.2251 12.8508 12.2333L12.8334 12.2508V12.252ZM17.0709 11.0236C16.4047 11.0236 15.863 11.5677 15.863 12.2368C15.863 12.9059 16.4047 13.45 17.0709 13.45C17.737 13.45 18.2788 12.9059 18.2788 12.2368C18.2788 11.5677 17.737 11.0236 17.0709 11.0236ZM17.0709 12.252V12.2158C17.0709 12.2158 17.0883 12.2251 17.0883 12.2333L17.0709 12.2508V12.252ZM20.5027 1H5.1637C2.50024 1 0.333328 3.17656 0.333328 5.85162V18.6192C0.333328 21.2943 2.50036 23.4708 5.1637 23.4708H17.637L23.8301 25.958C23.901 25.9883 23.9755 26 24.0499 26C24.1929 26 24.3359 25.9463 24.4486 25.847C24.6183 25.6941 24.6835 25.4617 24.6242 25.2398L23.7731 22.1818C24.7706 21.264 25.3322 19.9842 25.3322 18.6156L25.3333 5.85162C25.3333 3.17644 23.1661 1 20.5027 1ZM24.1426 18.6192C24.1426 19.7518 23.6276 20.8039 22.7324 21.5034C22.5418 21.6528 22.458 21.9039 22.5243 22.1374L23.1556 24.4004L17.9776 22.3196C17.9067 22.2927 17.8323 22.2775 17.7579 22.2775H5.16379C3.15486 22.2775 1.5239 20.6369 1.5239 18.6216V5.8517C1.5239 3.83393 3.15733 2.1958 5.16379 2.1958H20.5028C22.5118 2.1958 24.1427 3.83641 24.1427 5.8517L24.1426 18.6192Z" fill="black" stroke="black" stroke-width="0.5"/>
</svg>
