<svg width="41" height="40" viewBox="0 0 41 40" fill="none" xmlns="http://www.w3.org/2000/svg">
<path fill-rule="evenodd" clip-rule="evenodd" d="M9 20C9 13.6487 14.1487 8.5 20.5 8.5C26.8513 8.5 32 13.6487 32 20C32 26.3513 26.8513 31.5 20.5 31.5C18.7728 31.5 17.1323 31.1187 15.6601 30.4347L10.9099 31.3236C9.88037 31.5162 8.98391 30.6039 9.19447 29.5779L10.1361 24.9896C9.40778 23.4794 9 21.7861 9 20Z" fill="#1152F4"/>
<path fill-rule="evenodd" clip-rule="evenodd" d="M14.8974 17.641C14.8974 17.1524 15.2935 16.7563 15.782 16.7563H22.859C23.3475 16.7563 23.7436 17.1524 23.7436 17.641C23.7436 18.1295 23.3475 18.5256 22.859 18.5256H15.782C15.2935 18.5256 14.8974 18.1295 14.8974 17.641Z" fill="white"/>
<path fill-rule="evenodd" clip-rule="evenodd" d="M14.8974 22.3587C14.8974 21.8702 15.2935 21.4741 15.782 21.4741H25.2179C25.7065 21.4741 26.1026 21.8702 26.1026 22.3587C26.1026 22.8473 25.7065 23.2434 25.2179 23.2434H15.782C15.2935 23.2434 14.8974 22.8473 14.8974 22.3587Z" fill="white"/>
</svg>
