<svg width="41" height="40" viewBox="0 0 41 40" fill="none" xmlns="http://www.w3.org/2000/svg">
<path fill-rule="evenodd" clip-rule="evenodd" d="M20.5 10.2692C15.1258 10.2692 10.7692 14.6258 10.7692 20C10.7692 21.5419 11.1273 22.9978 11.7639 24.2912C11.9061 24.5802 11.9571 24.9168 11.8888 25.25L11.0158 29.5037L15.4253 28.6788C15.7429 28.6193 16.0619 28.6677 16.3385 28.7987C17.5991 29.3962 19.0092 29.7308 20.5 29.7308C25.8741 29.7308 30.2308 25.3741 30.2308 20C30.2308 14.6258 25.8741 10.2692 20.5 10.2692ZM9 20C9 13.6487 14.1487 8.5 20.5 8.5C26.8513 8.5 32 13.6487 32 20C32 26.3513 26.8513 31.5 20.5 31.5C18.7728 31.5 17.1323 31.1187 15.6601 30.4347L10.9099 31.3236C9.88037 31.5162 8.98391 30.6039 9.19447 29.5779L10.1361 24.9896C9.40778 23.4794 9 21.7861 9 20Z" fill="black"/>
<path fill-rule="evenodd" clip-rule="evenodd" d="M14.8974 17.641C14.8974 17.1524 15.2935 16.7563 15.782 16.7563H22.859C23.3475 16.7563 23.7436 17.1524 23.7436 17.641C23.7436 18.1295 23.3475 18.5256 22.859 18.5256H15.782C15.2935 18.5256 14.8974 18.1295 14.8974 17.641Z" fill="black"/>
<path fill-rule="evenodd" clip-rule="evenodd" d="M14.8974 22.359C14.8974 21.8704 15.2935 21.4744 15.782 21.4744H25.2179C25.7065 21.4744 26.1026 21.8704 26.1026 22.359C26.1026 22.8475 25.7065 23.2436 25.2179 23.2436H15.782C15.2935 23.2436 14.8974 22.8475 14.8974 22.359Z" fill="black"/>
</svg>
