<svg width="40" height="40" viewBox="0 0 40 40" fill="none" xmlns="http://www.w3.org/2000/svg">
<g clip-path="url(#clip0_3873_4083)">
<path d="M24.2233 32H15.7811C9.41959 32 4.24695 26.8274 4.24695 20.4658V19.5298C4.24695 13.1726 9.41959 8 15.7767 8H24.2189C30.576 8 35.7486 13.1726 35.7486 19.5298V20.4658C35.7486 26.8229 30.576 31.9956 24.2189 31.9956L24.2233 32ZM15.7767 9.58373C10.2935 9.58373 5.83068 14.0466 5.83068 19.5298V20.4658C5.83068 25.949 10.2935 30.4118 15.7767 30.4118H24.2189C29.702 30.4118 34.1649 25.949 34.1649 20.4658V19.5298C34.1649 14.0466 29.702 9.58373 24.2189 9.58373H15.7767Z" fill="black"/>
<path d="M28.8459 30.4561C28.6019 30.4561 28.3623 30.3629 28.1804 30.1899L24.1124 26.2993C23.895 26.3215 23.6865 26.3348 23.4825 26.3348H16.522C14.7875 26.3348 13.1682 25.6472 11.966 24.4006C10.7638 23.154 10.1339 21.5082 10.196 19.7736C10.3157 16.411 13.2126 13.6738 16.6551 13.6738H23.4825C26.9738 13.6738 29.813 16.513 29.813 20.0043V29.4934C29.813 29.8794 29.5823 30.2298 29.2274 30.3807C29.1032 30.4339 28.9745 30.4605 28.8503 30.4605L28.8459 30.4561ZM24.6448 24.6136L28.2248 28.0383V19.9999C28.2248 17.3825 26.0954 15.2531 23.478 15.2531H16.6507C14.0511 15.2531 11.864 17.3027 11.7753 19.8269C11.7309 21.1267 12.2011 22.36 13.1017 23.296C14.0067 24.2321 15.2178 24.7467 16.5176 24.7467H23.478C23.7176 24.7467 23.9705 24.7245 24.2544 24.6757L24.6448 24.6091V24.6136Z" fill="black"/>
<path d="M16.1757 21.5748C17.0455 21.5748 17.7506 20.8697 17.7506 19.9999C17.7506 19.1301 17.0455 18.425 16.1757 18.425C15.3059 18.425 14.6009 19.1301 14.6009 19.9999C14.6009 20.8697 15.3059 21.5748 16.1757 21.5748Z" fill="black"/>
<path d="M23.8239 21.5748C24.6937 21.5748 25.3987 20.8697 25.3987 19.9999C25.3987 19.1301 24.6937 18.425 23.8239 18.425C22.9541 18.425 22.249 19.1301 22.249 19.9999C22.249 20.8697 22.9541 21.5748 23.8239 21.5748Z" fill="black"/>
</g>
<defs>
<clipPath id="clip0_3873_4083">
<rect width="31.5061" height="24" fill="white" transform="translate(4.24695 8)"/>
</clipPath>
</defs>
</svg>
