<svg width="20" height="22" viewBox="0 0 20 22" fill="none" xmlns="http://www.w3.org/2000/svg">
<path fill-rule="evenodd" clip-rule="evenodd" d="M10.2797 2.71591C10.0971 2.66273 9.90308 2.66273 9.72046 2.71591C9.66791 2.73122 9.57554 2.76952 9.37905 2.91829C9.17239 3.07475 8.9194 3.29867 8.52519 3.64908L3.28556 8.30653C2.64321 8.87751 2.46111 9.04967 2.33452 9.2401C2.21274 9.4233 2.12201 9.62532 2.066 9.83805C2.00777 10.0592 2.00008 10.3097 2.00008 11.1691V16.1701C2.00008 17.0411 2.00088 17.6333 2.03887 18.0907C2.07586 18.5361 2.14287 18.7635 2.22525 18.9221C2.415 19.2874 2.71284 19.5852 3.07813 19.7749C3.23671 19.8573 3.46409 19.9243 3.90953 19.9613C4.36694 19.9993 4.95905 20.0001 5.83008 20.0001H6.00007V17.0001C6.00007 14.791 7.79094 13.0001 10.0001 13.0001C12.2092 13.0001 14.0001 14.791 14.0001 17.0001V20.0001H14.1701C15.0411 20.0001 15.6332 19.9993 16.0906 19.9613C16.5361 19.9243 16.7634 19.8573 16.922 19.7749C17.2873 19.5852 17.5851 19.2874 17.7749 18.9221C17.8573 18.7635 17.9243 18.5361 17.9613 18.0907C17.9993 17.6333 18.0001 17.0411 18.0001 16.1701V11.1691C18.0001 10.3097 17.9924 10.0592 17.9342 9.83805C17.8781 9.62533 17.7874 9.4233 17.6656 9.24011C17.539 9.04967 17.3569 8.87751 16.7146 8.30653L11.475 3.64908C11.0808 3.29867 10.8278 3.07475 10.6211 2.91829C10.4246 2.76952 10.3322 2.73122 10.2797 2.71591ZM9.16124 0.795687C9.70908 0.636138 10.2911 0.636138 10.8389 0.795687C11.219 0.906389 11.5342 1.10107 11.8284 1.32376C12.1054 1.53347 12.4173 1.81076 12.7765 2.13007L18.0433 6.81171C18.0717 6.83691 18.0997 6.86177 18.1273 6.88631C18.649 7.34953 19.0431 7.69947 19.3312 8.13289C19.5748 8.49928 19.7562 8.90334 19.8682 9.32879C20.0008 9.83208 20.0005 10.3591 20.0001 11.0568C20.0001 11.0937 20.0001 11.1312 20.0001 11.1691V16.2121C20.0001 17.0306 20.0001 17.7062 19.9544 18.2562C19.907 18.8275 19.8051 19.3524 19.5497 19.844C19.1702 20.5746 18.5745 21.1703 17.844 21.5498C17.3523 21.8052 16.8275 21.907 16.2561 21.9545C15.7061 22.0001 15.0306 22.0001 14.2121 22.0001H13.8051C13.7973 22.0001 13.7895 22.0001 13.7816 22.0001C13.6604 22.0002 13.5158 22.0002 13.3884 21.9896C13.2407 21.9774 13.0293 21.9459 12.8086 21.8312C12.5346 21.6889 12.3113 21.4655 12.169 21.1916C12.0543 20.9709 12.0228 20.7595 12.0105 20.6118C12 20.4844 12 20.3398 12.0001 20.2187L12.0001 17.0001C12.0001 15.8955 11.1046 15.0001 10.0001 15.0001C8.89551 15.0001 8.00008 15.8955 8.00008 17.0001L8.00008 20.2186C8.00013 20.3398 8.00018 20.4844 7.98961 20.6118C7.97734 20.7595 7.94585 20.9709 7.8312 21.1916C7.68888 21.4655 7.4655 21.6889 7.19154 21.8312C6.97082 21.9459 6.75941 21.9774 6.61172 21.9896C6.48436 22.0002 6.33971 22.0002 6.21859 22.0001C6.21065 22.0001 6.20281 22.0001 6.19508 22.0001H5.7881C4.96956 22.0001 4.29401 22.0001 3.74401 21.9545C3.17266 21.907 2.64781 21.8052 2.15618 21.5498C1.42561 21.1703 0.829924 20.5746 0.450422 19.844C0.195038 19.3524 0.0931745 18.8275 0.0457264 18.2562C5.13531e-05 17.7062 6.22008e-05 17.0306 7.5433e-05 16.2121L7.59099e-05 11.1691C7.59099e-05 11.1312 5.64788e-05 11.0937 3.72861e-05 11.0568C-0.000325945 10.3591 -0.000600368 9.83208 0.131924 9.32879C0.24395 8.90333 0.425398 8.49928 0.668959 8.13289C0.957085 7.69947 1.35117 7.34954 1.87284 6.88632C1.90048 6.86178 1.92848 6.83692 1.95683 6.81171L7.22366 2.13008C7.58287 1.81077 7.8948 1.53348 8.17179 1.32376C8.46591 1.10107 8.78111 0.906389 9.16124 0.795687Z" fill="#000001"/>
</svg>
