<svg width="40" height="40" viewBox="0 0 40 40" fill="none" xmlns="http://www.w3.org/2000/svg">
<g clip-path="url(#clip0_3873_1341)">
<path d="M24.268 8.5H15.7316C9.73807 8.5 4.87939 13.4332 4.87939 19.5186V20.4814C4.87939 26.5668 9.73807 31.5 15.7316 31.5H24.268C30.2615 31.5 35.1201 26.5668 35.1201 20.4814V19.5186C35.1201 13.4332 30.2615 8.5 24.268 8.5Z" fill="#1152F4"/>
<path d="M29.1156 20.0014C29.1156 16.8609 26.6102 14.3171 23.5172 14.3171H16.4819C13.3889 14.3171 10.8835 16.8609 10.8835 20.0014C10.8835 23.1418 13.3889 25.6856 16.4819 25.6856H23.5172C23.8297 25.6856 24.1316 25.6531 24.4307 25.6043L29.1156 30.1549V20.0014Z" fill="white"/>
<path d="M16.1374 21.6176C17.0166 21.6176 17.7293 20.894 17.7293 20.0013C17.7293 19.1087 17.0166 18.385 16.1374 18.385C15.2582 18.385 14.5455 19.1087 14.5455 20.0013C14.5455 20.894 15.2582 21.6176 16.1374 21.6176Z" fill="#1152F4"/>
<path d="M23.8642 21.6176C24.7434 21.6176 25.4561 20.894 25.4561 20.0013C25.4561 19.1087 24.7434 18.385 23.8642 18.385C22.985 18.385 22.2723 19.1087 22.2723 20.0013C22.2723 20.894 22.985 21.6176 23.8642 21.6176Z" fill="#1152F4"/>
</g>
<path d="M9.16309 5.13574C9.43404 4.3925 10.4328 4.35086 10.7949 4.99707L10.8594 5.13477V5.13574L11.5273 6.96777L11.5654 7.05762C11.6657 7.25949 11.8393 7.41637 12.0518 7.49316H12.0537L13.8857 8.16113L13.8877 8.16211C14.6744 8.45171 14.679 9.56886 13.8857 9.85742L12.0537 10.5244L12.0547 10.5254C11.81 10.6151 11.6167 10.8074 11.5273 11.0518L10.8594 12.8848C10.5714 13.6755 9.4511 13.6754 9.16309 12.8848L8.49512 11.0527C8.41653 10.8385 8.2596 10.6636 8.05762 10.5635L7.96875 10.5254L6.13574 9.85742V9.85645C5.34351 9.56726 5.34827 8.45152 6.13477 8.16211L6.13574 8.16113L7.96875 7.49316C8.21335 7.40319 8.40604 7.21072 8.49512 6.96777L9.16309 5.13574Z" fill="#1152F4" stroke="white" stroke-width="0.913947"/>
<path d="M14.3652 2.10156C14.5812 1.50854 15.4171 1.51236 15.6338 2.10059L15.6348 2.10156L16.1338 3.47168C16.2009 3.65475 16.3447 3.79857 16.5264 3.86426L16.5273 3.86523L17.8984 4.36426L17.8994 4.36523C18.4879 4.58184 18.4917 5.41787 17.8984 5.63379L16.5273 6.13184C16.3446 6.19902 16.2005 6.34376 16.1338 6.52637L15.6348 7.89746C15.4193 8.48887 14.5806 8.48891 14.3652 7.89746L13.8662 6.52734L13.8379 6.45996C13.7629 6.30894 13.6325 6.19125 13.4727 6.13281L12.1016 5.63379V5.63281C11.5089 5.41664 11.5125 4.58188 12.1006 4.36523L12.1016 4.36426L13.4717 3.86523L13.5391 3.83691C13.6903 3.76182 13.8079 3.63082 13.8662 3.47168L14.3652 2.10156Z" fill="#1152F4" stroke="white" stroke-width="0.683707"/>
<defs>
<clipPath id="clip0_3873_1341">
<rect width="30.2407" height="23" fill="white" transform="translate(4.87964 8.5)"/>
</clipPath>
</defs>
</svg>
