<svg width="51" height="40" viewBox="0 0 51 40" fill="none" xmlns="http://www.w3.org/2000/svg">
<mask id="mask0_6903_84712" style="mask-type:luminance" maskUnits="userSpaceOnUse" x="15" y="8" width="21" height="20">
<path fill-rule="evenodd" clip-rule="evenodd" d="M15.5 8.5H35.5111V27.2681H15.5V8.5Z" fill="white"/>
</mask>
<g mask="url(#mask0_6903_84712)">
<path fill-rule="evenodd" clip-rule="evenodd" d="M25.504 10.1228C21.7229 10.1228 19.0875 13.0849 19.0875 15.7431C19.0875 17.9922 18.4633 19.0319 17.9115 19.9493C17.4691 20.6861 17.1196 21.2681 17.1196 22.5328C17.3003 24.5732 18.6472 25.6453 25.504 25.6453C32.323 25.6453 33.7121 24.5256 33.8917 22.4625C33.8885 21.2681 33.539 20.6861 33.0965 19.9493C32.5448 19.0319 31.9206 17.9922 31.9206 15.7431C31.9206 13.0849 29.2851 10.1228 25.504 10.1228ZM25.504 27.2681C20.4452 27.2681 15.8733 26.9111 15.5 22.6021C15.4968 20.8191 16.0409 19.9125 16.5213 19.1141C17.007 18.3049 17.4647 17.5422 17.4647 15.7431C17.4647 12.2454 20.6951 8.5 25.504 8.5C30.3128 8.5 33.5433 12.2454 33.5433 15.7431C33.5433 17.5422 34.0009 18.3049 34.4867 19.1141C34.967 19.9125 35.5112 20.8191 35.5112 22.5328C35.1336 26.9111 30.5628 27.2681 25.504 27.2681Z" fill="#000001"/>
</g>
<path fill-rule="evenodd" clip-rule="evenodd" d="M25.4506 31.7602H25.4485C24.2357 31.7591 23.0879 31.2247 22.217 30.2542C21.9173 29.9221 21.9443 29.4082 22.2776 29.1096C22.6108 28.8089 23.1236 28.8359 23.4232 29.1702C23.9836 29.7944 24.7031 30.1374 25.4496 30.1374H25.4506C26.2004 30.1374 26.9231 29.7944 27.4845 29.1691C27.7853 28.837 28.2981 28.8099 28.6302 29.1096C28.9634 29.4093 28.9905 29.9232 28.6908 30.2553C27.8167 31.2257 26.6667 31.7602 25.4506 31.7602Z" fill="#000001"/>
<path d="M27 12.5C27 9.73858 29.2386 7.5 32 7.5C34.7614 7.5 37 9.73858 37 12.5C37 15.2614 34.7614 17.5 32 17.5C29.2386 17.5 27 15.2614 27 12.5Z" fill="#F30014"/>
</svg>
