<svg width="51" height="40" viewBox="0 0 51 40" fill="none" xmlns="http://www.w3.org/2000/svg">
<path d="M23.5166 28.0361C24.0982 27.9132 27.6399 27.9132 28.2217 28.0361C28.7187 28.1509 29.2568 28.4192 29.2568 29.0049C29.2278 29.5623 28.9001 30.0563 28.4482 30.3701C27.8623 30.8268 27.1749 31.1164 26.4561 31.2207C26.0586 31.2722 25.6678 31.2733 25.2842 31.2207C24.5641 31.1165 23.8759 30.8271 23.291 30.3691C22.838 30.0565 22.5114 29.5623 22.4824 29.0049C22.4824 28.4192 23.0196 28.1509 23.5166 28.0361ZM25.9385 8C28.3576 8.00005 30.829 9.14823 32.2969 11.0527C33.2491 12.2789 33.6855 13.504 33.6855 15.4082V15.9043C33.6856 17.3648 34.0724 18.2257 34.9219 19.2178C35.5654 19.9485 35.7714 20.8867 35.7715 21.9043C35.7715 22.921 35.4368 23.8863 34.7676 24.6699C33.8916 25.6092 32.6564 26.2091 31.3955 26.3135C29.5683 26.4692 27.7394 26.6006 25.8867 26.6006C24.0329 26.6006 22.2052 26.5219 20.3779 26.3135C19.1158 26.2092 17.8799 25.6093 17.0049 24.6699C16.3357 23.8863 16 22.9209 16 21.9043C16 20.8867 16.2072 19.9485 16.8496 19.2178C17.7257 18.2257 18.0869 17.3648 18.0869 15.9043V15.4082C18.087 13.4523 18.5747 12.1729 19.5791 10.9209C21.0724 9.09512 23.4659 8.0001 25.834 8H25.9385Z" fill="#1152F4"/>
</svg>
