<svg width="50" height="40" viewBox="0 0 50 40" fill="none" xmlns="http://www.w3.org/2000/svg">
<path fill-rule="evenodd" clip-rule="evenodd" d="M25.1192 10.2857C21.8 10.2857 19.2339 12.7954 19.2339 15.7422V18.5357C19.2339 18.9034 19.0828 19.2283 19.0041 19.3881C18.9017 19.5958 18.7679 19.816 18.6252 20.0318C18.3377 20.4668 17.9529 20.9755 17.5429 21.4897C17.0169 22.1496 16.9049 22.9136 17.0724 23.5003C17.2317 24.0576 17.6451 24.4937 18.3505 24.6107C20.1295 24.9057 22.4039 25.1429 25.1192 25.1429C28.0346 25.1429 30.263 24.8695 31.8743 24.5489C32.4467 24.435 32.7775 24.0892 32.9206 23.6418C33.0735 23.1638 33.0198 22.5153 32.6351 21.8979C32.4501 21.6012 32.2514 21.298 32.0512 20.9941C32.0307 20.963 32.0102 20.9319 31.9897 20.9007C31.8124 20.6318 31.6339 20.3609 31.4749 20.1092C31.2995 19.8315 31.129 19.5478 30.9994 19.2887C30.8982 19.0862 30.7145 18.6998 30.7145 18.2857V15.6708C30.7145 12.678 28.3905 10.2857 25.1192 10.2857ZM16.9482 15.7422C16.9482 11.3996 20.6753 8 25.1192 8C29.611 8 33.0002 11.3742 33.0002 15.6708V18.1734C33.0098 18.1956 33.0238 18.2264 33.0439 18.2666C33.1212 18.4211 33.2425 18.6275 33.4073 18.8885C33.5537 19.1202 33.7195 19.3717 33.8991 19.6443C33.9192 19.6748 33.9395 19.7056 33.96 19.7367C34.16 20.0403 34.3731 20.3652 34.5749 20.689C35.2825 21.8244 35.4728 23.1655 35.0977 24.3382C34.7128 25.5416 33.7436 26.5075 32.3203 26.7907C30.5563 27.1416 28.1783 27.4286 25.1192 27.4286C22.2705 27.4286 19.8709 27.1798 17.9766 26.8656C16.3521 26.5962 15.2628 25.487 14.8746 24.1281C14.4948 22.7985 14.7906 21.2753 15.7557 20.0648C16.1502 19.57 16.4863 19.1226 16.7185 18.7713C16.8307 18.6016 16.905 18.4748 16.9482 18.389V15.7422ZM16.9816 18.3142C16.9816 18.3142 16.9804 18.319 16.9759 18.3297C16.9791 18.3197 16.9816 18.3142 16.9816 18.3142ZM29.3262 29.0066C29.717 29.5023 29.6321 30.2209 29.1365 30.6117C26.8037 32.4512 23.221 32.4746 20.863 30.6109C20.3678 30.2195 20.2837 29.5008 20.675 29.0056C21.0664 28.5104 21.7851 28.4263 22.2803 28.8177C23.8011 30.0196 26.2119 30.007 27.7211 28.8169C28.2168 28.426 28.9354 28.511 29.3262 29.0066Z" fill="#000001"/>
</svg>
