<svg width="51" height="40" viewBox="0 0 51 40" fill="none" xmlns="http://www.w3.org/2000/svg">
<mask id="mask0_6898_84662" style="mask-type:luminance" maskUnits="userSpaceOnUse" x="15" y="8" width="21" height="19">
<path fill-rule="evenodd" clip-rule="evenodd" d="M15.5 8H35.5111V26.7681H15.5V8Z" fill="white"/>
</mask>
<g mask="url(#mask0_6898_84662)">
<path fill-rule="evenodd" clip-rule="evenodd" d="M25.504 9.62279C21.7229 9.62279 19.0875 12.5849 19.0875 15.2431C19.0875 17.4922 18.4633 18.5319 17.9115 19.4493C17.4691 20.1861 17.1196 20.7681 17.1196 22.0328C17.3003 24.0732 18.6472 25.1453 25.504 25.1453C32.323 25.1453 33.7121 24.0256 33.8917 21.9625C33.8885 20.7681 33.539 20.1861 33.0965 19.4493C32.5448 18.5319 31.9206 17.4922 31.9206 15.2431C31.9206 12.5849 29.2851 9.62279 25.504 9.62279ZM25.504 26.7681C20.4452 26.7681 15.8733 26.4111 15.5 22.1021C15.4968 20.3191 16.0409 19.4125 16.5213 18.6141C17.007 17.8049 17.4647 17.0422 17.4647 15.2431C17.4647 11.7454 20.6951 8 25.504 8C30.3128 8 33.5433 11.7454 33.5433 15.2431C33.5433 17.0422 34.0009 17.8049 34.4867 18.6141C34.967 19.4125 35.5112 20.3191 35.5112 22.0328C35.1336 26.4111 30.5628 26.7681 25.504 26.7681Z" fill="#000001"/>
</g>
<path fill-rule="evenodd" clip-rule="evenodd" d="M25.4506 31.2602H25.4485C24.2357 31.2591 23.0879 30.7247 22.217 29.7542C21.9173 29.4221 21.9443 28.9082 22.2776 28.6096C22.6108 28.3089 23.1236 28.3359 23.4232 28.6702C23.9836 29.2944 24.7031 29.6374 25.4496 29.6374H25.4506C26.2004 29.6374 26.9231 29.2944 27.4845 28.6691C27.7853 28.337 28.2981 28.3099 28.6302 28.6096C28.9634 28.9093 28.9905 29.4232 28.6908 29.7553C27.8167 30.7257 26.6667 31.2602 25.4506 31.2602Z" fill="#000001"/>
</svg>
