<svg width="50" height="40" viewBox="0 0 50 40" fill="none" xmlns="http://www.w3.org/2000/svg">
<path fill-rule="evenodd" clip-rule="evenodd" d="M24.5113 10.7857C21.1922 10.7857 18.6261 13.2954 18.6261 16.2422V19.0357C18.6261 19.4034 18.475 19.7283 18.3962 19.8881C18.2939 20.0958 18.1601 20.316 18.0174 20.5318C17.7299 20.9668 17.3451 21.4755 16.9351 21.9897C16.409 22.6496 16.297 23.4136 16.4646 24.0003C16.6238 24.5576 17.0372 24.9937 17.7427 25.1107C19.5217 25.4057 21.7961 25.6429 24.5113 25.6429C27.4268 25.6429 29.6551 25.3695 31.2664 25.0489C31.8388 24.935 32.1697 24.5892 32.3128 24.1418C32.4657 23.6638 32.412 23.0153 32.0272 22.3979C31.8423 22.1012 31.6436 21.798 31.4433 21.4941C31.4229 21.463 31.4023 21.4319 31.3818 21.4007C31.2046 21.1318 31.026 20.8609 30.867 20.6092C30.6917 20.3315 30.5211 20.0478 30.3916 19.7887C30.2903 19.5862 30.1067 19.1998 30.1067 18.7857V16.1708C30.1067 13.178 27.7826 10.7857 24.5113 10.7857ZM16.3404 16.2422C16.3404 11.8996 20.0675 8.5 24.5113 8.5C29.0031 8.5 32.3924 11.8742 32.3924 16.1708V18.6734C32.4019 18.6956 32.4159 18.7264 32.436 18.7666C32.5133 18.9211 32.6346 19.1275 32.7995 19.3885C32.9459 19.6202 33.1116 19.8717 33.2912 20.1443C33.3114 20.1748 33.3317 20.2056 33.3521 20.2367C33.5521 20.5403 33.7652 20.8652 33.967 21.189C34.6746 22.3244 34.8649 23.6655 34.4898 24.8382C34.1049 26.0416 33.1358 27.0075 31.7124 27.2907C29.9485 27.6416 27.5705 27.9286 24.5113 27.9286C21.6627 27.9286 19.2631 27.6798 17.3687 27.3656C15.7443 27.0962 14.655 25.987 14.2668 24.6281C13.887 23.2985 14.1828 21.7753 15.1478 20.5648C15.5424 20.07 15.8784 19.6226 16.1107 19.2713C16.2229 19.1016 16.2971 18.9748 16.3404 18.889V16.2422ZM16.3738 18.8142C16.3738 18.8142 16.3725 18.819 16.3681 18.8297C16.3712 18.8197 16.3738 18.8142 16.3738 18.8142ZM28.7184 29.5066C29.1092 30.0023 29.0242 30.7209 28.5286 31.1117C26.1958 32.9512 22.6132 32.9746 20.2552 31.1109C19.76 30.7195 19.6758 30.0008 20.0672 29.5056C20.4585 29.0104 21.1773 28.9263 21.6724 29.3177C23.1932 30.5196 25.604 30.507 27.1133 29.3169C27.6089 28.926 28.3275 29.011 28.7184 29.5066Z" fill="#1152F4"/>
<path d="M17.226 19.9008L16.026 24.1008L18.4996 26.0007L22.026 26.5008L32.826 25.3008V22.9008L31.626 20.5008L31.026 16.3008L27.426 10.3008H22.626L19.026 13.3008L17.226 19.9008Z" fill="#1152F4"/>
<path d="M25.8935 12.5C25.8935 9.73858 28.1321 7.5 30.8935 7.5C33.6549 7.5 35.8935 9.73858 35.8935 12.5C35.8935 15.2614 33.6549 17.5 30.8935 17.5C28.1321 17.5 25.8935 15.2614 25.8935 12.5Z" fill="#F30014"/>
</svg>
