<svg width="50" height="40" viewBox="0 0 50 40" fill="none" xmlns="http://www.w3.org/2000/svg">
<path fill-rule="evenodd" clip-rule="evenodd" d="M25.1189 10.2857C21.7998 10.2857 19.2337 12.7954 19.2337 15.7422V18.5357C19.2337 18.9034 19.0826 19.2283 19.0038 19.3881C18.9015 19.5958 18.7677 19.816 18.625 20.0318C18.3375 20.4668 17.9527 20.9755 17.5427 21.4897C17.0166 22.1496 16.9046 22.9136 17.0722 23.5003C17.2314 24.0576 17.6448 24.4937 18.3503 24.6107C20.1293 24.9057 22.4037 25.1429 25.1189 25.1429C28.0344 25.1429 30.2627 24.8695 31.874 24.5489C32.4464 24.435 32.7773 24.0892 32.9204 23.6418C33.0733 23.1638 33.0196 22.5153 32.6348 21.8979C32.4499 21.6012 32.2512 21.298 32.0509 20.9941C32.0305 20.963 32.01 20.9319 31.9894 20.9007C31.8122 20.6318 31.6336 20.3609 31.4746 20.1092C31.2993 19.8315 31.1287 19.5478 30.9992 19.2887C30.8979 19.0862 30.7143 18.6998 30.7143 18.2857V15.6708C30.7143 12.678 28.3902 10.2857 25.1189 10.2857ZM16.948 15.7422C16.948 11.3996 20.6751 8 25.1189 8C29.6107 8 33 11.3742 33 15.6708V18.1734C33.0095 18.1956 33.0236 18.2264 33.0436 18.2666C33.1209 18.4211 33.2422 18.6275 33.4071 18.8885C33.5535 19.1202 33.7192 19.3717 33.8988 19.6443C33.919 19.6748 33.9393 19.7056 33.9598 19.7367C34.1597 20.0403 34.3728 20.3652 34.5747 20.689C35.2822 21.8244 35.4725 23.1655 35.0974 24.3382C34.7125 25.5416 33.7434 26.5075 32.32 26.7907C30.5561 27.1416 28.1781 27.4286 25.1189 27.4286C22.2703 27.4286 19.8707 27.1798 17.9763 26.8656C16.3519 26.5962 15.2626 25.487 14.8744 24.1281C14.4946 22.7985 14.7904 21.2753 15.7555 20.0648C16.15 19.57 16.486 19.1226 16.7183 18.7713C16.8305 18.6016 16.9047 18.4748 16.948 18.389V15.7422ZM16.9814 18.3142C16.9814 18.3142 16.9801 18.319 16.9757 18.3297C16.9788 18.3197 16.9814 18.3142 16.9814 18.3142ZM29.326 29.0066C29.7168 29.5023 29.6318 30.2209 29.1362 30.6117C26.8034 32.4512 23.2208 32.4746 20.8628 30.6109C20.3676 30.2195 20.2834 29.5008 20.6748 29.0056C21.0662 28.5104 21.7849 28.4263 22.2801 28.8177C23.8008 30.0196 26.2116 30.007 27.7209 28.8169C28.2165 28.426 28.9351 28.511 29.326 29.0066Z" fill="#1152F4"/>
<path d="M17.8338 19.4008L16.501 24.5007L22.6338 26.0008L33.4338 24.8008V22.4008L32.2338 20.0008L31.6338 15.8008L30.001 12.5007L28.0338 9.80078H23.2338L19.6338 12.8008L17.8338 19.4008Z" fill="#1152F4"/>
</svg>
