<svg width="51" height="40" viewBox="0 0 51 40" fill="none" xmlns="http://www.w3.org/2000/svg">
<path d="M23.5166 28.5361C24.0982 28.4132 27.6399 28.4132 28.2217 28.5361C28.7187 28.6509 29.2568 28.9192 29.2568 29.5049C29.2278 30.0623 28.9001 30.5563 28.4482 30.8701C27.8623 31.3268 27.1749 31.6164 26.4561 31.7207C26.0586 31.7722 25.6678 31.7733 25.2842 31.7207C24.5641 31.6165 23.8759 31.3271 23.291 30.8691C22.838 30.5565 22.5114 30.0623 22.4824 29.5049C22.4824 28.9192 23.0196 28.6509 23.5166 28.5361ZM25.9385 8.5C28.3576 8.50005 30.829 9.64823 32.2969 11.5527C33.2491 12.7789 33.6855 14.004 33.6855 15.9082V16.4043C33.6856 17.8648 34.0724 18.7257 34.9219 19.7178C35.5654 20.4485 35.7714 21.3867 35.7715 22.4043C35.7715 23.421 35.4368 24.3863 34.7676 25.1699C33.8916 26.1092 32.6564 26.7091 31.3955 26.8135C29.5683 26.9692 27.7394 27.1006 25.8867 27.1006C24.0329 27.1006 22.2052 27.0219 20.3779 26.8135C19.1158 26.7092 17.8799 26.1093 17.0049 25.1699C16.3357 24.3863 16 23.4209 16 22.4043C16 21.3867 16.2072 20.4485 16.8496 19.7178C17.7257 18.7257 18.0869 17.8648 18.0869 16.4043V15.9082C18.087 13.9523 18.5747 12.6729 19.5791 11.4209C21.0724 9.59512 23.4659 8.5001 25.834 8.5H25.9385Z" fill="#1152F4"/>
<path d="M27 12.5C27 9.73858 29.2386 7.5 32 7.5C34.7614 7.5 37 9.73858 37 12.5C37 15.2614 34.7614 17.5 32 17.5C29.2386 17.5 27 15.2614 27 12.5Z" fill="#F30014"/>
</svg>
