<svg width="27" height="25" viewBox="0 0 27 25" fill="none" xmlns="http://www.w3.org/2000/svg">
<path d="M13.4997 4.47195C10.548 4.47195 8.133 6.88698 8.133 9.83868C8.133 12.7904 10.548 15.2054 13.4997 15.2054C16.4514 15.2054 18.8664 12.7904 18.8664 9.83868C18.8664 6.88698 16.4514 4.47195 13.4997 4.47195ZM13.4997 13.4165C11.5319 13.4165 9.9219 11.8065 9.9219 9.83868C9.9219 7.87088 11.5319 6.26086 13.4997 6.26086C15.4675 6.26086 17.0775 7.87088 17.0775 9.83868C17.0775 11.8065 15.4675 13.4165 13.4997 13.4165Z" fill="black"/>
<path d="M13.5 0C6.56797 0 0.977631 5.59034 0.977631 12.5224C0.977631 15.9213 2.36403 19.0519 4.55545 21.288C5.09212 21.8247 5.67352 22.3166 6.34436 22.7639C8.35688 24.195 10.8166 25 13.5 25C16.1834 25 18.6431 24.1503 20.6556 22.7639C21.2817 22.3166 21.8631 21.8247 22.4445 21.288C24.6807 19.0072 26.0224 15.9213 26.0224 12.5224C26.0224 5.59034 20.432 0 13.5 0ZM13.5 23.2558C10.8166 23.2558 8.4016 22.2719 6.52325 20.6619C7.0152 19.0519 8.49105 17.8891 10.2352 17.8891H16.8095C18.5537 17.8891 20.0295 19.0519 20.5215 20.6619C18.5984 22.2719 16.1834 23.2558 13.5 23.2558ZM21.8631 19.2308C20.924 17.3524 19.0009 16.1002 16.8095 16.1002H10.2352C7.9991 16.1002 6.07602 17.3971 5.18157 19.2308C3.66099 17.3971 2.76654 15.0716 2.76654 12.5224C2.76654 6.61896 7.59659 1.78891 13.5 1.78891C19.4034 1.78891 24.2334 6.61896 24.2334 12.5224C24.2334 15.0716 23.339 17.3971 21.8631 19.2308Z" fill="black"/>
</svg>
