<svg width="40" height="40" viewBox="0 0 40 40" fill="none" xmlns="http://www.w3.org/2000/svg">
<g clip-path="url(#clip0_3873_11455)">
<path d="M20.0004 8.37207C13.5539 8.37207 8.35388 13.5721 8.35388 20.0186C8.35388 23.1814 9.6469 26.093 11.6841 28.1767C12.1864 28.679 12.726 29.1349 13.3492 29.5535C15.219 30.8837 17.5074 31.6372 20.0097 31.6372C22.512 31.6372 24.7911 30.8465 26.6702 29.5535C27.2562 29.1349 27.7957 28.679 28.3353 28.1767C30.419 26.0558 31.6655 23.1814 31.6655 20.0186C31.6469 13.5721 26.4469 8.37207 20.0004 8.37207ZM19.9818 12.5302C22.726 12.5302 24.9771 14.7814 24.9771 17.5256C24.9771 20.2697 22.7353 22.5209 19.9818 22.5209C17.2283 22.5209 14.9864 20.2697 14.9864 17.5256C14.9864 14.7814 17.2376 12.5302 19.9818 12.5302ZM19.9818 30.0093C17.4888 30.0093 15.2376 29.0977 13.4888 27.6C13.9446 26.1023 15.3213 25.0232 16.9399 25.0232H23.0516C24.6702 25.0232 26.0469 26.1023 26.5027 27.6C24.7167 29.0977 22.4655 30.0093 19.9725 30.0093H19.9818Z" fill="#1152F4"/>
</g>
<defs>
<clipPath id="clip0_3873_11455">
<rect width="23.293" height="23.2558" fill="white" transform="translate(8.35352 8.37207)"/>
</clipPath>
</defs>
</svg>
