<svg width="40" height="40" viewBox="0 0 40 40" fill="none" xmlns="http://www.w3.org/2000/svg">
<path d="M19.9997 12.5322C17.2539 12.5322 15.0074 14.7788 15.0074 17.5245C15.0074 20.2703 17.2539 22.5168 19.9997 22.5168C22.7454 22.5168 24.992 20.2703 24.992 17.5245C24.992 14.7788 22.7454 12.5322 19.9997 12.5322ZM19.9997 20.8527C18.1691 20.8527 16.6715 19.355 16.6715 17.5245C16.6715 15.694 18.1691 14.1963 19.9997 14.1963C21.8302 14.1963 23.3279 15.694 23.3279 17.5245C23.3279 19.355 21.8302 20.8527 19.9997 20.8527Z" fill="black"/>
<path d="M20 8.37207C13.5516 8.37207 8.35129 13.5724 8.35129 20.0208C8.35129 23.1826 9.64097 26.0947 11.6795 28.1749C12.1787 28.6741 12.7196 29.1317 13.3436 29.5478C15.2157 30.879 17.5038 31.6279 20 31.6279C22.4961 31.6279 24.7843 30.8374 26.6564 29.5478C27.2388 29.1317 27.7797 28.6741 28.3205 28.1749C30.4006 26.0531 31.6487 23.1826 31.6487 20.0208C31.6487 13.5724 26.4484 8.37207 20 8.37207ZM20 30.0054C17.5038 30.0054 15.2573 29.0901 13.51 27.5924C13.9676 26.0947 15.3405 25.0131 16.963 25.0131H23.0786C24.7011 25.0131 26.074 26.0947 26.5316 27.5924C24.7427 29.0901 22.4961 30.0054 20 30.0054ZM27.7797 26.2612C26.906 24.5139 25.1171 23.349 23.0786 23.349H16.963C14.8829 23.349 13.094 24.5555 12.2619 26.2612C10.8474 24.5555 10.0154 22.3921 10.0154 20.0208C10.0154 14.5292 14.5085 10.0362 20 10.0362C25.4915 10.0362 29.9846 14.5292 29.9846 20.0208C29.9846 22.3921 29.1525 24.5555 27.7797 26.2612Z" fill="black"/>
</svg>
