<svg width="27" height="25" viewBox="0 0 27 25" fill="none" xmlns="http://www.w3.org/2000/svg">
<path d="M13.5005 0C6.57047 0 0.980469 5.59 0.980469 12.52C0.980469 15.92 2.37047 19.05 4.56047 21.29C5.10047 21.83 5.68047 22.32 6.35047 22.77C8.36047 24.2 10.8205 25.01 13.5105 25.01C16.2005 25.01 18.6505 24.16 20.6705 22.77C21.3005 22.32 21.8805 21.83 22.4605 21.29C24.7005 19.01 26.0405 15.92 26.0405 12.52C26.0205 5.59 20.4305 0 13.5005 0ZM13.4805 4.47C16.4305 4.47 18.8505 6.89 18.8505 9.84C18.8505 12.79 16.4405 15.21 13.4805 15.21C10.5205 15.21 8.11047 12.79 8.11047 9.84C8.11047 6.89 10.5305 4.47 13.4805 4.47ZM13.4805 23.26C10.8005 23.26 8.38047 22.28 6.50047 20.67C6.99047 19.06 8.47047 17.9 10.2105 17.9H16.7805C18.5205 17.9 20.0005 19.06 20.4905 20.67C18.5705 22.28 16.1505 23.26 13.4705 23.26H13.4805Z" fill="#1152F4"/>
</svg>
