<svg width="40" height="40" viewBox="0 0 40 40" fill="none" xmlns="http://www.w3.org/2000/svg">
<g clip-path="url(#clip0_7382_40288)">
<path d="M29.9236 19.2402C27.1874 22.8247 23.4153 26.6182 19.7404 29.4234C25.5615 29.8925 30.3926 25.0601 29.9236 19.2402Z" fill="#1152F4"/>
<path d="M31.8909 8.62308C30.342 7.07424 27.0868 8.76145 25.2007 9.91247C25.7827 10.183 26.3419 10.5047 26.8722 10.8756C27.6031 10.4703 30.1132 9.21511 30.7063 9.80775C31.5001 10.6016 29.3204 14.2445 28.6682 15.2348C25.5966 9.94532 18.2289 8.91637 13.8228 13.3222C11.154 15.991 10.477 19.7527 11.5415 22.9871C9.90771 25.3026 7.29968 29.5666 9.12359 31.3903C13.7201 35.9869 36.4927 13.2249 31.8909 8.62308ZM10.3083 30.2057C9.53238 29.4299 11.5993 25.9131 12.3457 24.7813C13.1312 26.1347 14.2679 27.3142 15.7327 28.1666C12.7857 30.1003 10.7722 30.6696 10.3083 30.2057Z" fill="#1152F4"/>
</g>
<defs>
<clipPath id="clip0_7382_40288">
<rect width="24" height="24" fill="white" transform="translate(8.5 8)"/>
</clipPath>
</defs>
</svg>
