<svg width="40" height="40" viewBox="0 0 40 40" fill="none" xmlns="http://www.w3.org/2000/svg">
<g clip-path="url(#clip0_7382_39411)">
<path d="M31.3739 8.62291C30.6125 7.86152 29.3519 7.79787 27.627 8.43335C26.3154 8.91663 24.7152 9.81377 22.9801 11.0367C19.6951 9.94962 15.9272 10.7099 13.3181 13.3189C10.7091 15.928 9.94874 19.6959 11.0359 22.981C9.51426 25.1399 6.76504 29.5177 8.62213 31.3746C10.0816 32.8341 13.0235 31.419 14.821 30.3769C15.5258 29.9683 16.2614 29.4931 17.0164 28.961C20.3286 30.0569 24.0877 29.2688 26.6779 26.6786C29.2868 24.0697 30.0472 20.3021 28.9603 17.0171C29.4923 16.2621 29.9676 15.5266 30.3762 14.8218C32.1286 11.799 32.4643 9.71337 31.3739 8.62291ZM13.9813 28.9285C11.456 30.3925 10.1007 30.4854 9.8061 30.1908C9.62624 30.0109 9.57004 29.3833 10.0037 28.2067C10.3627 27.2324 10.9918 26.0595 11.8431 24.7686C12.6593 26.1648 13.8312 27.3371 15.2293 28.1543C14.8036 28.4344 14.3869 28.6934 13.9813 28.9285ZM16.774 27.071C11.842 24.8291 10.6799 18.325 14.502 14.5028C18.3245 10.6804 24.8285 11.8432 27.0703 16.7748C25.7473 18.5582 24.1095 20.4409 22.2749 22.2756C20.4402 24.1103 18.5574 25.7479 16.774 27.071ZM25.494 25.4948C23.6607 27.328 21.1319 28.0518 18.7491 27.667C20.301 26.4441 21.8993 25.0189 23.4587 23.4595C25.0181 21.9001 26.4433 20.3018 27.6663 18.7498C28.0511 21.1327 27.3273 23.6614 25.494 25.4948ZM28.9277 13.9821C28.6926 14.3877 28.4337 14.8045 28.1535 15.2299C27.3374 13.8336 26.1658 12.6612 24.7678 11.8439C26.0587 10.9925 27.2316 10.3634 28.2059 10.0044C29.3824 9.57077 30.01 9.62693 30.1899 9.80679C30.4847 10.1015 30.3918 11.4567 28.9277 13.9821Z" fill="#000001"/>
</g>
<defs>
<clipPath id="clip0_7382_39411">
<rect width="24" height="24" fill="white" transform="translate(8 8)"/>
</clipPath>
</defs>
</svg>
