<svg width="26" height="25" viewBox="0 0 26 25" fill="none" xmlns="http://www.w3.org/2000/svg">
<path d="M4.60318 25H20.7301C23.1785 24.9972 25.1638 23.0119 25.1667 20.5635V4.43653C25.1639 1.98813 23.1785 0.00283938 20.7301 0H4.60318C2.15479 0.00277265 0.169496 1.98813 0.166656 4.43653V20.5635C0.169429 23.0119 2.15479 24.9972 4.60318 25ZM1.94127 4.43546V4.43685C1.94404 2.96726 3.13359 1.7777 4.60318 1.77493H20.7301C22.1997 1.7777 23.3893 2.96726 23.392 4.43685V20.5638C23.3893 22.0334 22.1997 23.2229 20.7301 23.2257H4.60318C3.13359 23.2229 1.94404 22.0334 1.94127 20.5638V4.43546Z" fill="black"/>
<path d="M13.0893 15.6668L11.5199 19.1453V19.1439C11.3937 19.363 11.3674 19.625 11.445 19.8635C11.5241 20.1033 11.7001 20.2988 11.9317 20.4C12.1618 20.5012 12.4252 20.4998 12.6554 20.3958C12.8841 20.2919 13.0588 20.095 13.1351 19.8538L14.4799 16.8799H19.2352L20.5731 19.8857H20.5744C20.7159 20.2073 21.0334 20.4125 21.3827 20.4111C21.5047 20.4111 21.6253 20.3848 21.7376 20.3363C21.9539 20.242 22.123 20.0645 22.2076 19.8455C22.2922 19.625 22.2853 19.381 22.1882 19.1661L20.6271 15.6488L17.6921 9.05788C17.5507 8.73762 17.2332 8.53242 16.8824 8.53242C16.5345 8.53103 16.2184 8.73622 16.077 9.05373L13.0892 15.6627L13.0893 15.6668ZM16.8756 11.588L18.4451 15.1373H15.2826L16.8756 11.588Z" fill="black"/>
<path d="M3.95058 7.90412H10.0258C9.6057 8.83441 9.08719 9.71756 8.47854 10.5369L8.43971 10.5827V10.5841C8.17491 10.2458 7.9517 9.877 7.77285 9.48744C7.55103 9.08538 7.05885 8.91899 6.63877 9.10341C6.21868 9.2878 6.00935 9.76197 6.15352 10.1973C6.44189 10.8295 6.819 11.4159 7.27515 11.94C6.51817 12.7233 5.67384 13.4207 4.75882 14.0155C4.34846 14.2831 4.23197 14.8335 4.49956 15.2438C4.76714 15.6542 5.31755 15.7707 5.72791 15.5031C6.77049 14.8266 7.73127 14.0307 8.58947 13.1323C9.27713 13.6176 10.0438 13.978 10.8562 14.1971C10.9311 14.2165 11.0074 14.2262 11.0836 14.2248C11.5106 14.204 11.8614 13.8796 11.9169 13.4554C11.9709 13.0325 11.7145 12.6291 11.3082 12.5001C10.7537 12.3462 10.2282 12.1078 9.74993 11.7903C9.79984 11.7265 9.85252 11.6627 9.90243 11.5948C10.7454 10.4607 11.4372 9.21848 11.9571 7.90431H13.1037C13.5931 7.90431 13.991 7.50641 13.991 7.01701C13.991 6.52622 13.5931 6.1297 13.1037 6.1297H9.1747V5.45869C9.1747 4.9679 8.7768 4.57138 8.2874 4.57138C7.79661 4.57138 7.40009 4.9679 7.40009 5.45869V6.1297H3.95067C3.45989 6.1297 3.06337 6.52622 3.06337 7.01701C3.06337 7.50641 3.4598 7.90412 3.95058 7.90412Z" fill="black"/>
</svg>
