<svg width="25" height="25" viewBox="0 0 25 25" fill="none" xmlns="http://www.w3.org/2000/svg">
<path d="M20.56 0H4.44C1.99 0 0 1.99 0 4.44V20.57C0 23.02 1.99 25 4.44 25.01H20.57C23.02 25.01 25 23.02 25.01 20.57V4.44C25.01 1.99 23.02 0.01 20.57 0H20.56ZM10.69 14.2C9.88 13.98 9.11 13.62 8.42 13.14C7.56 14.04 6.6 14.83 5.56 15.51C5.15 15.78 4.6 15.66 4.33 15.25C4.06 14.84 4.18 14.29 4.59 14.02C5.51 13.43 6.35 12.73 7.11 11.94C6.65 11.42 6.28 10.83 5.99 10.2C5.85 9.76 6.06 9.29 6.48 9.11C6.9 8.93 7.39 9.09 7.61 9.49C7.79 9.88 8.01 10.25 8.28 10.59L8.32 10.54C8.93 9.72 9.45 8.84 9.87 7.91H3.78C3.29 7.91 2.89 7.51 2.89 7.02C2.89 6.53 3.29 6.13 3.78 6.13H7.23V5.46C7.23 4.97 7.63 4.57 8.12 4.57C8.61 4.57 9.01 4.97 9.01 5.46V6.13H12.94C13.43 6.13 13.83 6.53 13.83 7.02C13.83 7.51 13.43 7.91 12.94 7.91H11.79C11.27 9.22 10.58 10.47 9.74 11.6C9.69 11.67 9.64 11.73 9.59 11.8C10.07 12.12 10.59 12.36 11.15 12.51C11.56 12.64 11.81 13.04 11.76 13.47C11.7 13.89 11.35 14.22 10.93 14.24C10.85 14.24 10.78 14.24 10.7 14.21L10.69 14.2ZM22.04 19.85C21.96 20.07 21.79 20.25 21.57 20.34C21.46 20.39 21.34 20.41 21.22 20.41C20.87 20.41 20.55 20.21 20.41 19.88L19.07 16.87H14.31L12.97 19.84C12.89 20.08 12.72 20.28 12.49 20.38C12.26 20.48 12 20.49 11.77 20.38C11.54 20.28 11.36 20.08 11.28 19.84C11.2 19.6 11.23 19.34 11.35 19.12L12.92 15.64L15.91 9.03C16.05 8.71 16.37 8.51 16.72 8.51C17.07 8.51 17.39 8.72 17.53 9.04L20.47 15.63L22.03 19.15C22.13 19.36 22.13 19.61 22.05 19.83L22.04 19.85Z" fill="#1152F4"/>
</svg>
