<svg width="40" height="40" viewBox="0 0 40 40" fill="none" xmlns="http://www.w3.org/2000/svg">
<g clip-path="url(#clip0_3873_334)">
<path d="M22.4373 22.4559H25.3769L23.9164 19.1536L22.4373 22.4559Z" fill="#1152F4"/>
<path d="M27.4977 8.37207H12.5023C10.2233 8.37207 8.3721 10.2232 8.3721 12.5023V27.507C8.3721 29.786 10.2233 31.6279 12.5023 31.6372H27.507C29.7861 31.6372 31.6279 29.786 31.6372 27.507V12.5023C31.6372 10.2232 29.7861 8.38137 27.507 8.37207H27.4977ZM18.3163 21.5814C17.5628 21.3767 16.8465 21.0418 16.2047 20.5953C15.4047 21.4325 14.5116 22.1674 13.5442 22.8C13.1628 23.0511 12.6512 22.9395 12.4 22.5581C12.1488 22.1767 12.2605 21.6651 12.6419 21.4139C13.4977 20.8651 14.2791 20.2139 14.9861 19.479C14.5581 18.9953 14.214 18.4465 13.9442 17.8604C13.814 17.4511 14.0093 17.0139 14.4 16.8465C14.7907 16.679 15.2465 16.8279 15.4512 17.2C15.6186 17.5628 15.8233 17.907 16.0744 18.2232L16.1116 18.1767C16.6791 17.4139 17.1628 16.5953 17.5535 15.7302H11.8884C11.4326 15.7302 11.0605 15.3581 11.0605 14.9023C11.0605 14.4465 11.4326 14.0744 11.8884 14.0744H15.0977V13.4511C15.0977 12.9953 15.4698 12.6232 15.9256 12.6232C16.3814 12.6232 16.7535 12.9953 16.7535 13.4511V14.0744H20.4093C20.8651 14.0744 21.2372 14.4465 21.2372 14.9023C21.2372 15.3581 20.8651 15.7302 20.4093 15.7302H19.3395C18.8558 16.9488 18.214 18.1116 17.4326 19.1628C17.3861 19.2279 17.3395 19.2837 17.293 19.3488C17.7395 19.6465 18.2233 19.8697 18.7442 20.0093C19.1256 20.1302 19.3581 20.5023 19.3116 20.9023C19.2558 21.293 18.9302 21.6 18.5395 21.6186C18.4651 21.6186 18.4 21.6186 18.3256 21.5907L18.3163 21.5814ZM28.8744 26.8372C28.8 27.0418 28.6419 27.2093 28.4372 27.293C28.3349 27.3395 28.2233 27.3581 28.1116 27.3581C27.7861 27.3581 27.4884 27.1721 27.3581 26.8651L26.1116 24.0651H21.6837L20.4372 26.8279C20.3628 27.0511 20.2047 27.2372 19.9907 27.3302C19.7768 27.4232 19.5349 27.4325 19.3209 27.3302C19.107 27.2372 18.9395 27.0511 18.8651 26.8279C18.7907 26.6046 18.8186 26.3628 18.9302 26.1581L20.3907 22.9209L23.1721 16.7721C23.3023 16.4744 23.6 16.2883 23.9256 16.2883C24.2512 16.2883 24.5488 16.4837 24.6791 16.7814L27.414 22.9116L28.8651 26.186C28.9581 26.3814 28.9581 26.6139 28.8837 26.8186L28.8744 26.8372Z" fill="#1152F4"/>
</g>
<defs>
<clipPath id="clip0_3873_334">
<rect width="23.2558" height="23.2558" fill="white" transform="translate(8.3721 8.37207)"/>
</clipPath>
</defs>
</svg>
