<svg width="40" height="40" viewBox="0 0 40 40" fill="none" xmlns="http://www.w3.org/2000/svg">
<path d="M12.4991 31.6279H27.5009C29.7785 31.6253 31.6252 29.7785 31.6279 27.5009V12.4991C31.6253 10.2215 29.7785 8.37471 27.5009 8.37207H12.4991C10.2215 8.37465 8.37471 10.2215 8.37207 12.4991V27.5009C8.37465 29.7785 10.2215 31.6252 12.4991 31.6279ZM10.0229 12.4981V12.4994C10.0254 11.1323 11.132 10.0257 12.4991 10.0232H27.5009C28.8679 10.0257 29.9745 11.1323 29.9771 12.4994V27.5012C29.9745 28.8682 28.8679 29.9748 27.5009 29.9774H12.4991C11.132 29.9748 10.0254 28.8682 10.0229 27.5012V12.4981Z" fill="black"/>
<path d="M20.3929 22.9457L18.933 26.1816V26.1803C18.8156 26.384 18.7911 26.6278 18.8633 26.8496C18.9368 27.0727 19.1006 27.2546 19.316 27.3487C19.5301 27.4429 19.7751 27.4416 19.9892 27.3448C20.202 27.2481 20.3645 27.065 20.4355 26.8406L21.6865 24.0742H26.11L27.3545 26.8703H27.3558C27.4873 27.1695 27.7827 27.3604 28.1077 27.3591C28.2212 27.3591 28.3334 27.3346 28.4378 27.2894C28.639 27.2017 28.7963 27.0366 28.875 26.8329C28.9537 26.6278 28.9472 26.4008 28.857 26.2009L27.4048 22.929L24.6745 16.7979C24.543 16.5 24.2476 16.3091 23.9214 16.3091C23.5977 16.3078 23.3036 16.4987 23.1721 16.794L20.3928 22.9419L20.3929 22.9457ZM23.915 19.1515L25.375 22.4531H22.4332L23.915 19.1515Z" fill="black"/>
<path d="M11.8918 15.7247H17.5432C17.1524 16.5901 16.6701 17.4117 16.1039 18.1739L16.0677 18.2164V18.2177C15.8214 17.903 15.6138 17.56 15.4474 17.1976C15.2411 16.8236 14.7832 16.6688 14.3925 16.8404C14.0017 17.0119 13.8069 17.453 13.9411 17.8579C14.2093 18.446 14.5601 18.9915 14.9844 19.4791C14.2803 20.2077 13.4948 20.8565 12.6437 21.4097C12.2619 21.6586 12.1536 22.1707 12.4025 22.5524C12.6514 22.9341 13.1634 23.0425 13.5451 22.7936C14.515 22.1642 15.4087 21.4239 16.2071 20.5882C16.8467 21.0396 17.56 21.3749 18.3157 21.5787C18.3853 21.5967 18.4563 21.6058 18.5272 21.6045C18.9244 21.5851 19.2507 21.2833 19.3023 20.8887C19.3526 20.4953 19.114 20.12 18.7362 20.0001C18.2203 19.8569 17.7315 19.6351 17.2866 19.3398C17.333 19.2804 17.382 19.2211 17.4284 19.1579C18.2125 18.103 18.8561 16.9474 19.3397 15.7249H20.4063C20.8616 15.7249 21.2317 15.3548 21.2317 14.8995C21.2317 14.443 20.8616 14.0741 20.4063 14.0741H16.7515V13.4499C16.7515 12.9934 16.3813 12.6245 15.9261 12.6245C15.4695 12.6245 15.1007 12.9934 15.1007 13.4499V14.0741H11.8919C11.4354 14.0741 11.0665 14.443 11.0665 14.8995C11.0665 15.3548 11.4353 15.7247 11.8918 15.7247Z" fill="black"/>
</svg>
