<svg width="18" height="14" viewBox="0 0 18 14" fill="none" xmlns="http://www.w3.org/2000/svg">
<path d="M5.57792 11.1948C3.25974 11.1948 1.38312 9.31814 1.38312 6.99996C1.38312 4.68177 3.25974 2.80515 5.57792 2.80515H9.04416L7.91818 3.93112C7.74156 4.10775 7.74156 4.37268 7.91818 4.54931C8.00649 4.63762 8.11688 4.68177 8.22727 4.68177C8.33766 4.68177 8.44805 4.63762 8.53636 4.54931L10.413 2.67268C10.5896 2.49606 10.5896 2.23112 10.413 2.0545L8.53636 0.177878C8.35974 0.00125431 8.09481 0.00125431 7.91818 0.177878C7.74156 0.354501 7.74156 0.619436 7.91818 0.796059L9.04416 1.92203H5.57792C2.77403 1.92203 0.5 4.19606 0.5 6.99996C0.5 9.80385 2.77403 12.0779 5.57792 12.0779C5.82078 12.0779 6.01948 11.8792 6.01948 11.6363C6.01948 11.3935 5.82078 11.1948 5.57792 11.1948Z" fill="white"/>
<path d="M12.4221 1.92188C12.1793 1.92188 11.9806 2.12058 11.9806 2.36343C11.9806 2.60629 12.1793 2.80499 12.4221 2.80499C14.7403 2.80499 16.6169 4.68162 16.6169 6.9998C16.6169 9.31798 14.7403 11.1946 12.4221 11.1946H9.28707L10.413 10.0686C10.5897 9.89201 10.5897 9.62707 10.413 9.45045C10.2364 9.27382 9.97148 9.27382 9.79486 9.45045L7.91823 11.3271C7.74161 11.5037 7.74161 11.7686 7.91823 11.9453L9.79486 13.8219C9.88317 13.9102 9.99356 13.9543 10.1039 13.9543C10.2143 13.9543 10.3247 13.9102 10.413 13.8219C10.5897 13.6453 10.5897 13.3803 10.413 13.2037L9.28707 12.0777H12.4221C15.226 12.0777 17.5001 9.80369 17.5001 6.9998C17.5001 4.1959 15.226 1.92188 12.4221 1.92188Z" fill="white"/>
</svg>
