<svg width="10" height="10" viewBox="0 0 10 10" fill="none" xmlns="http://www.w3.org/2000/svg">
<path fill-rule="evenodd" clip-rule="evenodd" d="M1.19676 0.845559C1.19676 0.382008 1.57255 0.00622559 2.0361 0.00622559H9.15793C9.15803 0.00622559 9.15813 0.00622559 9.15822 0.00622559H9.17043C9.63398 0.00622559 10.0098 0.382008 10.0098 0.845559V7.97989C10.0098 8.44345 9.63398 8.81923 9.17043 8.81923C8.70688 8.81923 8.3311 8.44345 8.3311 7.97989V2.85954L1.4426 9.74804C1.11482 10.0758 0.583381 10.0758 0.255601 9.74804C-0.0721794 9.42026 -0.0721794 8.88882 0.255601 8.56104L7.13175 1.68489H2.0361C1.57255 1.68489 1.19676 1.30911 1.19676 0.845559Z" fill="white"/>
</svg>
