<svg width="25" height="26" viewBox="0 0 25 26" fill="none" xmlns="http://www.w3.org/2000/svg">
<path d="M12.5 5.00952C10.9197 5.00952 9.37479 5.47816 8.06076 6.35616C6.74673 7.23417 5.72256 8.48212 5.11778 9.94219C4.513 11.4023 4.35476 13.0089 4.66308 14.5589C4.97139 16.1089 5.73241 17.5327 6.84991 18.6502C7.9674 19.7677 9.39117 20.5287 10.9412 20.837C12.4912 21.1453 14.0978 20.9871 15.5579 20.3823C17.018 19.7775 18.2659 18.7533 19.1439 17.4393C20.0219 16.1253 20.4906 14.5804 20.4906 13C20.488 10.8816 19.6454 8.85063 18.1474 7.35266C16.6494 5.8547 14.6185 5.01203 12.5 5.00952ZM12.5 19.7247C11.17 19.7247 9.86988 19.3303 8.76401 18.5914C7.65814 17.8525 6.79622 16.8022 6.28725 15.5735C5.77827 14.3447 5.6451 12.9926 5.90458 11.6881C6.16405 10.3836 6.80451 9.18542 7.74498 8.24496C8.68544 7.30449 9.88367 6.66403 11.1881 6.40456C12.4926 6.14508 13.8447 6.27825 15.0735 6.78723C16.3022 7.29621 17.3525 8.15813 18.0914 9.26399C18.8303 10.3699 19.2247 11.67 19.2247 13C19.2231 14.783 18.514 16.4925 17.2533 17.7532C15.9925 19.014 14.283 19.723 12.5 19.7247Z" fill="white"/>
<path d="M12.5 4.4557C12.6679 4.4557 12.8289 4.38901 12.9476 4.27032C13.0663 4.15163 13.1329 3.99064 13.1329 3.82278V1.13291C13.1329 0.965053 13.0663 0.804069 12.9476 0.685376C12.8289 0.566682 12.6679 0.5 12.5 0.5C12.3322 0.5 12.1712 0.566682 12.0525 0.685376C11.9338 0.804069 11.8671 0.965053 11.8671 1.13291V3.82278C11.8671 3.99064 11.9338 4.15163 12.0525 4.27032C12.1712 4.38901 12.3322 4.4557 12.5 4.4557Z" fill="white"/>
<path d="M5.56334 6.95891C5.6821 7.07767 5.84317 7.14439 6.01112 7.14439C6.17908 7.14439 6.34015 7.07767 6.45891 6.95891C6.57767 6.84015 6.64439 6.67908 6.64439 6.51112C6.64439 6.34317 6.57767 6.1821 6.45891 6.06334L4.56017 4.1646C4.44141 4.04584 4.28034 3.97913 4.11239 3.97913C3.94444 3.97913 3.78336 4.04584 3.6646 4.1646C3.54584 4.28336 3.47913 4.44444 3.47913 4.61239C3.47913 4.78034 3.54584 4.94141 3.6646 5.06017L5.56334 6.95891Z" fill="white"/>
<path d="M3.95571 13C3.95571 12.8321 3.88903 12.6711 3.77034 12.5524C3.65164 12.4337 3.49066 12.3671 3.3228 12.3671H0.632927C0.465068 12.3671 0.304085 12.4337 0.185391 12.5524C0.0666969 12.6711 1.52588e-05 12.8321 1.52588e-05 13C1.52588e-05 13.1678 0.0666969 13.3288 0.185391 13.4475C0.304085 13.5662 0.465068 13.6329 0.632927 13.6329H3.3228C3.49066 13.6329 3.65164 13.5662 3.77034 13.4475C3.88903 13.3288 3.95571 13.1678 3.95571 13Z" fill="white"/>
<path d="M5.56334 19.0412L3.6646 20.9399C3.6058 20.9987 3.55916 21.0685 3.52733 21.1454C3.49551 21.2222 3.47913 21.3045 3.47913 21.3877C3.47913 21.4709 3.49551 21.5532 3.52733 21.63C3.55916 21.7069 3.6058 21.7767 3.6646 21.8355C3.72341 21.8943 3.79322 21.9409 3.87005 21.9728C3.94688 22.0046 4.02923 22.021 4.11239 22.021C4.19555 22.021 4.2779 22.0046 4.35473 21.9728C4.43156 21.9409 4.50137 21.8943 4.56017 21.8355L6.45891 19.9368C6.57767 19.818 6.64439 19.6569 6.64439 19.489C6.64439 19.321 6.57767 19.1599 6.45891 19.0412C6.34015 18.9224 6.17908 18.8557 6.01112 18.8557C5.84317 18.8557 5.6821 18.9224 5.56334 19.0412Z" fill="white"/>
<path d="M12.5 21.5443C12.3322 21.5443 12.1712 21.611 12.0525 21.7297C11.9338 21.8484 11.8671 22.0094 11.8671 22.1772V24.8671C11.8671 25.035 11.9338 25.1959 12.0525 25.3146C12.1712 25.4333 12.3322 25.5 12.5 25.5C12.6679 25.5 12.8289 25.4333 12.9476 25.3146C13.0663 25.1959 13.1329 25.035 13.1329 24.8671V22.1772C13.1329 22.0094 13.0663 21.8484 12.9476 21.7297C12.8289 21.611 12.6679 21.5443 12.5 21.5443Z" fill="white"/>
<path d="M19.4368 19.0412C19.318 18.9224 19.1569 18.8557 18.989 18.8557C18.821 18.8557 18.66 18.9224 18.5412 19.0412C18.4224 19.1599 18.3557 19.321 18.3557 19.489C18.3557 19.6569 18.4224 19.818 18.5412 19.9368L20.4399 21.8355C20.4987 21.8943 20.5686 21.9409 20.6454 21.9728C20.7222 22.0046 20.8046 22.021 20.8877 22.021C20.9709 22.021 21.0532 22.0046 21.1301 21.9728C21.2069 21.9409 21.2767 21.8943 21.3355 21.8355C21.3943 21.7767 21.441 21.7069 21.4728 21.63C21.5046 21.5532 21.521 21.4709 21.521 21.3877C21.521 21.3045 21.5046 21.2222 21.4728 21.1454C21.441 21.0685 21.3943 20.9987 21.3355 20.9399L19.4368 19.0412Z" fill="white"/>
<path d="M24.3671 12.3671H21.6772C21.5094 12.3671 21.3484 12.4337 21.2297 12.5524C21.111 12.6711 21.0443 12.8321 21.0443 13C21.0443 13.1678 21.111 13.3288 21.2297 13.4475C21.3484 13.5662 21.5094 13.6329 21.6772 13.6329H24.3671C24.535 13.6329 24.6959 13.5662 24.8146 13.4475C24.9333 13.3288 25 13.1678 25 13C25 12.8321 24.9333 12.6711 24.8146 12.5524C24.6959 12.4337 24.535 12.3671 24.3671 12.3671Z" fill="white"/>
<path d="M18.9906 7.14244C19.1581 7.14174 19.3186 7.07459 19.4368 6.95573L21.3355 5.057C21.3943 4.9982 21.4409 4.92839 21.4728 4.85155C21.5046 4.77472 21.521 4.69238 21.521 4.60922C21.521 4.52605 21.5046 4.44371 21.4728 4.36688C21.4409 4.29004 21.3943 4.22023 21.3355 4.16143C21.2767 4.10263 21.2069 4.05598 21.13 4.02416C21.0532 3.99233 20.9709 3.97595 20.8877 3.97595C20.8045 3.97595 20.7222 3.99233 20.6454 4.02416C20.5685 4.05598 20.4987 4.10263 20.4399 4.16143L18.5412 6.06016C18.4532 6.14867 18.3934 6.2612 18.3691 6.38363C18.3449 6.50605 18.3575 6.63289 18.4052 6.74822C18.4528 6.86354 18.5336 6.96219 18.6372 7.03177C18.7407 7.10135 18.8626 7.13875 18.9874 7.13928L18.9906 7.14244Z" fill="white"/>
</svg>
