<svg width="16" height="17" viewBox="0 0 16 17" fill="none" xmlns="http://www.w3.org/2000/svg">
<path fill-rule="evenodd" clip-rule="evenodd" d="M6.73695 5.65789C6.73695 3.91384 8.15078 2.5 9.89484 2.5C11.6389 2.5 13.0527 3.91384 13.0527 5.65789C13.0527 7.40195 11.6389 8.81579 9.89484 8.81579C8.15078 8.81579 6.73695 7.40195 6.73695 5.65789ZM9.89484 3.76316C8.84841 3.76316 8.0001 4.61146 8.0001 5.65789C8.0001 6.70433 8.84841 7.55263 9.89484 7.55263C10.9413 7.55263 11.7896 6.70433 11.7896 5.65789C11.7896 4.61146 10.9413 3.76316 9.89484 3.76316Z" fill="#374151"/>
<path d="M3.57905 5.65789C3.92786 5.65789 4.21063 5.94066 4.21063 6.28947V7.55263H5.47379C5.8226 7.55263 6.10537 7.8354 6.10537 8.18421C6.10537 8.53302 5.8226 8.81579 5.47379 8.81579H4.21063V10.0789C4.21063 10.4278 3.92786 10.7105 3.57905 10.7105C3.23024 10.7105 2.94747 10.4278 2.94747 10.0789V8.81579H1.68431C1.3355 8.81579 1.05273 8.53302 1.05273 8.18421C1.05273 7.8354 1.3355 7.55263 1.68431 7.55263H2.94747V6.28947C2.94747 5.94066 3.23024 5.65789 3.57905 5.65789Z" fill="#374151"/>
<path fill-rule="evenodd" clip-rule="evenodd" d="M9.89484 9.44737C8.63558 9.44737 7.4288 9.60793 6.51237 10.0149C5.5781 10.4297 4.84221 11.1616 4.84221 12.2895C4.84221 12.5842 4.89604 12.9197 5.09656 13.2395C5.29705 13.5594 5.60507 13.8014 6.00293 13.9814C6.76655 14.3269 7.98994 14.5 9.89484 14.5C11.7997 14.5 13.0231 14.3269 13.7867 13.9814C14.1846 13.8014 14.4926 13.5594 14.6931 13.2395C14.8936 12.9197 14.9475 12.5842 14.9475 12.2895C14.9475 11.1616 14.2116 10.4297 13.2773 10.0149C12.3609 9.60793 11.1541 9.44737 9.89484 9.44737ZM6.10537 12.2895C6.10537 11.8384 6.35916 11.465 7.025 11.1693C7.70867 10.8657 8.71242 10.7105 9.89484 10.7105C11.0773 10.7105 12.081 10.8657 12.7647 11.1693C13.4305 11.465 13.6843 11.8384 13.6843 12.2895C13.6843 12.4307 13.6592 12.5107 13.6229 12.5686C13.5865 12.6266 13.4998 12.7248 13.2661 12.8305C12.7666 13.0565 11.7794 13.2368 9.89484 13.2368C8.01027 13.2368 7.02313 13.0565 6.52359 12.8305C6.28988 12.7248 6.20316 12.6266 6.16681 12.5686C6.13048 12.5107 6.10537 12.4307 6.10537 12.2895Z" fill="#374151"/>
</svg>
