<svg width="24" height="24" viewBox="0 0 24 24" fill="none" xmlns="http://www.w3.org/2000/svg">
<path fill-rule="evenodd" clip-rule="evenodd" d="M16.6857 18.0201C16.7747 17.4625 17.0302 16.9579 17.4017 16.5548C19.1062 15.2219 20.1818 13.2685 20.1818 11.0917C20.1818 7.07476 16.5187 3.81835 12 3.81835C7.48131 3.81835 3.81818 7.07476 3.81818 11.0917C3.81818 15.1087 7.48131 18.3651 12 18.3651C12.7685 18.3651 13.5123 18.2709 14.2175 18.0948C14.3146 18.0706 14.4165 18.1106 14.4716 18.1942C14.5831 18.3633 14.7061 18.5335 14.8389 18.6992C15.0479 18.9599 15.2812 19.2097 15.5328 19.4275C16.0042 19.8357 16.5394 20.1317 17.0979 20.1774C17.1167 20.1789 17.1355 20.1801 17.1543 20.1811C17.1921 20.183 17.2137 20.1397 17.1913 20.1092C17.1808 20.0948 17.1705 20.0803 17.1602 20.0657C16.8387 19.6074 16.6509 19.0548 16.6509 18.46C16.6509 18.4483 16.651 18.4366 16.6512 18.425C16.6529 18.2875 16.6646 18.1523 16.6857 18.0201ZM18.6707 17.8683C20.6762 16.2357 22 13.8287 22 11.0917C22 5.87509 17.3156 2 12 2C6.68439 2 2 5.87509 2 11.0917C2 16.3084 6.68439 20.1835 12 20.1835C12.5474 20.1835 13.0857 20.1434 13.6113 20.0661C13.8763 20.3729 14.1749 20.6711 14.5044 20.9376C15.1316 21.4448 16.0047 21.943 17.0614 21.9971L17.0615 21.9971C18.7715 22.0845 19.4985 20.1862 18.66 19.0372C18.5361 18.8674 18.4691 18.6709 18.4691 18.46C18.4691 18.2455 18.539 18.0423 18.6707 17.8683Z" fill="#000001"/>
</svg>
