<svg width="20" height="20" viewBox="0 0 20 20" fill="none" xmlns="http://www.w3.org/2000/svg">
<path d="M16.0618 9.67773C15.2662 10.3334 14.2475 10.7279 13.1385 10.7279C12.7546 10.7279 12.3816 10.6806 12.0249 10.5917C12.6627 11.5628 13.0343 12.7237 13.0343 13.9699V15.8002C13.0343 16.4848 12.7844 17.1118 12.3716 17.5959H16.5378C17.5279 17.5959 18.3334 16.7904 18.3334 15.8002V13.9699C18.3334 12.1885 17.432 10.6139 16.0618 9.67773Z" fill="#000001"/>
<path d="M6.85516 9.75219C8.85458 9.75219 10.4812 8.12558 10.4812 6.12616C10.4812 4.12662 8.85458 2.5 6.85516 2.5C4.85574 2.5 3.22913 4.12662 3.22913 6.12616C3.22913 8.12558 4.85574 9.75219 6.85516 9.75219Z" fill="#000001"/>
<path d="M13.1341 9.75219C15.1335 9.75219 16.7602 8.12558 16.7602 6.12616C16.7602 4.12662 15.1335 2.5 13.1341 2.5C12.1669 2.5 11.287 2.88068 10.6361 3.50003C11.1558 4.24537 11.4611 5.15067 11.4611 6.12616C11.4611 7.10152 11.1558 8.00682 10.6361 8.75217C11.287 9.37151 12.1669 9.75219 13.1341 9.75219Z" fill="#000001"/>
<path d="M9.78496 9.67773C8.98951 10.3334 7.9708 10.7279 6.86168 10.7279C5.75256 10.7279 4.73384 10.3336 3.93827 9.67773C2.56798 10.6139 1.66663 12.1885 1.66663 13.9699V15.8002C1.66663 16.7904 2.47211 17.5959 3.46235 17.5959H10.2609C11.2511 17.5959 12.0566 16.7904 12.0566 15.8002V13.9699C12.0566 12.1885 11.1554 10.6139 9.78496 9.67773Z" fill="#000001"/>
</svg>
