<svg width="20" height="20" viewBox="0 0 20 20" fill="none" xmlns="http://www.w3.org/2000/svg">
<path d="M10.4916 18.3155C19.6321 17.7927 21.3315 4.96426 12.6583 2.08353C10.2584 1.2831 7.50658 1.64718 5.40695 3.05863H5.40754C4.43446 3.70337 3.60782 4.54424 2.98093 5.52697C2.35404 6.5097 1.94083 7.61247 1.76796 8.76415L1.76743 8.76379C0.944826 13.9047 5.27346 18.6554 10.4916 18.3155ZM17.2566 13.0356C16.9583 13.7396 16.5572 14.3958 16.0665 14.9831C16.0319 14.7773 16.1275 14.5388 15.985 14.3468C15.8305 14.0465 15.6874 13.7402 15.5264 13.4436C15.4665 13.3333 15.483 13.2699 15.5712 13.1905C16.5162 12.3642 15.6738 12.8035 15.7666 11.6225C15.77 11.5906 15.7636 11.5584 15.7484 11.5301C15.7332 11.5018 15.7098 11.4788 15.6813 11.4639C15.2333 11.1788 14.6485 11.081 14.1856 11.3977C13.6087 11.6694 12.7858 11.4616 12.5991 10.8017C12.4341 10.363 12.4543 9.92005 12.45 9.47208C12.4766 9.2305 12.8092 9.18994 12.7552 8.91071C12.768 8.55616 12.6521 8.18188 12.9885 7.95047C13.0143 7.92779 13.045 7.91142 13.0783 7.90265C13.1115 7.89388 13.1463 7.89295 13.18 7.89994C13.4874 7.93699 13.7981 7.86478 14.0574 7.69603C14.3323 7.52232 14.6718 7.63477 14.9764 7.59523C15.1215 7.58492 15.2291 7.62741 15.3185 7.74003C15.4942 7.96113 15.7691 8.02606 16 8.16036C16.0777 8.20553 16.1194 8.14858 16.1558 8.10174C16.3499 7.85231 16.6472 7.76851 16.9079 7.62509C17.0499 7.54401 17.3346 7.85356 17.5769 7.86455C18.0599 9.5492 17.9478 11.4246 17.2566 13.0356ZM17.1431 6.704C16.8537 6.74194 17.0483 6.46795 16.899 6.32459C16.749 6.1912 16.6063 6.04984 16.4716 5.90115C16.4018 5.8269 16.3567 5.81496 16.276 5.89428C16.0594 6.10786 16.0716 6.0852 16.3242 6.34042C16.6191 6.66351 16.8414 6.65811 16.3078 6.88262C16.1863 6.93711 16.0717 7.06127 15.9391 6.88187C15.8589 6.77331 15.7497 6.70037 15.7627 6.53313C15.7826 6.27526 15.5852 6.0883 15.4938 5.86566C15.4666 5.79923 15.4183 5.84604 15.3926 5.87874C15.2005 6.12497 14.9102 6.22015 14.6472 6.35694C14.193 6.7527 14.2967 6.70959 13.6939 6.69239C13.6381 6.69478 13.6217 6.62772 13.5975 6.58854C13.294 6.09341 13.3528 5.97271 13.6673 5.50528C13.7829 5.43614 14.294 5.51595 14.3906 5.61649C14.434 5.66163 14.4696 5.71422 14.5323 5.79292C14.5804 5.60125 14.5561 5.45439 14.561 5.30972C14.6425 4.7161 15.143 4.98362 15.4984 4.85469C15.6663 4.72677 15.7352 4.66308 15.6996 4.60032C16.2936 5.21764 16.7813 5.92842 17.1431 6.704ZM15.651 4.55063C15.4085 4.39328 14.8697 4.22738 14.8554 3.83855C15.1367 4.05742 15.4025 4.29534 15.651 4.55063ZM4.49674 4.47541C4.94885 4.02421 5.45468 3.62987 6.00296 3.30119C6.18942 3.39604 6.32244 3.745 6.55633 3.62101C6.80577 3.49057 7.07163 3.38711 7.2507 3.15387C7.35215 3.03105 7.52968 3.12506 7.66218 3.0878C8.18313 3.01751 8.32397 3.60861 8.51883 3.96026C8.50163 3.97468 8.49257 3.98852 8.48509 3.98766C8.03307 3.93684 7.6186 4.08147 7.20895 4.23867C7.07438 4.29031 6.97067 4.29469 6.88648 4.16556C6.78243 4.00588 6.64875 4.00127 6.48277 4.07015C6.32904 4.17845 5.77668 4.19716 5.81486 4.4145C5.85234 4.6187 5.69056 4.96675 6.05836 4.89718C6.2307 4.83742 6.37886 5.34495 6.48419 5.05316C6.71019 4.14061 7.663 4.93695 8.39768 4.35386C8.66797 4.19405 8.89027 4.72045 8.9953 4.90588C9.07512 5.07985 9.13285 5.28467 9.41351 5.22399C9.23752 5.39944 9.06032 5.57371 8.8863 5.75105C8.83582 5.8025 8.78993 5.78602 8.73325 5.76639C8.51446 5.69071 8.29269 5.62343 8.07465 5.54561C7.97064 5.50849 7.92075 5.50486 7.92312 5.64374C8.10114 6.59881 7.2847 5.67769 6.71771 6.39393C6.01021 7.10251 6.55774 7.69715 5.58537 8.44207C5.52724 8.49525 5.47896 8.50167 5.42149 8.4596C4.99908 8.16078 4.05001 7.99842 3.73446 8.48688C3.72993 8.5016 3.72883 8.51715 3.73123 8.53235C3.73363 8.54756 3.73947 8.56202 3.74831 8.57464C3.91731 8.84458 3.93057 9.29873 4.25143 8.84592C4.34694 8.7648 4.45913 8.79211 4.55694 8.8083C4.65983 8.82534 4.60873 8.93393 4.60617 8.99709C4.62071 9.24895 4.98424 9.29382 4.91272 9.57733C4.87193 9.78245 5.13118 9.66908 5.24511 9.70349C5.42927 9.72995 5.56899 9.66856 5.68705 9.52523C5.77659 9.41654 6.29054 9.34269 6.40889 9.41262C6.50273 9.50685 6.54215 9.65407 6.60947 9.76913C6.72135 9.99286 6.72618 9.99737 6.89088 9.82055C7.26931 9.52451 7.80125 9.75873 8.16133 9.9643C8.44422 10.1222 8.35078 10.686 8.77218 10.605C8.85311 10.5859 8.8969 10.6546 8.94127 10.7045C9.24737 11.0776 9.74159 11.033 9.92264 11.5447C10.0393 11.7581 10.0268 11.9452 9.92769 12.1563C9.85726 12.5529 9.66154 12.8452 9.24829 12.9563C8.9206 13.0736 9.47344 13.6064 8.72337 13.8188C8.531 13.8606 8.50609 14.0074 8.531 14.1796C8.61056 14.623 8.50251 14.9577 8.01308 15.0745C7.86834 15.1222 7.89413 15.314 7.82544 15.4233C7.48777 16.0366 7.79472 16.484 8.22475 16.9135C7.8473 16.9357 7.43824 16.974 7.30778 16.569C7.14478 16.0973 6.99729 15.6214 6.75559 15.1804C6.67442 15.0323 6.72667 14.8602 6.72457 14.6996C6.66566 14.0424 5.99222 13.5505 6.11872 12.8502C6.16775 12.4995 5.66578 13.0004 5.14605 12.3621C4.97282 12.1573 4.56974 11.6623 4.63935 11.4058C4.78163 11.0524 4.79663 10.626 5.12511 10.3807C5.26503 10.2723 5.27776 9.93431 5.0168 9.99986C4.34645 10.1116 4.48969 9.60965 4.09707 9.70496C3.83122 9.73315 3.63931 9.64631 3.4327 9.46096C2.81283 8.89282 2.63514 9.31377 2.27997 8.89256C2.51832 7.21946 3.2964 5.66905 4.49674 4.47541Z" fill="#000001"/>
</svg>
