<svg width="20" height="20" viewBox="0 0 20 20" fill="none" xmlns="http://www.w3.org/2000/svg">
<path d="M16.6378 9.57323C16.4168 9.35225 16.1486 9.24184 15.8328 9.24184H15.4542V6.96899C15.4542 5.51699 14.9336 4.27026 13.8918 3.22859C12.8502 2.18687 11.6036 1.66602 10.1514 1.66602C8.69924 1.66602 7.45238 2.18687 6.41084 3.22854C5.36912 4.27026 4.84843 5.51695 4.84843 6.96899V9.24184H4.4697C4.15415 9.24184 3.88578 9.35225 3.6648 9.57323C3.44382 9.79404 3.33337 10.0624 3.33337 10.3782V17.1964C3.33337 17.5119 3.44386 17.7804 3.6648 18.0014C3.88578 18.2222 4.15415 18.3327 4.4697 18.3327H15.8331C16.1489 18.3327 16.4171 18.2223 16.6381 18.0014C16.8589 17.7804 16.9696 17.5119 16.9696 17.1964V10.3781C16.9697 10.0625 16.8589 9.79421 16.6378 9.57323ZM13.1816 9.24184H7.12116V6.96899C7.12116 6.13254 7.41714 5.41831 8.00898 4.82656C8.6009 4.23473 9.315 3.93887 10.1515 3.93887C10.9881 3.93887 11.7021 4.23469 12.294 4.82656C12.8857 5.41827 13.1816 6.13254 13.1816 6.96899V9.24184Z" fill="#000001"/>
</svg>
