<svg width="24" height="24" viewBox="0 0 24 24" fill="none" xmlns="http://www.w3.org/2000/svg">
<path fill-rule="evenodd" clip-rule="evenodd" d="M2.01123 10.8927C2.54907 5.90964 6.68096 2 11.7394 2C14.5992 2 17.1666 3.25301 18.9518 5.23997V4C18.9518 3.44772 19.3995 3 19.9518 3C20.5041 3 20.9518 3.44772 20.9518 4V8C20.9518 8.26522 20.8465 8.51957 20.6589 8.70711C20.4714 8.89464 20.217 9 19.9518 9L15.9518 9C15.3995 9 14.9518 8.55228 14.9518 8C14.9518 7.44771 15.3995 7 15.9518 7L17.8189 7C16.387 5.16504 14.1921 4 11.7394 4C7.75139 4 4.43324 7.09046 3.99968 11.1073C3.94041 11.6564 3.44724 12.0535 2.89814 11.9942C2.34905 11.935 1.95196 11.4418 2.01123 10.8927ZM21.0055 12.0058C21.5546 12.065 21.9517 12.5582 21.8925 13.1073C21.3546 18.0904 17.2227 22 12.1643 22C9.30446 22 6.73701 20.747 4.95182 18.76V20C4.95182 20.5523 4.50411 21 3.95182 21C3.39954 21 2.95182 20.5523 2.95182 20L2.95182 16C2.95182 15.7348 3.05718 15.4804 3.24472 15.2929C3.43225 15.1054 3.68661 15 3.95182 15L7.95182 15C8.50411 15 8.95182 15.4477 8.95182 16C8.95182 16.5523 8.50411 17 7.95182 17H6.08481C7.5167 18.835 9.71159 20 12.1643 20C16.1523 20 19.4704 16.9095 19.904 12.8927C19.9633 12.3436 20.4564 11.9465 21.0055 12.0058Z" fill="#000001"/>
</svg>
