<svg width="24" height="24" viewBox="0 0 24 24" fill="none" xmlns="http://www.w3.org/2000/svg">
<path fill-rule="evenodd" clip-rule="evenodd" d="M2.00586 10.8927C2.5437 5.90964 6.67559 2 11.734 2C14.5938 2 17.1613 3.25301 18.9465 5.23997V4C18.9465 3.44772 19.3942 3 19.9465 3C20.4987 3 20.9465 3.44772 20.9465 4V8C20.9465 8.26522 20.8411 8.51957 20.6536 8.70711C20.466 8.89464 20.2117 9 19.9465 9L15.9465 9C15.3942 9 14.9465 8.55228 14.9465 8C14.9465 7.44771 15.3942 7 15.9465 7L17.8135 7C16.3816 5.16504 14.1867 4 11.734 4C7.74601 4 4.42787 7.09046 3.99431 11.1073C3.93504 11.6564 3.44187 12.0535 2.89277 11.9942C2.34368 11.935 1.94659 11.4418 2.00586 10.8927ZM21.0002 12.0058C21.5493 12.065 21.9464 12.5582 21.8871 13.1073C21.3492 18.0904 17.2174 22 12.1589 22C9.29909 22 6.73164 20.747 4.94645 18.76V20C4.94645 20.5523 4.49874 21 3.94645 21C3.39417 21 2.94645 20.5523 2.94645 20L2.94645 16C2.94645 15.7348 3.05181 15.4804 3.23935 15.2929C3.42688 15.1054 3.68124 15 3.94645 15L7.94645 15C8.49874 15 8.94645 15.4477 8.94645 16C8.94645 16.5523 8.49874 17 7.94645 17H6.07944C7.51133 18.835 9.70622 20 12.1589 20C16.1469 20 19.4651 16.9095 19.8986 12.8927C19.9579 12.3436 20.4511 11.9465 21.0002 12.0058Z" fill="#000001"/>
<path fill-rule="evenodd" clip-rule="evenodd" d="M15.3902 10.3598C15.5366 10.5063 15.5366 10.7437 15.3902 10.8902L11.9053 14.375C11.6124 14.6679 11.1376 14.6679 10.8447 14.375L9.23483 12.7652C9.08839 12.6187 9.08839 12.3813 9.23483 12.2348C9.38128 12.0884 9.61872 12.0884 9.76517 12.2348L11.375 13.8447L14.8598 10.3598C15.0063 10.2134 15.2437 10.2134 15.3902 10.3598Z" fill="#000001" stroke="black" stroke-linecap="round"/>
</svg>
