<svg width="24" height="24" viewBox="0 0 24 24" fill="none" xmlns="http://www.w3.org/2000/svg">
<rect width="24" height="24" fill="white"/>
<path fill-rule="evenodd" clip-rule="evenodd" d="M10.1052 7.73684C10.1052 5.12076 12.226 3 14.8421 3C17.4582 3 19.5789 5.12076 19.5789 7.73684C19.5789 10.3529 17.4582 12.4737 14.8421 12.4737C12.226 12.4737 10.1052 10.3529 10.1052 7.73684ZM14.8421 4.89474C13.2724 4.89474 12 6.16719 12 7.73684C12 9.30649 13.2724 10.5789 14.8421 10.5789C16.4117 10.5789 17.6842 9.30649 17.6842 7.73684C17.6842 6.16719 16.4117 4.89474 14.8421 4.89474Z" fill="#000001"/>
<path d="M5.36839 7.73684C5.89161 7.73684 6.31576 8.16099 6.31576 8.68421V10.5789H8.2105C8.73371 10.5789 9.15787 11.0031 9.15787 11.5263C9.15787 12.0495 8.73371 12.4737 8.2105 12.4737H6.31576V14.3684C6.31576 14.8916 5.89161 15.3158 5.36839 15.3158C4.84518 15.3158 4.42102 14.8916 4.42102 14.3684V12.4737H2.52629C2.00307 12.4737 1.57892 12.0495 1.57892 11.5263C1.57892 11.0031 2.00307 10.5789 2.52629 10.5789H4.42102V8.68421C4.42102 8.16099 4.84518 7.73684 5.36839 7.73684Z" fill="#000001"/>
<path fill-rule="evenodd" clip-rule="evenodd" d="M14.8421 13.4211C12.9532 13.4211 11.143 13.6619 9.76836 14.2723C8.36697 14.8946 7.26313 15.9924 7.26313 17.6842C7.26313 18.1264 7.34388 18.6295 7.64466 19.1093C7.94539 19.589 8.40742 19.9521 9.00421 20.2221C10.1496 20.7403 11.9847 21 14.8421 21C17.6994 21 19.5345 20.7403 20.6799 20.2221C21.2767 19.9521 21.7388 19.589 22.0395 19.1093C22.3403 18.6295 22.421 18.1264 22.421 17.6842C22.421 15.9924 21.3172 14.8946 19.9158 14.2723C18.5411 13.6619 16.731 13.4211 14.8421 13.4211ZM9.15787 17.6842C9.15787 17.0076 9.53856 16.4475 10.5373 16.004C11.5628 15.5486 13.0685 15.3158 14.8421 15.3158C16.6157 15.3158 18.1213 15.5486 19.1468 16.004C20.1456 16.4475 20.5263 17.0076 20.5263 17.6842C20.5263 17.8961 20.4886 18.016 20.4341 18.1029C20.3796 18.1899 20.2495 18.3372 19.899 18.4958C19.1496 18.8348 17.6689 19.1053 14.8421 19.1053C12.0152 19.1053 10.5345 18.8348 9.7852 18.4958C9.43463 18.3372 9.30455 18.1899 9.25002 18.1029C9.19553 18.016 9.15787 17.8961 9.15787 17.6842Z" fill="#000001"/>
</svg>
