<svg width="24" height="24" viewBox="0 0 24 24" fill="none" xmlns="http://www.w3.org/2000/svg">
<rect width="24" height="24" fill="white"/>
<path fill-rule="evenodd" clip-rule="evenodd" d="M7.26313 7.73684C7.26313 5.12076 9.38388 3 12 3C14.6161 3 16.7368 5.12076 16.7368 7.73684C16.7368 10.3529 14.6161 12.4737 12 12.4737C9.38388 12.4737 7.26313 10.3529 7.26313 7.73684ZM12 4.89474C10.4303 4.89474 9.15787 6.16719 9.15787 7.73684C9.15787 9.30649 10.4303 10.5789 12 10.5789C13.5696 10.5789 14.8421 9.30649 14.8421 7.73684C14.8421 6.16719 13.5696 4.89474 12 4.89474Z" fill="#000001"/>
<path d="M6.58713 5.80241C7.08842 5.65253 7.3733 5.12466 7.22343 4.62337C7.07356 4.12207 6.54568 3.83719 6.04439 3.98707C4.48726 4.45261 3.47366 6.02438 3.47366 7.73684C3.47366 9.4493 4.48726 11.0211 6.04439 11.4866C6.54568 11.6365 7.07356 11.3516 7.22343 10.8503C7.3733 10.349 7.08842 9.82115 6.58713 9.67128C5.96503 9.48529 5.36839 8.75915 5.36839 7.73684C5.36839 6.71453 5.96503 5.9884 6.58713 5.80241Z" fill="#000001"/>
<path d="M17.9556 3.98707C17.4543 3.83719 16.9264 4.12207 16.7765 4.62337C16.6266 5.12466 16.9115 5.65253 17.4128 5.80241C18.0349 5.9884 18.6315 6.71453 18.6315 7.73684C18.6315 8.75915 18.0349 9.48529 17.4128 9.67128C16.9115 9.82115 16.6266 10.349 16.7765 10.8503C16.9264 11.3516 17.4543 11.6365 17.9556 11.4866C19.5127 11.0211 20.5263 9.4493 20.5263 7.73684C20.5263 6.02438 19.5127 4.45261 17.9556 3.98707Z" fill="#000001"/>
<path fill-rule="evenodd" clip-rule="evenodd" d="M12 13.4211C10.1111 13.4211 8.30091 13.6619 6.92626 14.2723C5.52486 14.8946 4.42102 15.9924 4.42102 17.6842C4.42102 18.1264 4.50178 18.6295 4.80255 19.1093C5.10329 19.589 5.56531 19.9521 6.16211 20.2221C7.30754 20.7403 9.14262 21 12 21C14.8573 21 16.6924 20.7403 17.8378 20.2221C18.4346 19.9521 18.8967 19.589 19.1974 19.1093C19.4982 18.6295 19.5789 18.1264 19.5789 17.6842C19.5789 15.9924 18.4751 14.8946 17.0737 14.2723C15.699 13.6619 13.8889 13.4211 12 13.4211ZM6.31576 17.6842C6.31576 17.0076 6.69645 16.4475 7.69521 16.004C8.72072 15.5486 10.2263 15.3158 12 15.3158C13.7736 15.3158 15.2792 15.5486 16.3047 16.004C17.3035 16.4475 17.6842 17.0076 17.6842 17.6842C17.6842 17.8961 17.6465 18.016 17.592 18.1029C17.5375 18.1899 17.4074 18.3372 17.0568 18.4958C16.3075 18.8348 14.8268 19.1053 12 19.1053C9.17311 19.1053 7.6924 18.8348 6.9431 18.4958C6.59253 18.3372 6.46244 18.1899 6.40792 18.1029C6.35343 18.016 6.31576 17.8961 6.31576 17.6842Z" fill="#000001"/>
<path d="M18.7303 12.9999C18.9629 12.5312 19.5314 12.3398 20 12.5724C21.4153 13.2748 22.421 14.4879 22.421 16.2632C22.421 16.7864 21.9969 17.2105 21.4737 17.2105C20.9504 17.2105 20.5263 16.7864 20.5263 16.2632C20.5263 15.3591 20.0763 14.7255 19.1578 14.2697C18.6891 14.0371 18.4977 13.4686 18.7303 12.9999Z" fill="#000001"/>
<path d="M4.84215 14.2697C5.31083 14.0371 5.50223 13.4686 5.26965 12.9999C5.03707 12.5312 4.46858 12.3398 3.9999 12.5724C2.58463 13.2748 1.57892 14.4879 1.57892 16.2632C1.57892 16.7864 2.00307 17.2105 2.52629 17.2105C3.0495 17.2105 3.47366 16.7864 3.47366 16.2632C3.47366 15.3591 3.92369 14.7255 4.84215 14.2697Z" fill="#000001"/>
</svg>
