<svg width="24" height="24" viewBox="0 0 24 24" fill="none" xmlns="http://www.w3.org/2000/svg">
<path fill-rule="evenodd" clip-rule="evenodd" d="M12 3.81818C10.4938 3.81818 9.27272 5.03922 9.27272 6.54545V9.27273C9.27272 9.27342 9.27272 9.27411 9.27272 9.2748C9.54292 9.27272 9.83452 9.27273 10.1495 9.27273H13.8505C14.1655 9.27273 14.4571 9.27272 14.7273 9.2748C14.7273 9.27411 14.7273 9.27342 14.7273 9.27273V6.54545C14.7273 5.03922 13.5062 3.81818 12 3.81818ZM16.5386 9.38483C16.5431 9.34809 16.5454 9.31068 16.5454 9.27273V6.54545C16.5454 4.03507 14.5104 2 12 2C9.48961 2 7.45454 4.03507 7.45454 6.54545V9.27273C7.45454 9.31068 7.45687 9.3481 7.46138 9.38483C7.16871 9.43432 6.89209 9.50775 6.62416 9.61873C5.5104 10.0801 4.62551 10.9649 4.16418 12.0787C3.97225 12.5421 3.89264 13.0314 3.85489 13.5848C3.81817 14.123 3.81817 14.7843 3.81818 15.6041V15.6687C3.81817 16.4884 3.81817 17.1497 3.85489 17.6879C3.89264 18.2413 3.97225 18.7307 4.16418 19.194C4.62551 20.3078 5.5104 21.1927 6.62416 21.654C7.08752 21.8459 7.57687 21.9255 8.13027 21.9633C8.66846 22 9.32974 22 10.1495 22H13.8505C14.6702 22 15.3315 22 15.8697 21.9633C16.4231 21.9255 16.9125 21.8459 17.3758 21.654C18.4896 21.1927 19.3745 20.3078 19.8358 19.194C20.0277 18.7307 20.1073 18.2413 20.1451 17.6879C20.1818 17.1497 20.1818 16.4884 20.1818 15.6687V15.6041C20.1818 14.7843 20.1818 14.123 20.1451 13.5848C20.1073 13.0314 20.0277 12.5421 19.8358 12.0787C19.3745 10.9649 18.4896 10.0801 17.3758 9.61873C17.1079 9.50775 16.8313 9.43432 16.5386 9.38483ZM8.25404 11.1234C7.79321 11.1548 7.52484 11.2136 7.31995 11.2985C6.65169 11.5753 6.12076 12.1062 5.84396 12.7745C5.75909 12.9794 5.70029 13.2478 5.66885 13.7086C5.63685 14.1776 5.63636 14.7768 5.63636 15.6364C5.63636 16.496 5.63685 17.0951 5.66885 17.5641C5.70029 18.025 5.75909 18.2933 5.84396 18.4982C6.12076 19.1665 6.65169 19.6974 7.31995 19.9742C7.52484 20.0591 7.79321 20.1179 8.25404 20.1493C8.72303 20.1813 9.32221 20.1818 10.1818 20.1818H13.8182C14.6778 20.1818 15.277 20.1813 15.746 20.1493C16.2068 20.1179 16.4751 20.0591 16.68 19.9742C17.3483 19.6974 17.8792 19.1665 18.156 18.4982C18.2409 18.2933 18.2997 18.025 18.3311 17.5641C18.3631 17.0951 18.3636 16.496 18.3636 15.6364C18.3636 14.7768 18.3631 14.1776 18.3311 13.7086C18.2997 13.2478 18.2409 12.9794 18.156 12.7745C17.8792 12.1062 17.3483 11.5753 16.68 11.2985C16.4751 11.2136 16.2068 11.1548 15.746 11.1234C15.277 11.0914 14.6778 11.0909 13.8182 11.0909H10.1818C9.32221 11.0909 8.72303 11.0914 8.25404 11.1234ZM12 13.8182C12.5021 13.8182 12.9091 14.2252 12.9091 14.7273V16.5455C12.9091 17.0475 12.5021 17.4545 12 17.4545C11.4979 17.4545 11.0909 17.0475 11.0909 16.5455V14.7273C11.0909 14.2252 11.4979 13.8182 12 13.8182Z" fill="#000001"/>
</svg>
