<svg width="19" height="22" viewBox="0 0 19 22" fill="none" xmlns="http://www.w3.org/2000/svg">
<path d="M13.6898 0.112854C13.7405 0.112854 13.7912 0.112854 13.8447 0.112854C13.969 1.64842 13.3829 2.79578 12.6706 3.62667C11.9716 4.45182 11.0145 5.25211 9.46655 5.13068C9.36328 3.61711 9.95035 2.55484 10.6617 1.72586C11.3215 0.953302 12.531 0.265837 13.6898 0.112854Z" fill="black"/>
<path d="M18.3759 16.0957C18.3759 16.111 18.3759 16.1244 18.3759 16.1387C17.9408 17.4563 17.3203 18.5855 16.563 19.6334C15.8717 20.5847 15.0246 21.865 13.512 21.865C12.2049 21.865 11.3367 21.0246 9.99719 21.0016C8.58019 20.9787 7.80094 21.7044 6.50537 21.887C6.35717 21.887 6.20896 21.887 6.06363 21.887C5.11227 21.7493 4.34449 20.9959 3.78515 20.317C2.1358 18.311 0.861268 15.7199 0.624146 12.404C0.624146 12.0789 0.624146 11.7548 0.624146 11.4297C0.72454 9.05656 1.87765 7.12707 3.41034 6.19196C4.21923 5.69477 5.33123 5.2712 6.56943 5.46051C7.10009 5.54274 7.64222 5.72441 8.11742 5.90416C8.56776 6.07723 9.13093 6.38415 9.66446 6.36789C10.0259 6.35737 10.3854 6.16902 10.7497 6.03611C11.8167 5.65079 12.8627 5.20905 14.2415 5.41653C15.8985 5.66704 17.0745 6.40327 17.8012 7.53917C16.3995 8.43124 15.2913 9.77558 15.4807 12.0713C15.6489 14.1566 16.8613 15.3766 18.3759 16.0957Z" fill="black"/>
</svg>
