<svg width="23" height="22" viewBox="0 0 23 22" fill="none" xmlns="http://www.w3.org/2000/svg">
<g clip-path="url(#clip0_643_1473)">
<path d="M22.1276 11.2036C22.1276 10.3115 22.0552 9.66056 21.8986 8.98547H11.7119V13.0119H17.6913C17.5708 14.0125 16.9198 15.5194 15.4731 16.532L15.4528 16.6668L18.6737 19.1619L18.8968 19.1842C20.9462 17.2915 22.1276 14.5067 22.1276 11.2036Z" fill="#4285F4"/>
<path d="M11.712 21.8122C14.6413 21.8122 17.1006 20.8477 18.8969 19.1842L15.4732 16.532C14.557 17.1709 13.3273 17.6169 11.712 17.6169C8.84283 17.6169 6.4077 15.7243 5.53964 13.1083L5.4124 13.1191L2.06333 15.711L2.01953 15.8328C3.80369 19.377 7.46848 21.8122 11.712 21.8122Z" fill="#34A853"/>
<path d="M5.53968 13.1085C5.31064 12.4334 5.17808 11.71 5.17808 10.9626C5.17808 10.2151 5.31064 9.49186 5.52763 8.81678L5.52157 8.673L2.13053 6.03949L2.01958 6.09226C1.28424 7.56302 0.862305 9.21462 0.862305 10.9626C0.862305 12.7106 1.28424 14.3621 2.01958 15.8329L5.53968 13.1085Z" fill="#FBBC05"/>
<path d="M11.712 4.3081C13.7493 4.3081 15.1235 5.18813 15.9071 5.92355L18.9692 2.93384C17.0886 1.18583 14.6413 0.112915 11.712 0.112915C7.46848 0.112915 3.80369 2.54805 2.01953 6.09226L5.52759 8.81677C6.4077 6.2008 8.84283 4.3081 11.712 4.3081Z" fill="#EB4335"/>
</g>
<defs>
<clipPath id="clip0_643_1473">
<rect width="21.7742" height="21.7742" fill="white" transform="translate(0.612915 0.112976)"/>
</clipPath>
</defs>
</svg>
