<svg width="20" height="20" viewBox="0 0 20 20" fill="none" xmlns="http://www.w3.org/2000/svg">
<path fill-rule="evenodd" clip-rule="evenodd" d="M8.33337 10.0007C8.33337 9.08018 9.07957 8.33398 10 8.33398C10.9205 8.33398 11.6667 9.08018 11.6667 10.0007C11.6667 10.9211 10.9205 11.6673 10 11.6673C9.07957 11.6673 8.33337 10.9211 8.33337 10.0007Z" fill="#C1C4C9"/>
<path fill-rule="evenodd" clip-rule="evenodd" d="M3.3335 10.0007C3.3335 9.08018 4.07969 8.33398 5.00016 8.33398C5.92064 8.33398 6.66683 9.08018 6.66683 10.0007C6.66683 10.9211 5.92064 11.6673 5.00016 11.6673C4.07969 11.6673 3.3335 10.9211 3.3335 10.0007Z" fill="#C1C4C9"/>
<path fill-rule="evenodd" clip-rule="evenodd" d="M13.3336 10.0007C13.3336 9.08018 14.0798 8.33398 15.0003 8.33398C15.9208 8.33398 16.667 9.08018 16.667 10.0007C16.667 10.9211 15.9208 11.6673 15.0003 11.6673C14.0798 11.6673 13.3336 10.9211 13.3336 10.0007Z" fill="#C1C4C9"/>
</svg>
