<svg width="32" height="32" viewBox="0 0 32 32" fill="none" xmlns="http://www.w3.org/2000/svg">
<path fill-rule="evenodd" clip-rule="evenodd" d="M22.2762 9.72402C22.7969 10.2447 22.7969 11.0889 22.2762 11.6096L11.219 22.6668C10.1776 23.7082 8.48919 23.7082 7.4478 22.6668L8.39061 21.724L7.4478 22.6668L3.05727 18.2763C2.53657 17.7556 2.53657 16.9114 3.05727 16.3907C3.57797 15.87 4.42219 15.87 4.94289 16.3907L9.33341 20.7812L20.3906 9.72402C20.9113 9.20332 21.7555 9.20332 22.2762 9.72402ZM28.9429 9.72402C29.4636 10.2447 29.4636 11.0889 28.9429 11.6096L16.9429 23.6096C16.4222 24.1303 15.578 24.1303 15.0573 23.6096C14.5366 23.0889 14.5366 22.2447 15.0573 21.724L27.0573 9.72402C27.578 9.20332 28.4222 9.20332 28.9429 9.72402Z" fill="#0FAF62"/>
</svg>
