<svg width="24" height="24" viewBox="0 0 24 24" fill="none" xmlns="http://www.w3.org/2000/svg">
<path d="M2 12C2 6.47715 6.47715 2 12 2V2C17.5228 2 22 6.47715 22 12V12C22 17.5228 17.5228 22 12 22V22C6.47715 22 2 17.5228 2 12V12Z" fill="#58CC02"/>
<path fill-rule="evenodd" clip-rule="evenodd" d="M18.4226 7.24408C18.748 7.56951 18.748 8.09715 18.4226 8.42259L10.6785 16.1667C10.0276 16.8175 8.97236 16.8175 8.32149 16.1667L4.74408 12.5893C4.41864 12.2638 4.41864 11.7362 4.74408 11.4107C5.06951 11.0853 5.59715 11.0853 5.92259 11.4107L9.5 14.9882L17.2441 7.24408C17.5695 6.91864 18.0972 6.91864 18.4226 7.24408Z" fill="white"/>
</svg>
