<svg width="20" height="17" viewBox="0 0 20 17" fill="none" xmlns="http://www.w3.org/2000/svg">
<path fill-rule="evenodd" clip-rule="evenodd" d="M8.33334 4.66667C8.33334 2.36548 10.1988 0.5 12.5 0.5C14.8012 0.5 16.6667 2.36548 16.6667 4.66667C16.6667 6.96785 14.8012 8.83333 12.5 8.83333C10.1988 8.83333 8.33334 6.96785 8.33334 4.66667ZM12.5 2.16667C11.1193 2.16667 10 3.28595 10 4.66667C10 6.04738 11.1193 7.16667 12.5 7.16667C13.8807 7.16667 15 6.04738 15 4.66667C15 3.28595 13.8807 2.16667 12.5 2.16667Z" fill="#1152F4"/>
<path d="M4.16668 4.66667C4.62691 4.66667 5.00001 5.03976 5.00001 5.5V7.16667H6.66668C7.12691 7.16667 7.50001 7.53976 7.50001 8C7.50001 8.46024 7.12691 8.83333 6.66668 8.83333H5.00001V10.5C5.00001 10.9602 4.62691 11.3333 4.16668 11.3333C3.70644 11.3333 3.33334 10.9602 3.33334 10.5V8.83333H1.66668C1.20644 8.83333 0.833344 8.46024 0.833344 8C0.833344 7.53976 1.20644 7.16667 1.66668 7.16667H3.33334V5.5C3.33334 5.03976 3.70644 4.66667 4.16668 4.66667Z" fill="#1152F4"/>
<path fill-rule="evenodd" clip-rule="evenodd" d="M12.5 9.66667C10.8385 9.66667 9.24621 9.87852 8.03702 10.4155C6.80431 10.9628 5.83334 11.9285 5.83334 13.4167C5.83334 13.8056 5.90438 14.2482 6.16894 14.6702C6.43348 15.0922 6.83989 15.4116 7.36485 15.6491C8.37241 16.1049 9.9866 16.3333 12.5 16.3333C15.0134 16.3333 16.6276 16.1049 17.6352 15.6491C18.1601 15.4116 18.5665 15.0922 18.8311 14.6702C19.0956 14.2482 19.1667 13.8056 19.1667 13.4167C19.1667 11.9285 18.1957 10.9628 16.963 10.4155C15.7538 9.87852 14.1615 9.66667 12.5 9.66667ZM7.50001 13.4167C7.50001 12.8215 7.83488 12.3288 8.71342 11.9387C9.61548 11.5381 10.9399 11.3333 12.5 11.3333C14.0601 11.3333 15.3845 11.5381 16.2866 11.9387C17.1651 12.3288 17.5 12.8215 17.5 13.4167C17.5 13.603 17.4669 13.7085 17.4189 13.785C17.371 13.8615 17.2566 13.991 16.9482 14.1306C16.2891 14.4287 14.9866 14.6667 12.5 14.6667C10.0134 14.6667 8.71095 14.4287 8.05183 14.1306C7.74346 13.991 7.62904 13.8615 7.58108 13.785C7.53314 13.7085 7.50001 13.603 7.50001 13.4167Z" fill="#1152F4"/>
</svg>
