<svg width="21" height="20" viewBox="0 0 21 20" fill="none" xmlns="http://www.w3.org/2000/svg">
<path fill-rule="evenodd" clip-rule="evenodd" d="M8.92106 6.44737C8.92106 4.2673 10.6884 2.5 12.8684 2.5C15.0485 2.5 16.8158 4.2673 16.8158 6.44737C16.8158 8.62744 15.0485 10.3947 12.8684 10.3947C10.6884 10.3947 8.92106 8.62744 8.92106 6.44737ZM12.8684 4.07895C11.5604 4.07895 10.5 5.13933 10.5 6.44737C10.5 7.75541 11.5604 8.81579 12.8684 8.81579C14.1765 8.81579 15.2368 7.75541 15.2368 6.44737C15.2368 5.13933 14.1765 4.07895 12.8684 4.07895Z" fill="#374151"/>
<path d="M4.97369 6.44737C5.40971 6.44737 5.76316 6.80083 5.76316 7.23684V8.81579H7.34211C7.77813 8.81579 8.13159 9.16925 8.13159 9.60526C8.13159 10.0413 7.77813 10.3947 7.34211 10.3947H5.76316V11.9737C5.76316 12.4097 5.40971 12.7632 4.97369 12.7632C4.53768 12.7632 4.18422 12.4097 4.18422 11.9737V10.3947H2.60527C2.16926 10.3947 1.8158 10.0413 1.8158 9.60526C1.8158 9.16925 2.16926 8.81579 2.60527 8.81579H4.18422V7.23684C4.18422 6.80083 4.53768 6.44737 4.97369 6.44737Z" fill="#374151"/>
<path fill-rule="evenodd" clip-rule="evenodd" d="M12.8684 11.1842C11.2943 11.1842 9.78588 11.3849 8.64033 11.8936C7.4725 12.4122 6.55264 13.327 6.55264 14.7368C6.55264 15.1053 6.61993 15.5246 6.87058 15.9244C7.12119 16.3242 7.50621 16.6267 8.00354 16.8517C8.95807 17.2836 10.4873 17.5 12.8684 17.5C15.2496 17.5 16.7788 17.2836 17.7333 16.8517C18.2306 16.6267 18.6157 16.3242 18.8663 15.9244C19.1169 15.5246 19.1842 15.1053 19.1842 14.7368C19.1842 13.327 18.2644 12.4122 17.0965 11.8936C15.951 11.3849 14.4425 11.1842 12.8684 11.1842ZM8.13159 14.7368C8.13159 14.173 8.44883 13.7063 9.28113 13.3367C10.1357 12.9572 11.3904 12.7632 12.8684 12.7632C14.3464 12.7632 15.6011 12.9572 16.4557 13.3367C17.288 13.7063 17.6053 14.173 17.6053 14.7368C17.6053 14.9134 17.5739 15.0133 17.5285 15.0858C17.483 15.1582 17.3746 15.281 17.0825 15.4132C16.4581 15.6957 15.2241 15.9211 12.8684 15.9211C10.5127 15.9211 9.27879 15.6957 8.65437 15.4132C8.36222 15.281 8.25382 15.1582 8.20838 15.0858C8.16297 15.0133 8.13159 14.9134 8.13159 14.7368Z" fill="#374151"/>
</svg>
