<svg width="24" height="24" viewBox="0 0 24 24" fill="none" xmlns="http://www.w3.org/2000/svg">
<path fill-rule="evenodd" clip-rule="evenodd" d="M10.2 8.40039C10.2 5.91511 12.2147 3.90039 14.7 3.90039C17.1853 3.90039 19.2 5.91511 19.2 8.40039C19.2 10.8857 17.1853 12.9004 14.7 12.9004C12.2147 12.9004 10.2 10.8857 10.2 8.40039ZM14.7 5.70039C13.2088 5.70039 12 6.90922 12 8.40039C12 9.89156 13.2088 11.1004 14.7 11.1004C16.1911 11.1004 17.4 9.89156 17.4 8.40039C17.4 6.90922 16.1911 5.70039 14.7 5.70039Z" fill="#58CC02"/>
<path d="M5.69998 8.40039C6.19703 8.40039 6.59998 8.80333 6.59998 9.30039V11.1004H8.39998C8.89703 11.1004 9.29998 11.5033 9.29998 12.0004C9.29998 12.4974 8.89703 12.9004 8.39998 12.9004H6.59998V14.7004C6.59998 15.1974 6.19703 15.6004 5.69998 15.6004C5.20292 15.6004 4.79998 15.1974 4.79998 14.7004V12.9004H2.99998C2.50292 12.9004 2.09998 12.4974 2.09998 12.0004C2.09998 11.5033 2.50292 11.1004 2.99998 11.1004H4.79998V9.30039C4.79998 8.80333 5.20292 8.40039 5.69998 8.40039Z" fill="#58CC02"/>
<path fill-rule="evenodd" clip-rule="evenodd" d="M14.7 13.8004C12.9055 13.8004 11.1859 14.0292 9.87995 14.6091C8.54862 15.2003 7.49998 16.2432 7.49998 17.8504C7.49998 18.2704 7.57669 18.7484 7.86243 19.2042C8.14813 19.66 8.58705 20.0049 9.154 20.2614C10.2422 20.7537 11.9855 21.0004 14.7 21.0004C17.4145 21.0004 19.1578 20.7537 20.2459 20.2614C20.8129 20.0049 21.2518 19.66 21.5375 19.2042C21.8233 18.7484 21.9 18.2704 21.9 17.8504C21.9 16.2432 20.8513 15.2003 19.52 14.6091C18.2141 14.0292 16.4944 13.8004 14.7 13.8004ZM9.29998 17.8504C9.29998 17.2076 9.66163 16.6755 10.6105 16.2542C11.5847 15.8216 13.015 15.6004 14.7 15.6004C16.3849 15.6004 17.8153 15.8216 18.7895 16.2542C19.7383 16.6755 20.1 17.2076 20.1 17.8504C20.1 18.0517 20.0642 18.1656 20.0124 18.2482C19.9606 18.3308 19.837 18.4707 19.504 18.6214C18.7922 18.9434 17.3855 19.2004 14.7 19.2004C12.0145 19.2004 10.6078 18.9434 9.89595 18.6214C9.5629 18.4707 9.43933 18.3308 9.38753 18.2482C9.33576 18.1656 9.29998 18.0517 9.29998 17.8504Z" fill="#58CC02"/>
</svg>
