<svg width="32" height="32" viewBox="0 0 32 32" fill="none" xmlns="http://www.w3.org/2000/svg">
<path fill-rule="evenodd" clip-rule="evenodd" d="M13.3334 10.6667C13.3334 6.98477 16.3181 4 20 4C23.6819 4 26.6667 6.98477 26.6667 10.6667C26.6667 14.3486 23.6819 17.3333 20 17.3333C16.3181 17.3333 13.3334 14.3486 13.3334 10.6667ZM20 6.66667C17.7909 6.66667 16 8.45753 16 10.6667C16 12.8758 17.7909 14.6667 20 14.6667C22.2092 14.6667 24 12.8758 24 10.6667C24 8.45753 22.2092 6.66667 20 6.66667Z" fill="#0FAF62"/>
<path d="M6.66671 10.6667C7.40309 10.6667 8.00004 11.2636 8.00004 12V14.6667H10.6667C11.4031 14.6667 12 15.2636 12 16C12 16.7364 11.4031 17.3333 10.6667 17.3333H8.00004V20C8.00004 20.7364 7.40309 21.3333 6.66671 21.3333C5.93033 21.3333 5.33337 20.7364 5.33337 20V17.3333H2.66671C1.93033 17.3333 1.33337 16.7364 1.33337 16C1.33337 15.2636 1.93033 14.6667 2.66671 14.6667H5.33337V12C5.33337 11.2636 5.93033 10.6667 6.66671 10.6667Z" fill="#0FAF62"/>
<path fill-rule="evenodd" clip-rule="evenodd" d="M20 18.6667C17.3416 18.6667 14.794 19.0056 12.8593 19.8647C10.8869 20.7406 9.33337 22.2856 9.33337 24.6667C9.33337 25.2889 9.44703 25.9971 9.87034 26.6724C10.2936 27.3475 10.9439 27.8585 11.7838 28.2385C13.3959 28.9678 15.9786 29.3333 20 29.3333C24.0215 29.3333 26.6042 28.9678 28.2163 28.2385C29.0562 27.8585 29.7065 27.3475 30.1297 26.6724C30.5531 25.9971 30.6667 25.2889 30.6667 24.6667C30.6667 22.2856 29.1132 20.7406 27.1408 19.8647C25.2061 19.0056 22.6585 18.6667 20 18.6667ZM12 24.6667C12 23.7144 12.5358 22.9261 13.9415 22.3019C15.3848 21.661 17.5038 21.3333 20 21.3333C22.4963 21.3333 24.6153 21.661 26.0586 22.3019C27.4643 22.9261 28 23.7144 28 24.6667C28 24.9649 27.947 25.1336 27.8703 25.256C27.7936 25.3784 27.6105 25.5857 27.1171 25.8089C26.0625 26.286 23.9786 26.6667 20 26.6667C16.0215 26.6667 13.9375 26.286 12.883 25.8089C12.3896 25.5857 12.2065 25.3784 12.1297 25.256C12.0531 25.1336 12 24.9649 12 24.6667Z" fill="#0FAF62"/>
</svg>
