<svg width="48" height="48" viewBox="0 0 48 48" fill="none" xmlns="http://www.w3.org/2000/svg">
<g clip-path="url(#clip0_4790_25549)">
<path d="M0 24C0 10.7452 10.7452 0 24 0C37.2548 0 48 10.7452 48 24C48 37.2548 37.2548 48 24 48C10.7452 48 0 37.2548 0 24Z" fill="#CFDCFD"/>
<g clip-path="url(#clip1_4790_25549)">
<path d="M24 33.4267C26.475 33.4267 28.7625 32.7292 30.5925 31.5442C32.01 30.6367 33.855 30.7867 35.1 31.9192C38.5575 35.0543 40.5225 39.5018 40.515 44.1743V46.1768C40.515 48.2468 38.835 49.9193 36.765 49.9193H11.235C9.16501 49.9193 7.48501 48.2468 7.48501 46.1768V44.1743C7.47001 39.5093 9.43501 35.0543 12.8925 31.9267C14.1375 30.7942 15.99 30.6442 17.4 31.5517C19.2375 32.7292 21.5175 33.4267 24 33.4267Z" fill="#4175F6"/>
<path d="M24 30.0895C29.128 30.0895 33.285 25.9325 33.285 20.8045C33.285 15.6766 29.128 11.5195 24 11.5195C18.8721 11.5195 14.715 15.6766 14.715 20.8045C14.715 25.9325 18.8721 30.0895 24 30.0895Z" fill="#4175F6"/>
</g>
</g>
<defs>
<clipPath id="clip0_4790_25549">
<path d="M0 24C0 10.7452 10.7452 0 24 0C37.2548 0 48 10.7452 48 24C48 37.2548 37.2548 48 24 48C10.7452 48 0 37.2548 0 24Z" fill="white"/>
</clipPath>
<clipPath id="clip1_4790_25549">
<rect width="38.4" height="38.4" fill="white" transform="translate(4.79999 11.5195)"/>
</clipPath>
</defs>
</svg>
