<svg width="50" height="50" viewBox="0 0 50 50" fill="none" xmlns="http://www.w3.org/2000/svg">
<g clip-path="url(#clip0_4843_11404)">
<path d="M0 12C0 5.37258 5.37258 0 12 0H38C44.6274 0 50 5.37258 50 12V38C50 44.6274 44.6274 50 38 50H12C5.37258 50 0 44.6274 0 38V12Z" fill="#CFDCFD"/>
<path d="M25 34.8203C27.5781 34.8203 29.9609 34.0937 31.8672 32.8594C33.3437 31.9141 35.2656 32.0703 36.5625 33.25C40.1641 36.5156 42.2109 41.1484 42.2031 46.0156V48.1016C42.2031 50.2578 40.4531 52 38.2969 52H11.7031C9.54688 52 7.79688 50.2578 7.79688 48.1016V46.0156C7.78125 41.1562 9.82813 36.5156 13.4297 33.2578C14.7266 32.0781 16.6562 31.9219 18.125 32.8672C20.0391 34.0937 22.4141 34.8203 25 34.8203Z" fill="#4175F6"/>
<path d="M25 31.3438C30.3416 31.3438 34.6719 27.0135 34.6719 21.6719C34.6719 16.3302 30.3416 12 25 12C19.6584 12 15.3281 16.3302 15.3281 21.6719C15.3281 27.0135 19.6584 31.3438 25 31.3438Z" fill="#4175F6"/>
</g>
<defs>
<clipPath id="clip0_4843_11404">
<path d="M0 12C0 5.37258 5.37258 0 12 0H38C44.6274 0 50 5.37258 50 12V38C50 44.6274 44.6274 50 38 50H12C5.37258 50 0 44.6274 0 38V12Z" fill="white"/>
</clipPath>
</defs>
</svg>
