<svg width="104" height="104" viewBox="0 0 104 104" fill="none" xmlns="http://www.w3.org/2000/svg">
<path d="M0 24C0 10.7452 10.7452 0 24 0H80C93.2548 0 104 10.7452 104 24V80C104 93.2548 93.2548 104 80 104H24C10.7452 104 0 93.2548 0 80V24Z" fill="#CFDCFD"/>
<path d="M73.7646 73C73.7646 73.7957 73.4395 74.5587 72.8607 75.1213C72.2819 75.6839 71.4969 76 70.6784 76H33.6436C32.8251 76 32.0401 75.6839 31.4613 75.1213C30.8825 74.5587 30.5574 73.7957 30.5574 73C30.5574 68.2261 32.5083 63.6477 35.981 60.2721C39.4537 56.8964 44.1636 55 49.0748 55H55.2472C60.1583 55 64.8683 56.8964 68.341 60.2721C71.8137 63.6477 73.7646 68.2261 73.7646 73ZM52.161 28C49.7194 28 47.3326 28.7038 45.3025 30.0224C43.2724 31.3409 41.6901 33.2151 40.7558 35.4078C39.8214 37.6005 39.5769 40.0133 40.0533 42.3411C40.5296 44.6689 41.7053 46.8071 43.4318 48.4853C45.1583 50.1635 47.3579 51.3064 49.7526 51.7694C52.1473 52.2324 54.6294 51.9948 56.8852 51.0866C59.1409 50.1783 61.0689 48.6402 62.4254 46.6668C63.7819 44.6935 64.5059 42.3734 64.5059 40C64.5059 36.8174 63.2053 33.7652 60.8902 31.5147C58.575 29.2643 55.4351 28 52.161 28ZM24.3849 28C21.9433 28 19.5565 28.7038 17.5264 30.0224C15.4963 31.3409 13.914 33.2151 12.9797 35.4078C12.0453 37.6005 11.8008 40.0133 12.2772 42.3411C12.7535 44.6689 13.9292 46.8071 15.6557 48.4853C17.3822 50.1635 19.5818 51.3064 21.9765 51.7694C24.3712 52.2324 26.8534 51.9948 29.1091 51.0866C31.3648 50.1783 33.2928 48.6402 34.6493 46.6668C36.0058 44.6935 36.7298 42.3734 36.7298 40C36.7298 36.8174 35.4292 33.7652 33.1141 31.5147C30.799 29.2643 27.659 28 24.3849 28ZM24.3849 73C24.3803 69.8488 25.019 66.7281 26.2639 63.8186C27.5089 60.909 29.3353 58.2685 31.6375 56.05C29.7535 55.3586 27.7567 55.0029 25.7428 55H23.0269C18.4785 55.0079 14.1186 56.7678 10.9024 59.8942C7.68614 63.0206 5.87565 67.2586 5.86749 71.68V73C5.86749 73.7957 6.19265 74.5587 6.77143 75.1213C7.35021 75.6839 8.13521 76 8.95373 76H24.9404C24.5811 75.038 24.3932 74.0234 24.3849 73Z" fill="#4175F6"/>
<path d="M30.5573 72.9531C30.5573 73.7488 30.8825 74.5118 31.4613 75.0744C32.0401 75.6371 32.8251 75.9531 33.6436 75.9531H70.6784C71.4969 75.9531 72.2819 75.6371 72.8607 75.0744C73.4394 74.5118 73.7646 73.7488 73.7646 72.9531C73.7646 68.1792 71.8137 63.6009 68.341 60.2252C64.8683 56.8495 60.1583 54.9531 55.2472 54.9531H49.0747C44.1636 54.9531 39.4536 56.8495 35.981 60.2252C32.5083 63.6009 30.5573 68.1792 30.5573 72.9531ZM52.161 27.9531C54.6026 27.9531 56.9893 28.6569 59.0194 29.9755C61.0496 31.2941 62.6318 33.1682 63.5662 35.3609C64.5006 37.5536 64.745 39.9664 64.2687 42.2942C63.7924 44.622 62.6166 46.7602 60.8902 48.4384C59.1637 50.1166 56.964 51.2595 54.5694 51.7225C52.1747 52.1856 49.6925 51.9479 47.4368 51.0397C45.181 50.1314 43.253 48.5934 41.8965 46.62C40.5401 44.6466 39.816 42.3265 39.816 39.9531C39.816 36.7705 41.1167 33.7183 43.4318 31.4678C45.7469 29.2174 48.8869 27.9531 52.161 27.9531ZM79.9371 27.9531C82.3787 27.9531 84.7654 28.6569 86.7955 29.9755C88.8257 31.2941 90.4079 33.1682 91.3423 35.3609C92.2767 37.5536 92.5211 39.9664 92.0448 42.2942C91.5685 44.622 90.3927 46.7602 88.6663 48.4384C86.9398 50.1166 84.7401 51.2595 82.3454 51.7225C79.9508 52.1856 77.4686 51.9479 75.2129 51.0397C72.9571 50.1314 71.0291 48.5934 69.6726 46.62C68.3162 44.6466 67.5921 42.3265 67.5921 39.9531C67.5921 36.7705 68.8928 33.7183 71.2079 31.4678C73.523 29.2174 76.663 27.9531 79.9371 27.9531ZM79.9371 72.9531C79.9417 69.802 79.303 66.6812 78.058 63.7717C76.8131 60.8621 74.9866 58.2216 72.6844 56.0031C74.5685 55.3117 76.5653 54.956 78.5791 54.9531H81.295C85.8435 54.9611 90.2033 56.721 93.4196 59.8473C96.6358 62.9737 98.4463 67.2118 98.4545 71.6331V72.9531C98.4545 73.7488 98.1293 74.5118 97.5505 75.0744C96.9718 75.6371 96.1868 75.9531 95.3682 75.9531H79.3815C79.7409 74.9911 79.9287 73.9766 79.9371 72.9531Z" fill="#4175F6"/>
</svg>
