<svg width="20" height="20" viewBox="0 0 20 20" fill="none" xmlns="http://www.w3.org/2000/svg">
<path fill-rule="evenodd" clip-rule="evenodd" d="M8.18182 5.90874C8.18182 3.39835 10.2169 1.36328 12.7273 1.36328C15.2377 1.36328 17.2727 3.39835 17.2727 5.90874C17.2727 8.41912 15.2377 10.4542 12.7273 10.4542C10.2169 10.4542 8.18182 8.41912 8.18182 5.90874ZM12.7273 3.18146C11.221 3.18146 10 4.40251 10 5.90874C10 7.41497 11.221 8.63601 12.7273 8.63601C14.2335 8.63601 15.4545 7.41497 15.4545 5.90874C15.4545 4.40251 14.2335 3.18146 12.7273 3.18146Z" fill="#FF3D54"/>
<path d="M0 9.5451C0 9.04302 0.407014 8.63601 0.909091 8.63601H6.36364C6.86571 8.63601 7.27273 9.04302 7.27273 9.5451C7.27273 10.0472 6.86571 10.4542 6.36364 10.4542H0.909091C0.407014 10.4542 0 10.0472 0 9.5451Z" fill="#FF3D54"/>
<path fill-rule="evenodd" clip-rule="evenodd" d="M12.7273 11.3633C10.9147 11.3633 9.17767 11.5944 7.85856 12.1802C6.51378 12.7773 5.45455 13.8307 5.45455 15.4542C5.45455 15.8785 5.53204 16.3613 5.82066 16.8217C6.10924 17.2821 6.5526 17.6304 7.12528 17.8895C8.22443 18.3868 9.98537 18.636 12.7273 18.636C15.4692 18.636 17.2301 18.3868 18.3293 17.8895C18.9019 17.6304 19.3453 17.2821 19.6339 16.8217C19.9225 16.3613 20 15.8785 20 15.4542C20 13.8307 18.9408 12.7773 17.596 12.1802C16.2769 11.5944 14.5398 11.3633 12.7273 11.3633ZM7.27273 15.4542C7.27273 14.8049 7.63804 14.2675 8.59644 13.8419C9.58052 13.4049 11.0253 13.1815 12.7273 13.1815C14.4292 13.1815 15.874 13.4049 16.8581 13.8419C17.8165 14.2675 18.1818 14.8049 18.1818 15.4542C18.1818 15.6575 18.1457 15.7726 18.0934 15.856C18.0411 15.9394 17.9162 16.0808 17.5798 16.233C16.8608 16.5583 15.4399 16.8178 12.7273 16.8178C10.0146 16.8178 8.59375 16.5583 7.87472 16.233C7.53831 16.0808 7.41349 15.9394 7.36116 15.856C7.30887 15.7726 7.27273 15.6575 7.27273 15.4542Z" fill="#FF3D54"/>
<path d="M4.54547 6.27246L6.69076 8.84681C7.02789 9.25136 7.02789 9.83901 6.69076 10.2436L4.54547 12.8179" stroke="#FF3D54" stroke-width="1.5" stroke-linecap="round"/>
</svg>
