<svg width="32" height="32" viewBox="0 0 32 32" fill="none" xmlns="http://www.w3.org/2000/svg">
<path fill-rule="evenodd" clip-rule="evenodd" d="M13.3333 10.6667C13.3333 6.98477 16.3181 4 20 4C23.6819 4 26.6666 6.98477 26.6666 10.6667C26.6666 14.3486 23.6819 17.3333 20 17.3333C16.3181 17.3333 13.3333 14.3486 13.3333 10.6667ZM20 6.66667C17.7908 6.66667 16 8.45753 16 10.6667C16 12.8758 17.7908 14.6667 20 14.6667C22.2091 14.6667 24 12.8758 24 10.6667C24 8.45753 22.2091 6.66667 20 6.66667Z" fill="#D50000"/>
<path d="M10.4379 12.2288C10.9586 12.7495 10.9586 13.5937 10.4379 14.1144L8.55226 16L10.4379 17.8856C10.9586 18.4063 10.9586 19.2505 10.4379 19.7712C9.91718 20.2919 9.07296 20.2919 8.55226 19.7712L6.66664 17.8856L4.78103 19.7712C4.26033 20.2919 3.41611 20.2919 2.89541 19.7712C2.37471 19.2505 2.37471 18.4063 2.89541 17.8856L4.78103 16L2.89541 14.1144C2.37471 13.5937 2.37471 12.7495 2.89541 12.2288C3.41611 11.7081 4.26033 11.7081 4.78103 12.2288L6.66664 14.1144L8.55226 12.2288C9.07296 11.7081 9.91718 11.7081 10.4379 12.2288Z" fill="#D50000"/>
<path fill-rule="evenodd" clip-rule="evenodd" d="M20 18.6667C17.3415 18.6667 14.7939 19.0056 12.8592 19.8647C10.8869 20.7406 9.33331 22.2856 9.33331 24.6667C9.33331 25.2889 9.44696 25.9971 9.87027 26.6724C10.2935 27.3475 10.9438 27.8585 11.7837 28.2385C13.3958 28.9678 15.9785 29.3333 20 29.3333C24.0214 29.3333 26.6041 28.9678 28.2162 28.2385C29.0562 27.8585 29.7064 27.3475 30.1297 26.6724C30.553 25.9971 30.6666 25.2889 30.6666 24.6667C30.6666 22.2856 29.1131 20.7406 27.1408 19.8647C25.2061 19.0056 22.6584 18.6667 20 18.6667ZM12 24.6667C12 23.7144 12.5358 22.9261 13.9414 22.3019C15.3847 21.661 17.5038 21.3333 20 21.3333C22.4962 21.3333 24.6152 21.661 26.0585 22.3019C27.4642 22.9261 28 23.7144 28 24.6667C28 24.9649 27.947 25.1336 27.8703 25.256C27.7935 25.3784 27.6105 25.5857 27.1171 25.8089C26.0625 26.286 23.9785 26.6667 20 26.6667C16.0214 26.6667 13.9375 26.286 12.8829 25.8089C12.3895 25.5857 12.2064 25.3784 12.1297 25.256C12.053 25.1336 12 24.9649 12 24.6667Z" fill="#D50000"/>
</svg>
