<svg width="24" height="24" viewBox="0 0 24 24" fill="none" xmlns="http://www.w3.org/2000/svg">
<path fill-rule="evenodd" clip-rule="evenodd" d="M10.1999 8.40039C10.1999 5.91511 12.2147 3.90039 14.6999 3.90039C17.1852 3.90039 19.1999 5.91511 19.1999 8.40039C19.1999 10.8857 17.1852 12.9004 14.6999 12.9004C12.2147 12.9004 10.1999 10.8857 10.1999 8.40039ZM14.6999 5.70039C13.2088 5.70039 11.9999 6.90922 11.9999 8.40039C11.9999 9.89156 13.2088 11.1004 14.6999 11.1004C16.1911 11.1004 17.3999 9.89156 17.3999 8.40039C17.3999 6.90922 16.1911 5.70039 14.6999 5.70039Z" fill="#FF3D54"/>
<path d="M8.24552 9.4548C8.59699 9.80627 8.59699 10.3761 8.24552 10.7276L6.97273 12.0004L8.24552 13.2732C8.59699 13.6247 8.59699 14.1945 8.24552 14.546C7.89405 14.8974 7.3242 14.8974 6.97273 14.546L5.69994 13.2732L4.42714 14.546C4.07567 14.8974 3.50582 14.8974 3.15435 14.546C2.80288 14.1945 2.80288 13.6247 3.15435 13.2732L4.42714 12.0004L3.15435 10.7276C2.80288 10.3761 2.80288 9.80627 3.15435 9.4548C3.50582 9.10333 4.07567 9.10333 4.42714 9.4548L5.69994 10.7276L6.97273 9.4548C7.3242 9.10333 7.89405 9.10333 8.24552 9.4548Z" fill="#FF3D54"/>
<path fill-rule="evenodd" clip-rule="evenodd" d="M14.6999 13.8004C12.9055 13.8004 11.1858 14.0292 9.87991 14.6091C8.54858 15.2003 7.49994 16.2432 7.49994 17.8504C7.49994 18.2704 7.57665 18.7484 7.86239 19.2042C8.14809 19.66 8.58701 20.0049 9.15396 20.2614C10.2421 20.7537 11.9855 21.0004 14.6999 21.0004C17.4144 21.0004 19.1577 20.7537 20.2459 20.2614C20.8129 20.0049 21.2518 19.66 21.5375 19.2042C21.8232 18.7484 21.8999 18.2704 21.8999 17.8504C21.8999 16.2432 20.8513 15.2003 19.52 14.6091C18.214 14.0292 16.4944 13.8004 14.6999 13.8004ZM9.29994 17.8504C9.29994 17.2076 9.66159 16.6755 10.6104 16.2542C11.5846 15.8216 13.015 15.6004 14.6999 15.6004C16.3849 15.6004 17.8152 15.8216 18.7895 16.2542C19.7383 16.6755 20.0999 17.2076 20.0999 17.8504C20.0999 18.0517 20.0642 18.1656 20.0124 18.2482C19.9606 18.3308 19.837 18.4707 19.504 18.6214C18.7921 18.9434 17.3855 19.2004 14.6999 19.2004C12.0144 19.2004 10.6077 18.9434 9.89591 18.6214C9.56286 18.4707 9.43929 18.3308 9.38749 18.2482C9.33572 18.1656 9.29994 18.0517 9.29994 17.8504Z" fill="#FF3D54"/>
</svg>
