<svg width="17" height="17" viewBox="0 0 17 17" fill="none" xmlns="http://www.w3.org/2000/svg">
<path fill-rule="evenodd" clip-rule="evenodd" d="M3.74915 3.74897C4.02577 3.47235 4.47427 3.47235 4.75089 3.74897L8.50002 7.4981L12.2492 3.74897C12.5258 3.47235 12.9743 3.47235 13.2509 3.74897C13.5275 4.02559 13.5275 4.47408 13.2509 4.7507L9.50175 8.49984L13.2509 12.249C13.5275 12.5256 13.5275 12.9741 13.2509 13.2507C12.9743 13.5273 12.5258 13.5273 12.2492 13.2507L8.50002 9.50157L4.75089 13.2507C4.47427 13.5273 4.02577 13.5273 3.74915 13.2507C3.47253 12.9741 3.47253 12.5256 3.74915 12.249L7.49829 8.49984L3.74915 4.7507C3.47253 4.47408 3.47253 4.02559 3.74915 3.74897Z" fill="#79808A"/>
</svg>
