<svg width="54" height="54" viewBox="0 0 54 54" fill="none" xmlns="http://www.w3.org/2000/svg">
<rect x="3" y="3" width="48" height="48" rx="11.5" stroke="#EBECEE"/>
<path d="M11.4545 40.5037H17.1818V26.5947L13.4315 20.0459L9 20.4583V38.0492C9 39.4053 10.0984 40.5037 11.4545 40.5037Z" fill="#0085F7"/>
<path d="M36.8181 40.5037H42.5454C43.9015 40.5037 45 39.4053 45 38.0492V20.4583L40.5748 20.0459L36.8182 26.5947V40.5037H36.8181Z" fill="#00A94B"/>
<path d="M36.8181 15.9582L33.4539 22.378L36.8181 26.5946L44.9999 20.4582V17.1855C44.9999 14.1521 41.537 12.4196 39.109 14.2401L36.8181 15.9582Z" fill="#FFBC00"/>
<path fill-rule="evenodd" clip-rule="evenodd" d="M17.1818 26.5949L13.9761 19.8231L17.1818 15.9585L27 23.3221L36.8181 15.9585V26.5949L27 33.9585L17.1818 26.5949Z" fill="#FF4131"/>
<path d="M9 17.1855V20.4582L17.1818 26.5946V15.9582L14.8909 14.2401C12.463 12.4196 9 14.1521 9 17.1855Z" fill="#E51C19"/>
</svg>
