<svg width="16" height="17" viewBox="0 0 16 17" fill="none" xmlns="http://www.w3.org/2000/svg">
<path d="M10.5692 1.83301C10.3123 1.83301 10.1041 2.04125 10.1041 2.29812C10.1041 2.555 10.3123 2.76324 10.5692 2.76324H13.0786L9.53159 6.31032C9.34994 6.49196 9.34994 6.78646 9.53159 6.9681C9.71323 7.14973 10.0077 7.14973 10.1893 6.9681L13.7364 3.42101V5.93046C13.7364 6.18734 13.9447 6.39558 14.2015 6.39558C14.4584 6.39558 14.6667 6.18734 14.6667 5.93046V2.29812C14.6667 2.04125 14.4584 1.83301 14.2015 1.83301H10.5692Z" fill="black" stroke="black" stroke-width="0.416667"/>
<path d="M5.43086 15.1658C5.68774 15.1658 5.89597 14.9576 5.89597 14.7007C5.89597 14.4439 5.68774 14.2356 5.43086 14.2356H2.92141L6.46849 10.6885C6.65013 10.5069 6.65013 10.2124 6.46849 10.0308C6.28686 9.84912 5.99236 9.84912 5.81072 10.0308L2.26364 13.5778V11.0684C2.26364 10.8115 2.0554 10.6033 1.79852 10.6033C1.54165 10.6033 1.3334 10.8115 1.3334 11.0684V14.7007C1.3334 14.9576 1.54165 15.1658 1.79852 15.1658H5.43086Z" fill="black" stroke="black" stroke-width="0.416667"/>
</svg>
