<svg width="20" height="20" viewBox="0 0 20 20" fill="none" xmlns="http://www.w3.org/2000/svg">
<path d="M13.2114 1.66699C12.8903 1.66699 12.63 1.92729 12.63 2.24839C12.63 2.56948 12.8903 2.82978 13.2114 2.82978H16.3482L11.9144 7.26364C11.6873 7.49068 11.6873 7.85881 11.9144 8.08585C12.1414 8.3129 12.5095 8.3129 12.7365 8.08585L17.1704 3.652V6.78881C17.1704 7.10991 17.4307 7.3702 17.7518 7.3702C18.0729 7.3702 18.3332 7.10991 18.3332 6.78881V2.24839C18.3332 1.92729 18.0729 1.66699 17.7518 1.66699H13.2114Z" fill="black" stroke="black" stroke-width="0.416667"/>
<path d="M6.78838 18.3333C7.10948 18.3333 7.36977 18.073 7.36977 17.7519C7.36977 17.4308 7.10948 17.1705 6.78838 17.1705H3.65157L8.08543 12.7366C8.31247 12.5095 8.31247 12.1415 8.08543 11.9144C7.85838 11.6874 7.49026 11.6874 7.26321 11.9144L2.82936 16.3482V13.2115C2.82936 12.8903 2.56905 12.6301 2.24796 12.6301C1.92687 12.6301 1.66656 12.8903 1.66656 13.2115V17.7519C1.66656 18.073 1.92687 18.3333 2.24796 18.3333H6.78838Z" fill="black" stroke="black" stroke-width="0.416667"/>
</svg>
