<svg width="16" height="17" viewBox="0 0 16 17" fill="none" xmlns="http://www.w3.org/2000/svg">
<g clip-path="url(#clip0_3873_11213)">
<path fill-rule="evenodd" clip-rule="evenodd" d="M4.66669 5.83333C4.66669 3.99238 6.15907 2.5 8.00002 2.5C9.84097 2.5 11.3334 3.99238 11.3334 5.83333C11.3334 7.67428 9.84097 9.16667 8.00002 9.16667C6.15907 9.16667 4.66669 7.67428 4.66669 5.83333ZM8.00002 3.83333C6.89545 3.83333 6.00002 4.72876 6.00002 5.83333C6.00002 6.9379 6.89545 7.83333 8.00002 7.83333C9.10459 7.83333 10 6.9379 10 5.83333C10 4.72876 9.10459 3.83333 8.00002 3.83333Z" fill="#374151"/>
<path d="M4.19098 4.47206C4.54375 4.3666 4.74422 3.99513 4.63875 3.64237C4.53328 3.28961 4.16182 3.08914 3.80906 3.1946C2.7133 3.52221 2.00002 4.62827 2.00002 5.83333C2.00002 7.0384 2.7133 8.14446 3.80906 8.47206C4.16182 8.57753 4.53328 8.37706 4.63875 8.0243C4.74422 7.67154 4.54375 7.30007 4.19098 7.1946C3.75321 7.06372 3.33335 6.55274 3.33335 5.83333C3.33335 5.11393 3.75321 4.60295 4.19098 4.47206Z" fill="#374151"/>
<path d="M12.191 3.1946C11.8382 3.08914 11.4668 3.28961 11.3613 3.64237C11.2558 3.99513 11.4563 4.3666 11.8091 4.47206C12.2468 4.60295 12.6667 5.11393 12.6667 5.83333C12.6667 6.55274 12.2468 7.06372 11.8091 7.1946C11.4563 7.30007 11.2558 7.67154 11.3613 8.0243C11.4668 8.37706 11.8382 8.57753 12.191 8.47206C13.2867 8.14446 14 7.0384 14 5.83333C14 4.62827 13.2867 3.52221 12.191 3.1946Z" fill="#374151"/>
<path fill-rule="evenodd" clip-rule="evenodd" d="M8.00002 9.83333C6.6708 9.83333 5.39698 10.0028 4.42963 10.4324C3.44346 10.8703 2.66669 11.6428 2.66669 12.8333C2.66669 13.1445 2.72351 13.4985 2.93517 13.8362C3.1468 14.1738 3.47193 14.4292 3.89189 14.6192C4.69794 14.9839 5.98929 15.1667 8.00002 15.1667C10.0107 15.1667 11.3021 14.9839 12.1081 14.6192C12.5281 14.4292 12.8532 14.1738 13.0649 13.8362C13.2765 13.4985 13.3334 13.1445 13.3334 12.8333C13.3334 11.6428 12.5566 10.8703 11.5704 10.4324C10.6031 10.0028 9.32924 9.83333 8.00002 9.83333ZM4.00002 12.8333C4.00002 12.3572 4.26791 11.9631 4.97075 11.651C5.6924 11.3305 6.75191 11.1667 8.00002 11.1667C9.24813 11.1667 10.3076 11.3305 11.0293 11.651C11.7321 11.9631 12 12.3572 12 12.8333C12 12.9824 11.9735 13.0668 11.9352 13.128C11.8968 13.1892 11.8053 13.2928 11.5586 13.4044C11.0313 13.643 9.98929 13.8333 8.00002 13.8333C6.01075 13.8333 4.96877 13.643 4.44148 13.4044C4.19478 13.2928 4.10324 13.1892 4.06487 13.128C4.02653 13.0668 4.00002 12.9824 4.00002 12.8333Z" fill="#374151"/>
<path d="M12.7362 9.53699C12.8998 9.20717 13.2999 9.07249 13.6297 9.23615C14.6256 9.73038 15.3334 10.5841 15.3334 11.8333C15.3334 12.2015 15.0349 12.5 14.6667 12.5C14.2985 12.5 14 12.2015 14 11.8333C14 11.1972 13.6833 10.7512 13.037 10.4305C12.7072 10.2668 12.5725 9.8668 12.7362 9.53699Z" fill="#374151"/>
<path d="M2.96303 10.4305C3.29285 10.2668 3.42753 9.8668 3.26387 9.53699C3.1002 9.20717 2.70015 9.07249 2.37034 9.23615C1.37441 9.73038 0.666687 10.5841 0.666687 11.8333C0.666687 12.2015 0.965164 12.5 1.33335 12.5C1.70154 12.5 2.00002 12.2015 2.00002 11.8333C2.00002 11.1972 2.31671 10.7512 2.96303 10.4305Z" fill="#374151"/>
</g>
<defs>
<clipPath id="clip0_3873_11213">
<rect width="16" height="16" fill="white" transform="translate(0 0.5)"/>
</clipPath>
</defs>
</svg>
