<svg width="16" height="17" viewBox="0 0 16 17" fill="none" xmlns="http://www.w3.org/2000/svg">
<g clip-path="url(#clip0_3873_7342)">
<path fill-rule="evenodd" clip-rule="evenodd" d="M4.66666 5.83333C4.66666 3.99238 6.15904 2.5 7.99999 2.5C9.84094 2.5 11.3333 3.99238 11.3333 5.83333C11.3333 7.67428 9.84094 9.16667 7.99999 9.16667C6.15904 9.16667 4.66666 7.67428 4.66666 5.83333ZM7.99999 3.83333C6.89542 3.83333 5.99999 4.72876 5.99999 5.83333C5.99999 6.9379 6.89542 7.83333 7.99999 7.83333C9.10456 7.83333 9.99999 6.9379 9.99999 5.83333C9.99999 4.72876 9.10456 3.83333 7.99999 3.83333Z" fill="#1152F4"/>
<path d="M4.19095 4.47206C4.54372 4.3666 4.74419 3.99513 4.63872 3.64237C4.53325 3.28961 4.16179 3.08914 3.80903 3.1946C2.71327 3.52221 1.99999 4.62827 1.99999 5.83333C1.99999 7.0384 2.71327 8.14446 3.80903 8.47206C4.16179 8.57753 4.53325 8.37706 4.63872 8.0243C4.74419 7.67154 4.54372 7.30007 4.19095 7.1946C3.75318 7.06372 3.33332 6.55274 3.33332 5.83333C3.33332 5.11393 3.75318 4.60295 4.19095 4.47206Z" fill="#1152F4"/>
<path d="M12.191 3.1946C11.8382 3.08914 11.4667 3.28961 11.3613 3.64237C11.2558 3.99513 11.4563 4.3666 11.809 4.47206C12.2468 4.60295 12.6667 5.11393 12.6667 5.83333C12.6667 6.55274 12.2468 7.06372 11.809 7.1946C11.4563 7.30007 11.2558 7.67154 11.3613 8.0243C11.4667 8.37706 11.8382 8.57753 12.191 8.47206C13.2867 8.14446 14 7.0384 14 5.83333C14 4.62827 13.2867 3.52221 12.191 3.1946Z" fill="#1152F4"/>
<path fill-rule="evenodd" clip-rule="evenodd" d="M7.99999 9.83333C6.67077 9.83333 5.39695 10.0028 4.4296 10.4324C3.44343 10.8703 2.66666 11.6428 2.66666 12.8333C2.66666 13.1445 2.72348 13.4985 2.93514 13.8362C3.14677 14.1738 3.4719 14.4292 3.89186 14.6192C4.69791 14.9839 5.98926 15.1667 7.99999 15.1667C10.0107 15.1667 11.3021 14.9839 12.1081 14.6192C12.5281 14.4292 12.8532 14.1738 13.0648 13.8362C13.2765 13.4985 13.3333 13.1445 13.3333 12.8333C13.3333 11.6428 12.5565 10.8703 11.5704 10.4324C10.603 10.0028 9.32921 9.83333 7.99999 9.83333ZM3.99999 12.8333C3.99999 12.3572 4.26788 11.9631 4.97072 11.651C5.69237 11.3305 6.75188 11.1667 7.99999 11.1667C9.2481 11.1667 10.3076 11.3305 11.0293 11.651C11.7321 11.9631 12 12.3572 12 12.8333C12 12.9824 11.9735 13.0668 11.9351 13.128C11.8968 13.1892 11.8052 13.2928 11.5585 13.4044C11.0312 13.643 9.98926 13.8333 7.99999 13.8333C6.01072 13.8333 4.96874 13.643 4.44145 13.4044C4.19475 13.2928 4.10321 13.1892 4.06484 13.128C4.0265 13.0668 3.99999 12.9824 3.99999 12.8333Z" fill="#1152F4"/>
<path d="M12.7361 9.53699C12.8998 9.20717 13.2999 9.07249 13.6297 9.23615C14.6256 9.73038 15.3333 10.5841 15.3333 11.8333C15.3333 12.2015 15.0348 12.5 14.6667 12.5C14.2985 12.5 14 12.2015 14 11.8333C14 11.1972 13.6833 10.7512 13.037 10.4305C12.7072 10.2668 12.5725 9.8668 12.7361 9.53699Z" fill="#1152F4"/>
<path d="M2.963 10.4305C3.29282 10.2668 3.4275 9.8668 3.26384 9.53699C3.10017 9.20717 2.70012 9.07249 2.37031 9.23615C1.37438 9.73038 0.666656 10.5841 0.666656 11.8333C0.666656 12.2015 0.965133 12.5 1.33332 12.5C1.70151 12.5 1.99999 12.2015 1.99999 11.8333C1.99999 11.1972 2.31668 10.7512 2.963 10.4305Z" fill="#1152F4"/>
</g>
<defs>
<clipPath id="clip0_3873_7342">
<rect width="16" height="16" fill="white" transform="translate(0 0.5)"/>
</clipPath>
</defs>
</svg>
