<svg width="54" height="54" viewBox="0 0 54 54" fill="none" xmlns="http://www.w3.org/2000/svg">
<path d="M40.2152 2.47559H13.7848C7.53874 2.47559 2.47534 7.53898 2.47534 13.785V40.2155C2.47534 46.4615 7.53874 51.5249 13.7848 51.5249H40.2152C46.4612 51.5249 51.5246 46.4615 51.5246 40.2155V13.785C51.5246 7.53898 46.4612 2.47559 40.2152 2.47559Z" fill="url(#paint0_linear_5284_25376)"/>
<path d="M34.9102 12.1519C36.7722 12.1594 38.5558 12.9024 39.8725 14.2191C41.1892 15.5358 41.9322 17.3194 41.9397 19.1814V34.8182C41.9322 36.6803 41.1892 38.4639 39.8725 39.7805C38.5558 41.0972 36.7722 41.8402 34.9102 41.8477H19.0899C17.2278 41.8402 15.4442 41.0972 14.1276 39.7805C12.8109 38.4639 12.0679 36.6803 12.0604 34.8182V19.1814C12.0679 17.3194 12.8109 15.5358 14.1276 14.2191C15.4442 12.9024 17.2278 12.1594 19.0899 12.1519H34.9102ZM34.9102 8.8824H19.0899C13.4251 8.8824 8.78979 13.523 8.78979 19.1825V34.8182C8.78979 40.483 13.4304 45.1183 19.0899 45.1183H34.9102C40.5749 45.1183 45.2103 40.4777 45.2103 34.8182V19.1814C45.2103 13.5167 40.5749 8.88135 34.9102 8.88135V8.8824Z" fill="white"/>
<path d="M27 20.8965C28.2071 20.8965 29.3872 21.2544 30.3909 21.9251C31.3946 22.5958 32.1769 23.549 32.6388 24.6643C33.1008 25.7795 33.2217 27.0067 32.9862 28.1907C32.7507 29.3746 32.1694 30.4622 31.3158 31.3158C30.4622 32.1694 29.3747 32.7507 28.1907 32.9862C27.0067 33.2217 25.7795 33.1008 24.6643 32.6388C23.549 32.1769 22.5958 31.3946 21.9251 30.3909C21.2545 29.3872 20.8965 28.2071 20.8965 27C20.8984 25.3818 21.5421 23.8305 22.6863 22.6863C23.8305 21.5421 25.3818 20.8984 27 20.8965ZM27 17.627C25.1462 17.627 23.334 18.1767 21.7926 19.2066C20.2512 20.2365 19.0499 21.7004 18.3404 23.4131C17.631 25.1258 17.4454 27.0104 17.8071 28.8285C18.1687 30.6467 19.0614 32.3168 20.3722 33.6277C21.6831 34.9385 23.3532 35.8312 25.1714 36.1929C26.9896 36.5545 28.8742 36.3689 30.5869 35.6595C32.2996 34.9501 33.7634 33.7487 34.7933 32.2073C35.8233 30.6659 36.373 28.8538 36.373 27C36.373 24.5141 35.3855 22.13 33.6277 20.3722C31.8699 18.6145 29.4858 17.627 27 17.627Z" fill="white"/>
<path d="M36.5776 19.4381C37.8049 19.4381 38.7998 18.4432 38.7998 17.2159C38.7998 15.9886 37.8049 14.9937 36.5776 14.9937C35.3503 14.9937 34.3553 15.9886 34.3553 17.2159C34.3553 18.4432 35.3503 19.4381 36.5776 19.4381Z" fill="white"/>
<defs>
<linearGradient id="paint0_linear_5284_25376" x1="34.6222" y1="53.5836" x2="19.3778" y2="0.416834" gradientUnits="userSpaceOnUse">
<stop stop-color="#FFDB73"/>
<stop offset="0.08" stop-color="#FDAD4E"/>
<stop offset="0.15" stop-color="#FB832E"/>
<stop offset="0.19" stop-color="#FA7321"/>
<stop offset="0.23" stop-color="#F6692F"/>
<stop offset="0.37" stop-color="#E84A5A"/>
<stop offset="0.48" stop-color="#E03675"/>
<stop offset="0.55" stop-color="#DD2F7F"/>
<stop offset="0.68" stop-color="#B43D97"/>
<stop offset="0.97" stop-color="#4D60D4"/>
<stop offset="1" stop-color="#4264DB"/>
</linearGradient>
</defs>
</svg>
