<svg width="54" height="54" viewBox="0 0 54 54" fill="none" xmlns="http://www.w3.org/2000/svg">
<rect width="54" height="54" fill="white"/>
<g clip-path="url(#clip0_5554_30679)">
<path d="M44.8182 2.5H9.18182C5.49155 2.5 2.5 5.49155 2.5 9.18182V44.8182C2.5 48.5084 5.49155 51.5 9.18182 51.5H44.8182C48.5084 51.5 51.5 48.5084 51.5 44.8182V9.18182C51.5 5.49155 48.5084 2.5 44.8182 2.5Z" fill="#0077B5"/>
<path d="M20.1511 15.8636C20.1511 16.6896 19.9062 17.497 19.4473 18.1838C18.9884 18.8705 18.3362 19.4058 17.5731 19.7219C16.81 20.038 15.9703 20.1207 15.1602 19.9595C14.3502 19.7984 13.606 19.4007 13.022 18.8166C12.4379 18.2326 12.0402 17.4885 11.8791 16.6784C11.7179 15.8683 11.8006 15.0286 12.1167 14.2655C12.4328 13.5024 12.9681 12.8502 13.6548 12.3913C14.3416 11.9324 15.149 11.6875 15.975 11.6875C17.0825 11.6875 18.1448 12.1275 18.9279 12.9107C19.7111 13.6938 20.1511 14.7561 20.1511 15.8636Z" fill="white"/>
<path d="M19.2046 22.8238V41.2739C19.2053 41.41 19.1792 41.545 19.1276 41.6709C19.076 41.7969 19 41.9114 18.9041 42.0079C18.8081 42.1044 18.694 42.181 18.5683 42.2333C18.4426 42.2855 18.3078 42.3124 18.1717 42.3124H13.7701C13.634 42.3128 13.4991 42.2862 13.3733 42.2343C13.2475 42.1824 13.1331 42.1061 13.0369 42.0099C12.9407 41.9136 12.8644 41.7993 12.8125 41.6735C12.7606 41.5477 12.734 41.4128 12.7344 41.2767V22.8238C12.7344 22.5491 12.8435 22.2857 13.0377 22.0914C13.232 21.8972 13.4954 21.7881 13.7701 21.7881H18.1717C18.4459 21.7888 18.7086 21.8983 18.9022 22.0924C19.0959 22.2866 19.2046 22.5496 19.2046 22.8238Z" fill="white"/>
<path d="M42.2122 32.429V41.3603C42.2125 41.4855 42.1882 41.6095 42.1404 41.7252C42.0927 41.8408 42.0226 41.946 41.9341 42.0344C41.8456 42.1229 41.7405 42.1931 41.6248 42.2408C41.5091 42.2885 41.3852 42.3129 41.26 42.3125H36.5271C36.4019 42.3129 36.2779 42.2885 36.1622 42.2408C36.0466 42.1931 35.9415 42.1229 35.853 42.0344C35.7645 41.946 35.6944 41.8408 35.6466 41.7252C35.5989 41.6095 35.5745 41.4855 35.5749 41.3603V32.7046C35.5749 31.4128 35.9535 27.0473 32.1978 27.0473C29.2884 27.0473 28.6954 30.0347 28.5785 31.3766V41.3603C28.5785 41.6105 28.4801 41.8506 28.3045 42.0288C28.129 42.2069 27.8903 42.3088 27.6402 42.3125H23.0688C22.9439 42.3125 22.8202 42.2879 22.7048 42.24C22.5894 42.1921 22.4847 42.1219 22.3965 42.0335C22.3083 41.945 22.2384 41.84 22.1909 41.7245C22.1433 41.609 22.119 41.4853 22.1194 41.3603V22.7431C22.119 22.6182 22.1433 22.4945 22.1909 22.379C22.2384 22.2635 22.3083 22.1585 22.3965 22.07C22.4847 21.9816 22.5894 21.9114 22.7048 21.8635C22.8202 21.8156 22.9439 21.791 23.0688 21.791H27.6402C27.8928 21.791 28.135 21.8913 28.3135 22.0698C28.4921 22.2484 28.5924 22.4906 28.5924 22.7431V24.3523C29.6726 22.732 31.2735 21.4819 34.6896 21.4819C42.2567 21.4819 42.2122 28.548 42.2122 32.429Z" fill="white"/>
</g>
<defs>
<clipPath id="clip0_5554_30679">
<rect x="2.5" y="2.5" width="49" height="49" rx="14" fill="white"/>
</clipPath>
</defs>
</svg>
