<svg width="24" height="24" viewBox="0 0 24 24" fill="none" xmlns="http://www.w3.org/2000/svg">
<path fill-rule="evenodd" clip-rule="evenodd" d="M12 3.53846C7.32682 3.53846 3.53846 7.32682 3.53846 12C3.53846 13.3408 3.84978 14.6068 4.40338 15.7315C4.52707 15.9828 4.57143 16.2755 4.51196 16.5652L3.75286 20.2641L7.58719 19.5468C7.86342 19.4951 8.14079 19.5371 8.3813 19.6511C9.47751 20.1706 10.7037 20.4615 12 20.4615C16.6731 20.4615 20.4615 16.6731 20.4615 12C20.4615 7.32682 16.6731 3.53846 12 3.53846ZM2 12C2 6.47715 6.47715 2 12 2C17.5229 2 22 6.47715 22 12C22 17.5229 17.5229 22 12 22C10.4981 22 9.07154 21.6684 7.79137 21.0736L3.66077 21.8466C2.76554 22.0141 1.98601 21.2208 2.16911 20.3286L2.98792 16.3388C2.35459 15.0255 2 13.5531 2 12Z" fill="#1152F4"/>
<path fill-rule="evenodd" clip-rule="evenodd" d="M7.61548 10.1542C7.61548 9.77187 7.92544 9.46191 8.30779 9.46191H13.8462C14.2286 9.46191 14.5386 9.77187 14.5386 10.1542C14.5386 10.5366 14.2286 10.8465 13.8462 10.8465H8.30779C7.92544 10.8465 7.61548 10.5366 7.61548 10.1542Z" fill="#1152F4"/>
<path fill-rule="evenodd" clip-rule="evenodd" d="M7.61548 13.8456C7.61548 13.4633 7.92544 13.1533 8.30779 13.1533H15.6924C16.0747 13.1533 16.3847 13.4633 16.3847 13.8456C16.3847 14.228 16.0747 14.5379 15.6924 14.5379H8.30779C7.92544 14.5379 7.61548 14.228 7.61548 13.8456Z" fill="#1152F4"/>
</svg>
