<svg width="32" height="32" viewBox="0 0 32 32" fill="none" xmlns="http://www.w3.org/2000/svg">
<path fill-rule="evenodd" clip-rule="evenodd" d="M16 5.84615C10.3922 5.84615 5.84615 10.3922 5.84615 16C5.84615 17.609 6.21974 19.1281 6.88406 20.4778C7.03248 20.7793 7.08571 21.1306 7.01435 21.4783L6.10343 25.9169L10.7046 25.0561C11.0361 24.9941 11.3689 25.0446 11.6576 25.1813C12.973 25.8047 14.4444 26.1538 16 26.1538C21.6078 26.1538 26.1538 21.6078 26.1538 16C26.1538 10.3922 21.6078 5.84615 16 5.84615ZM4 16C4 9.37258 9.37258 4 16 4C22.6274 4 28 9.37258 28 16C28 22.6274 22.6274 28 16 28C14.1977 28 12.4858 27.6021 10.9496 26.8884L5.99292 27.8159C4.91865 28.0169 3.98321 27.065 4.20293 25.9943L5.1855 21.2065C4.42551 19.6306 4 17.8638 4 16Z" fill="#1152F4"/>
<path fill-rule="evenodd" clip-rule="evenodd" d="M10.1541 13.5388C10.1541 13.029 10.5673 12.6157 11.0771 12.6157H18.4617C18.9715 12.6157 19.3848 13.029 19.3848 13.5388C19.3848 14.0486 18.9715 14.4619 18.4617 14.4619H11.0771C10.5673 14.4619 10.1541 14.0486 10.1541 13.5388Z" fill="#1152F4"/>
<path fill-rule="evenodd" clip-rule="evenodd" d="M10.1541 18.4607C10.1541 17.9509 10.5673 17.5376 11.0771 17.5376H20.9233C21.4331 17.5376 21.8464 17.9509 21.8464 18.4607C21.8464 18.9705 21.4331 19.3838 20.9233 19.3838H11.0771C10.5673 19.3838 10.1541 18.9705 10.1541 18.4607Z" fill="#1152F4"/>
</svg>
