<svg width="4" height="14" viewBox="0 0 4 14" fill="none" xmlns="http://www.w3.org/2000/svg">
<path fill-rule="evenodd" clip-rule="evenodd" d="M2.00004 8.66699C1.07957 8.66699 0.333374 7.9208 0.333374 7.00033C0.333374 6.07985 1.07957 5.33366 2.00004 5.33366C2.92051 5.33366 3.66671 6.07985 3.66671 7.00033C3.66671 7.9208 2.92051 8.66699 2.00004 8.66699Z" fill="#000001"/>
<path fill-rule="evenodd" clip-rule="evenodd" d="M2.00004 13.667C1.07957 13.667 0.333374 12.9208 0.333374 12.0003C0.333374 11.0799 1.07957 10.3337 2.00004 10.3337C2.92052 10.3337 3.66671 11.0799 3.66671 12.0003C3.66671 12.9208 2.92052 13.667 2.00004 13.667Z" fill="#000001"/>
<path fill-rule="evenodd" clip-rule="evenodd" d="M2.00004 3.66699C1.07957 3.66699 0.333374 2.9208 0.333374 2.00033C0.333374 1.07985 1.07957 0.333659 2.00004 0.333659C2.92051 0.333659 3.66671 1.07985 3.66671 2.00033C3.66671 2.9208 2.92051 3.66699 2.00004 3.66699Z" fill="#000001"/>
</svg>
