<svg width="21" height="20" viewBox="0 0 21 20" fill="none" xmlns="http://www.w3.org/2000/svg">
<path fill-rule="evenodd" clip-rule="evenodd" d="M6.78918 6.06L5.09369 4.36451C4.76825 4.03907 4.76825 3.51143 5.09369 3.186C5.41912 2.86056 5.94676 2.86056 6.2722 3.186L18.7722 15.686C19.0976 16.0114 19.0976 16.5391 18.7722 16.8645C18.4468 17.1899 17.9191 17.1899 17.5937 16.8645L15.8501 15.1209C15.805 15.3446 15.76 15.5491 15.7166 15.7336C15.4576 16.8347 14.466 17.5 13.4218 17.5C12.7957 17.5 12.1924 17.2653 11.7309 16.8423L9.28995 14.6047C8.98257 14.323 8.58073 14.1667 8.16374 14.1667H7.99984C6.15889 14.1667 4.6665 12.6743 4.6665 10.8333V9.16667C4.6665 7.75279 5.54678 6.54451 6.78918 6.06ZM14.4086 13.6794C14.3095 14.3579 14.1959 14.9195 14.0942 15.352C14.0318 15.6172 13.7811 15.8333 13.4218 15.8333C13.2127 15.8333 13.0112 15.755 12.8571 15.6137L10.4162 13.3762C9.80139 12.8126 8.99771 12.5 8.16374 12.5H7.99984C7.07936 12.5 6.33317 11.7538 6.33317 10.8333L6.33317 9.16667C6.33317 8.24619 7.07936 7.5 7.99984 7.5H8.16374C8.18537 7.5 8.20697 7.49979 8.22855 7.49937L14.4086 13.6794Z" fill="#374151"/>
<path d="M14.0942 4.64801C14.3379 5.68416 14.6499 7.46136 14.6659 9.81201L16.2973 11.4434C16.3202 10.9866 16.3332 10.505 16.3332 10C16.3332 7.40993 15.9918 5.4367 15.7166 4.26645C15.4576 3.16532 14.466 2.5 13.4218 2.5C12.7957 2.5 12.1924 2.73468 11.7309 3.15772L9.79038 4.93653L10.97 6.11615L12.8571 4.38631C13.0112 4.24504 13.2127 4.16667 13.4218 4.16667C13.7811 4.16667 14.0318 4.3828 14.0942 4.64801Z" fill="#374151"/>
</svg>
