<svg width="16" height="17" viewBox="0 0 16 17" fill="none" xmlns="http://www.w3.org/2000/svg">
<path fill-rule="evenodd" clip-rule="evenodd" d="M7.00002 2.5C5.15907 2.5 3.66669 3.99238 3.66669 5.83333C3.66669 7.67428 5.15907 9.16667 7.00002 9.16667C8.84097 9.16667 10.3334 7.67428 10.3334 5.83333C10.3334 3.99238 8.84097 2.5 7.00002 2.5ZM5.00002 5.83333C5.00002 4.72876 5.89545 3.83333 7.00002 3.83333C8.10459 3.83333 9.00002 4.72876 9.00002 5.83333C9.00002 6.9379 8.10459 7.83333 7.00002 7.83333C5.89545 7.83333 5.00002 6.9379 5.00002 5.83333Z" fill="#1152F4"/>
<path d="M11.191 3.1946C10.8382 3.08914 10.4668 3.28961 10.3613 3.64237C10.2558 3.99513 10.4563 4.3666 10.8091 4.47206C11.2468 4.60295 11.6667 5.11393 11.6667 5.83333C11.6667 6.55274 11.2468 7.06372 10.8091 7.1946C10.4563 7.30007 10.2558 7.67154 10.3613 8.0243C10.4668 8.37706 10.8382 8.57753 11.191 8.47206C12.2867 8.14446 13 7.0384 13 5.83333C13 4.62827 12.2867 3.52221 11.191 3.1946Z" fill="#1152F4"/>
<path fill-rule="evenodd" clip-rule="evenodd" d="M3.42963 10.4324C4.39698 10.0028 5.6708 9.83333 7.00002 9.83333C8.32924 9.83333 9.60306 10.0028 10.5704 10.4324C11.5566 10.8703 12.3334 11.6428 12.3334 12.8333C12.3334 13.1445 12.2765 13.4985 12.0649 13.8362C11.8532 14.1738 11.5281 14.4292 11.1081 14.6192C10.3021 14.9839 9.01075 15.1667 7.00002 15.1667C4.98929 15.1667 3.69794 14.9839 2.89189 14.6192C2.47193 14.4292 2.1468 14.1738 1.93517 13.8362C1.72351 13.4985 1.66669 13.1445 1.66669 12.8333C1.66669 11.6428 2.44346 10.8703 3.42963 10.4324ZM3.97075 11.651C3.26791 11.9631 3.00002 12.3572 3.00002 12.8333C3.00002 12.9824 3.02653 13.0668 3.06487 13.128C3.10324 13.1892 3.19478 13.2928 3.44148 13.4044C3.96877 13.643 5.01075 13.8333 7.00002 13.8333C8.98929 13.8333 10.0313 13.643 10.5586 13.4044C10.8053 13.2928 10.8968 13.1892 10.9352 13.128C10.9735 13.0668 11 12.9824 11 12.8333C11 12.3572 10.7321 11.9631 10.0293 11.651C9.30764 11.3305 8.24813 11.1667 7.00002 11.1667C5.75191 11.1667 4.6924 11.3305 3.97075 11.651Z" fill="#1152F4"/>
<path d="M12.6297 9.23615C12.2999 9.07249 11.8998 9.20717 11.7362 9.53699C11.5725 9.8668 11.7072 10.2668 12.037 10.4305C12.6833 10.7512 13 11.1972 13 11.8333C13 12.2015 13.2985 12.5 13.6667 12.5C14.0349 12.5 14.3334 12.2015 14.3334 11.8333C14.3334 10.5841 13.6256 9.73038 12.6297 9.23615Z" fill="#1152F4"/>
</svg>
