<svg width="16" height="17" viewBox="0 0 16 17" fill="none" xmlns="http://www.w3.org/2000/svg">
<path fill-rule="evenodd" clip-rule="evenodd" d="M6.99999 2.5C5.15904 2.5 3.66666 3.99238 3.66666 5.83333C3.66666 7.67428 5.15904 9.16667 6.99999 9.16667C8.84094 9.16667 10.3333 7.67428 10.3333 5.83333C10.3333 3.99238 8.84094 2.5 6.99999 2.5ZM4.99999 5.83333C4.99999 4.72876 5.89542 3.83333 6.99999 3.83333C8.10456 3.83333 8.99999 4.72876 8.99999 5.83333C8.99999 6.9379 8.10456 7.83333 6.99999 7.83333C5.89542 7.83333 4.99999 6.9379 4.99999 5.83333Z" fill="#374151"/>
<path d="M11.191 3.1946C10.8382 3.08914 10.4667 3.28961 10.3613 3.64237C10.2558 3.99513 10.4563 4.3666 10.809 4.47206C11.2468 4.60295 11.6667 5.11393 11.6667 5.83333C11.6667 6.55274 11.2468 7.06372 10.809 7.1946C10.4563 7.30007 10.2558 7.67154 10.3613 8.0243C10.4667 8.37706 10.8382 8.57753 11.191 8.47206C12.2867 8.14446 13 7.0384 13 5.83333C13 4.62827 12.2867 3.52221 11.191 3.1946Z" fill="#374151"/>
<path fill-rule="evenodd" clip-rule="evenodd" d="M3.4296 10.4324C4.39695 10.0028 5.67077 9.83333 6.99999 9.83333C8.32921 9.83333 9.60303 10.0028 10.5704 10.4324C11.5565 10.8703 12.3333 11.6428 12.3333 12.8333C12.3333 13.1445 12.2765 13.4985 12.0648 13.8362C11.8532 14.1738 11.5281 14.4292 11.1081 14.6192C10.3021 14.9839 9.01072 15.1667 6.99999 15.1667C4.98926 15.1667 3.69791 14.9839 2.89186 14.6192C2.4719 14.4292 2.14677 14.1738 1.93514 13.8362C1.72348 13.4985 1.66666 13.1445 1.66666 12.8333C1.66666 11.6428 2.44343 10.8703 3.4296 10.4324ZM3.97072 11.651C3.26788 11.9631 2.99999 12.3572 2.99999 12.8333C2.99999 12.9824 3.0265 13.0668 3.06484 13.128C3.10321 13.1892 3.19475 13.2928 3.44145 13.4044C3.96874 13.643 5.01072 13.8333 6.99999 13.8333C8.98926 13.8333 10.0312 13.643 10.5585 13.4044C10.8052 13.2928 10.8968 13.1892 10.9351 13.128C10.9735 13.0668 11 12.9824 11 12.8333C11 12.3572 10.7321 11.9631 10.0293 11.651C9.30761 11.3305 8.2481 11.1667 6.99999 11.1667C5.75188 11.1667 4.69237 11.3305 3.97072 11.651Z" fill="#374151"/>
<path d="M12.6297 9.23615C12.2999 9.07249 11.8998 9.20717 11.7361 9.53699C11.5725 9.8668 11.7072 10.2668 12.037 10.4305C12.6833 10.7512 13 11.1972 13 11.8333C13 12.2015 13.2985 12.5 13.6667 12.5C14.0348 12.5 14.3333 12.2015 14.3333 11.8333C14.3333 10.5841 13.6256 9.73038 12.6297 9.23615Z" fill="#374151"/>
</svg>
