<svg width="16" height="17" viewBox="0 0 16 17" fill="none" xmlns="http://www.w3.org/2000/svg">
<path d="M4.33331 3.16683C3.41284 3.16683 2.66665 3.91302 2.66665 4.8335V5.16683C2.66665 5.53502 2.36817 5.8335 1.99998 5.8335C1.63179 5.8335 1.33331 5.53502 1.33331 5.16683V4.8335C1.33331 3.17664 2.67646 1.8335 4.33331 1.8335H4.66665C5.03484 1.8335 5.33331 2.13197 5.33331 2.50016C5.33331 2.86835 5.03484 3.16683 4.66665 3.16683H4.33331Z" fill="#374151"/>
<path fill-rule="evenodd" clip-rule="evenodd" d="M7.30654 4.50016C6.86263 4.50015 6.48961 4.50014 6.18436 4.52508C5.86521 4.55116 5.56191 4.60779 5.274 4.75448C4.83496 4.97819 4.478 5.33514 4.2543 5.77418C4.1076 6.06209 4.05098 6.3654 4.0249 6.68454C4.01303 6.82984 4.00681 6.99049 4.00355 7.16683H2.66665C2.29846 7.16683 1.99998 7.46531 1.99998 7.8335C1.99998 8.20169 2.29846 8.50016 2.66665 8.50016H13.3333C13.7015 8.50016 14 8.20169 14 7.8335C14 7.46531 13.7015 7.16683 13.3333 7.16683H11.9964C11.9931 6.99049 11.9869 6.82984 11.9751 6.68454C11.949 6.3654 11.8924 6.06209 11.7457 5.77418C11.522 5.33514 11.165 4.97819 10.726 4.75448C10.4381 4.60779 10.1347 4.55116 9.8156 4.52508C9.51035 4.50014 9.13733 4.50015 8.69342 4.50016H7.30654ZM10.6628 7.16683C10.66 7.02303 10.655 6.90091 10.6462 6.79312C10.6268 6.55643 10.5926 6.44812 10.5577 6.37951C10.4618 6.19134 10.3088 6.03836 10.1206 5.94249C10.052 5.90753 9.94371 5.87333 9.70702 5.85399C9.46255 5.83401 9.14436 5.8335 8.66665 5.8335H7.33331C6.8556 5.8335 6.53741 5.83401 6.29294 5.85399C6.05624 5.87333 5.94794 5.90753 5.87932 5.94249C5.69116 6.03836 5.53818 6.19134 5.44231 6.37951C5.40735 6.44812 5.37314 6.55643 5.35381 6.79312C5.345 6.90091 5.33997 7.02303 5.33711 7.16683H10.6628Z" fill="#374151"/>
<path d="M9.38379 12.5002L7.30654 12.5002C6.86268 12.5002 6.48958 12.5002 6.18436 12.4752C5.86521 12.4492 5.56191 12.3925 5.274 12.2458C4.83496 12.0221 4.478 11.6652 4.2543 11.2261C4.22986 11.1782 4.21683 11.1558 4.19996 11.1269C4.18951 11.109 4.17757 11.0885 4.16053 11.0578C4.11496 10.9758 4.06562 10.8725 4.03615 10.7281C4.01209 10.6102 4.00595 10.4857 4.00301 10.3635C3.99998 10.2373 3.99998 10.0683 3.99998 9.84408V9.8335C3.99998 9.46531 4.29846 9.16683 4.66665 9.16683C5.03484 9.16683 5.33331 9.46531 5.33331 9.8335C5.33331 10.0707 5.33336 10.2234 5.33596 10.3314C5.33718 10.3822 5.33889 10.4148 5.34029 10.4349C5.36207 10.4725 5.40419 10.546 5.44231 10.6208C5.53818 10.809 5.69116 10.962 5.87932 11.0578C5.94794 11.0928 6.05624 11.127 6.29294 11.1463C6.53741 11.1663 6.8556 11.1668 7.33331 11.1668H9.33331C9.66846 11.1668 9.75841 11.1648 9.82308 11.1545C10.251 11.0867 10.5866 10.7512 10.6543 10.3233C10.6646 10.2586 10.6666 10.1686 10.6666 9.8335C10.6666 9.46531 10.9651 9.16683 11.3333 9.16683C11.7015 9.16683 12 9.46531 12 9.8335L12 9.88397C12.0001 10.144 12.0002 10.3491 11.9713 10.5318C11.8131 11.5303 11.0301 12.3133 10.0317 12.4714C9.84889 12.5004 9.64379 12.5003 9.38379 12.5002Z" fill="#374151"/>
<path d="M14.6666 11.8335C14.6666 11.4653 14.3682 11.1668 14 11.1668C13.6318 11.1668 13.3333 11.4653 13.3333 11.8335V12.1668C13.3333 13.0873 12.5871 13.8335 11.6666 13.8335H11.3333C10.9651 13.8335 10.6666 14.132 10.6666 14.5002C10.6666 14.8684 10.9651 15.1668 11.3333 15.1668H11.6666C13.3235 15.1668 14.6666 13.8237 14.6666 12.1668V11.8335Z" fill="#374151"/>
<path d="M10.6666 2.50016C10.6666 2.13197 10.9651 1.8335 11.3333 1.8335H11.6666C13.3235 1.8335 14.6666 3.17664 14.6666 4.8335V5.16683C14.6666 5.53502 14.3682 5.8335 14 5.8335C13.6318 5.8335 13.3333 5.53502 13.3333 5.16683V4.8335C13.3333 3.91302 12.5871 3.16683 11.6666 3.16683H11.3333C10.9651 3.16683 10.6666 2.86835 10.6666 2.50016Z" fill="#374151"/>
<path d="M2.66665 11.8335C2.66665 11.4653 2.36817 11.1668 1.99998 11.1668C1.63179 11.1668 1.33331 11.4653 1.33331 11.8335V12.1668C1.33331 13.8237 2.67646 15.1668 4.33331 15.1668H4.66665C5.03484 15.1668 5.33331 14.8684 5.33331 14.5002C5.33331 14.132 5.03484 13.8335 4.66665 13.8335H4.33331C3.41284 13.8335 2.66665 13.0873 2.66665 12.1668V11.8335Z" fill="#374151"/>
</svg>
