<svg width="30" height="30" viewBox="0 0 30 30" fill="none" xmlns="http://www.w3.org/2000/svg">
<path d="M15 12.9797L22.5613 5.41842C23.1192 4.86053 24.0237 4.86053 24.5816 5.41842C25.1395 5.97631 25.1395 6.88083 24.5816 7.43872L17.0203 15L24.5816 22.5613C25.1395 23.1192 25.1395 24.0237 24.5816 24.5816C24.0237 25.1395 23.1192 25.1395 22.5613 24.5816L15 17.0203L7.43872 24.5816C6.88083 25.1395 5.97631 25.1395 5.41842 24.5816C4.86053 24.0237 4.86053 23.1192 5.41842 22.5613L12.9797 15L5.41842 7.43872C4.86053 6.88083 4.86053 5.97631 5.41842 5.41842C5.97631 4.86053 6.88083 4.86053 7.43872 5.41842L15 12.9797Z" fill="white"/>
</svg>
