<svg width="17" height="17" viewBox="0 0 17 17" fill="none" xmlns="http://www.w3.org/2000/svg">
<path d="M4.60413 2.83317C3.62612 2.83317 2.83329 3.626 2.83329 4.604V4.95817C2.83329 5.34937 2.51616 5.6665 2.12496 5.6665C1.73376 5.6665 1.41663 5.34937 1.41663 4.95817V4.604C1.41663 2.8436 2.84372 1.4165 4.60413 1.4165H4.95829C5.34949 1.4165 5.66663 1.73364 5.66663 2.12484C5.66663 2.51604 5.34949 2.83317 4.95829 2.83317H4.60413Z" fill="#1152F4"/>
<path fill-rule="evenodd" clip-rule="evenodd" d="M7.76318 4.24984C7.29152 4.24983 6.89519 4.24982 6.57087 4.27632C6.23177 4.30402 5.90951 4.36419 5.60361 4.52005C5.13712 4.75774 4.75786 5.137 4.52017 5.60349C4.36431 5.90938 4.30414 6.23165 4.27644 6.57074C4.26382 6.72512 4.25722 6.89581 4.25376 7.08317H2.83329C2.44209 7.08317 2.12496 7.4003 2.12496 7.7915C2.12496 8.18271 2.44209 8.49984 2.83329 8.49984H14.1666C14.5578 8.49984 14.875 8.18271 14.875 7.7915C14.875 7.4003 14.5578 7.08317 14.1666 7.08317H12.7462C12.7427 6.89581 12.7361 6.72512 12.7235 6.57074C12.6958 6.23165 12.6356 5.90938 12.4797 5.60349C12.2421 5.137 11.8628 4.75774 11.3963 4.52005C11.0904 4.36419 10.7681 4.30402 10.4291 4.27632C10.1047 4.24982 9.7084 4.24983 9.23674 4.24984H7.76318ZM11.3293 7.08317C11.3262 6.93038 11.3209 6.80063 11.3115 6.6861C11.291 6.43462 11.2546 6.31954 11.2175 6.24664C11.1156 6.04672 10.9531 5.88417 10.7532 5.78231C10.6803 5.74516 10.5652 5.70882 10.3137 5.68828C10.0539 5.66705 9.71586 5.6665 9.20829 5.6665H7.79163C7.28406 5.6665 6.94598 5.66705 6.68623 5.68828C6.43474 5.70882 6.31966 5.74516 6.24676 5.78231C6.04684 5.88417 5.8843 6.04672 5.78243 6.24664C5.74529 6.31954 5.70895 6.43462 5.6884 6.6861C5.67904 6.80063 5.6737 6.93038 5.67066 7.08317H11.3293Z" fill="#1152F4"/>
<path d="M9.97026 12.7499L7.76318 12.7498C7.29158 12.7498 6.89516 12.7499 6.57086 12.7234C6.23177 12.6957 5.90951 12.6355 5.60361 12.4796C5.13712 12.2419 4.75786 11.8627 4.52017 11.3962C4.49421 11.3452 4.48037 11.3215 4.46244 11.2907C4.45133 11.2717 4.43865 11.2499 4.42055 11.2174C4.37212 11.1302 4.3197 11.0205 4.28839 10.8671C4.26283 10.7418 4.2563 10.6095 4.25318 10.4796C4.24996 10.3456 4.24996 10.166 4.24996 9.92775V9.9165C4.24996 9.5253 4.56709 9.20817 4.95829 9.20817C5.34949 9.20817 5.66663 9.5253 5.66663 9.9165C5.66663 10.1686 5.66668 10.3308 5.66944 10.4456C5.67073 10.4995 5.67255 10.5342 5.67404 10.5555C5.69718 10.5954 5.74193 10.6735 5.78243 10.753C5.8843 10.953 6.04684 11.1155 6.24676 11.2174C6.31966 11.2545 6.43474 11.2908 6.68623 11.3114C6.94598 11.3326 7.28406 11.3332 7.79163 11.3332H9.91663C10.2727 11.3332 10.3683 11.331 10.437 11.3201C10.8916 11.2481 11.2482 10.8915 11.3202 10.4369C11.3311 10.3682 11.3333 10.2726 11.3333 9.9165C11.3333 9.5253 11.6504 9.20817 12.0416 9.20817C12.4328 9.20817 12.75 9.5253 12.75 9.9165L12.75 9.97013C12.7501 10.2464 12.7502 10.4643 12.7194 10.6585C12.5514 11.7193 11.7194 12.5513 10.6586 12.7193C10.4644 12.7501 10.2465 12.75 9.97026 12.7499Z" fill="#1152F4"/>
<path d="M15.5833 12.0415C15.5833 11.6503 15.2662 11.3332 14.875 11.3332C14.4838 11.3332 14.1666 11.6503 14.1666 12.0415V12.3957C14.1666 13.3737 13.3738 14.1665 12.3958 14.1665H12.0416C11.6504 14.1665 11.3333 14.4836 11.3333 14.8748C11.3333 15.266 11.6504 15.5832 12.0416 15.5832H12.3958C14.1562 15.5832 15.5833 14.1561 15.5833 12.3957V12.0415Z" fill="#1152F4"/>
<path d="M11.3333 2.12484C11.3333 1.73364 11.6504 1.4165 12.0416 1.4165H12.3958C14.1562 1.4165 15.5833 2.8436 15.5833 4.604V4.95817C15.5833 5.34937 15.2662 5.6665 14.875 5.6665C14.4838 5.6665 14.1666 5.34937 14.1666 4.95817V4.604C14.1666 3.626 13.3738 2.83317 12.3958 2.83317H12.0416C11.6504 2.83317 11.3333 2.51604 11.3333 2.12484Z" fill="#1152F4"/>
<path d="M2.83329 12.0415C2.83329 11.6503 2.51616 11.3332 2.12496 11.3332C1.73376 11.3332 1.41663 11.6503 1.41663 12.0415V12.3957C1.41663 14.1561 2.84372 15.5832 4.60413 15.5832H4.95829C5.34949 15.5832 5.66663 15.266 5.66663 14.8748C5.66663 14.4836 5.34949 14.1665 4.95829 14.1665H4.60413C3.62612 14.1665 2.83329 13.3737 2.83329 12.3957V12.0415Z" fill="#1152F4"/>
</svg>
