<svg width="30" height="30" viewBox="0 0 30 30" fill="none" xmlns="http://www.w3.org/2000/svg">
<path d="M0 8C0 3.58172 3.58172 0 8 0H22C26.4183 0 30 3.58172 30 8V22C30 26.4183 26.4183 30 22 30H8C3.58172 30 0 26.4183 0 22V8Z" fill="#EBECEE"/>
<path d="M12.0834 13.3337C12.7737 13.3337 13.3334 12.774 13.3334 12.0837C13.3334 11.3933 12.7737 10.8337 12.0834 10.8337C11.393 10.8337 10.8334 11.3933 10.8334 12.0837C10.8334 12.774 11.393 13.3337 12.0834 13.3337Z" fill="#79808A"/>
<path fill-rule="evenodd" clip-rule="evenodd" d="M14.1713 6.66699H15.8288C16.9838 6.66699 17.9023 6.66698 18.643 6.72849C19.4016 6.79149 20.0479 6.92328 20.6382 7.22993C21.5514 7.7043 22.296 8.4489 22.7704 9.36212C23.0771 9.95243 23.2089 10.5988 23.2719 11.3573C23.3334 12.098 23.3334 13.0165 23.3334 14.1715V15.8291C23.3334 16.4048 23.3334 16.922 23.3257 17.3875C23.3374 17.4734 23.3357 17.5608 23.3205 17.6462C23.3117 18.0107 23.2969 18.3418 23.2719 18.6433C23.2089 19.4019 23.0771 20.0482 22.7704 20.6385C22.296 21.5517 21.5514 22.2963 20.6382 22.7707C20.0479 23.0774 19.4016 23.2092 18.643 23.2722C17.9024 23.3337 16.9838 23.3337 15.8288 23.3337H14.1713C13.0163 23.3337 12.0977 23.3337 11.357 23.2722C10.5984 23.2092 9.95213 23.0774 9.36182 22.7707C8.69899 22.4264 8.12498 21.9397 7.67866 21.3496C7.67021 21.3389 7.66205 21.328 7.65419 21.3169C7.49548 21.1035 7.35336 20.8767 7.22962 20.6385C6.92298 20.0482 6.79118 19.4019 6.72819 18.6433C6.66667 17.9027 6.66668 16.9841 6.66669 15.8291V14.1716C6.66668 13.0166 6.66667 12.098 6.72819 11.3573C6.79118 10.5988 6.92298 9.95243 7.22962 9.36212C7.704 8.4489 8.4486 7.7043 9.36182 7.22993C9.95213 6.92328 10.5984 6.79149 11.357 6.72849C12.0977 6.66698 13.0163 6.66699 14.1713 6.66699ZM21.6667 14.2087V15.4268L20.5109 14.2212C19.8524 13.5342 18.7534 13.5372 18.0985 14.2276L14.2094 18.3277L12.9295 16.7802C12.2444 15.9519 10.9659 15.9792 10.3168 16.836L8.49203 19.2443C8.44737 19.0389 8.41341 18.7977 8.38913 18.5054C8.33402 17.8418 8.33335 16.9924 8.33335 15.792V14.2087C8.33335 13.0082 8.33402 12.1589 8.38913 11.4953C8.44342 10.8416 8.54617 10.4432 8.70864 10.1304C9.02489 9.5216 9.5213 9.0252 10.1301 8.70895C10.4429 8.54648 10.8413 8.44372 11.4949 8.38944C12.1586 8.33433 13.0079 8.33366 14.2084 8.33366H15.7917C16.9921 8.33366 17.8415 8.33433 18.5051 8.38944C19.1587 8.44372 19.5572 8.54648 19.8699 8.70895C20.4787 9.0252 20.9751 9.5216 21.2914 10.1304C21.4539 10.4432 21.5566 10.8416 21.6109 11.4953C21.666 12.1589 21.6667 13.0082 21.6667 14.2087ZM10.1301 21.2917C9.86833 21.1557 9.62735 20.9864 9.41252 20.7892L11.6452 17.8425L12.9251 19.39C13.5625 20.1606 14.7303 20.2003 15.4186 19.4747L19.3077 15.3745L21.6485 17.8163C21.6403 18.068 21.6283 18.2959 21.6109 18.5054C21.5566 19.159 21.4539 19.5575 21.2914 19.8702C20.9751 20.4791 20.4787 20.9755 19.8699 21.2917C19.5572 21.4542 19.1587 21.5569 18.5051 21.6112C17.8415 21.6663 16.9921 21.667 15.7917 21.667H14.2084C13.0079 21.667 12.1586 21.6663 11.4949 21.6112C10.8413 21.5569 10.4429 21.4542 10.1301 21.2917Z" fill="#79808A"/>
</svg>
