<svg width="31" height="30" viewBox="0 0 31 30" fill="none" xmlns="http://www.w3.org/2000/svg">
<path d="M0.5 8C0.5 3.58172 4.08172 0 8.5 0H22.5C26.9183 0 30.5 3.58172 30.5 8V22C30.5 26.4183 26.9183 30 22.5 30H8.5C4.08172 30 0.5 26.4183 0.5 22V8Z" fill="#EBECEE"/>
<path d="M8.83335 9.16699C8.83335 8.70676 9.20645 8.33366 9.66669 8.33366H11.3334C11.7936 8.33366 12.1667 7.96056 12.1667 7.50033C12.1667 7.04009 11.7936 6.66699 11.3334 6.66699H9.66669C8.28598 6.66699 7.16669 7.78628 7.16669 9.16699V10.8337C7.16669 11.2939 7.53979 11.667 8.00002 11.667C8.46025 11.667 8.83335 11.2939 8.83335 10.8337V9.16699Z" fill="#79808A"/>
<path d="M22.1666 20.834C22.1666 21.2942 21.7936 21.6673 21.3333 21.6673H19.6666C19.2064 21.6673 18.8333 22.0404 18.8333 22.5007C18.8333 22.9609 19.2064 23.334 19.6666 23.334H21.3333C22.7141 23.334 23.8333 22.2147 23.8333 20.834V19.1673C23.8333 18.7071 23.4602 18.334 23 18.334C22.5397 18.334 22.1666 18.7071 22.1666 19.1673V20.834Z" fill="#79808A"/>
<path d="M8.83335 20.834C8.83335 21.2942 9.20645 21.6673 9.66669 21.6673H11.3334C11.7936 21.6673 12.1667 22.0404 12.1667 22.5007C12.1667 22.9609 11.7936 23.334 11.3334 23.334H9.66669C8.28598 23.334 7.16669 22.2147 7.16669 20.834V19.1673C7.16669 18.7071 7.53979 18.334 8.00002 18.334C8.46026 18.334 8.83335 18.7071 8.83335 19.1673V20.834Z" fill="#79808A"/>
<path d="M21.3333 8.33366C21.7936 8.33366 22.1666 8.70676 22.1666 9.16699V10.8337C22.1666 11.2939 22.5397 11.667 23 11.667C23.4602 11.667 23.8333 11.2939 23.8333 10.8337V9.16699C23.8333 7.78628 22.7141 6.66699 21.3333 6.66699H19.6666C19.2064 6.66699 18.8333 7.04009 18.8333 7.50033C18.8333 7.96056 19.2064 8.33366 19.6666 8.33366H21.3333Z" fill="#79808A"/>
<path fill-rule="evenodd" clip-rule="evenodd" d="M11.3333 14.1667C10.8731 14.1667 10.5 13.7936 10.5 13.3333V10.8333C10.5 10.3731 10.8731 10 11.3333 10H13.8333C14.2936 10 14.6667 10.3731 14.6667 10.8333V13.3333C14.6667 13.7936 14.2936 14.1667 13.8333 14.1667H11.3333ZM12.1667 12.5H13V11.6667H12.1667V12.5Z" fill="#79808A"/>
<path fill-rule="evenodd" clip-rule="evenodd" d="M10.5 19.1673C10.5 19.6276 10.8731 20.0007 11.3333 20.0007H13.8333C14.2936 20.0007 14.6667 19.6276 14.6667 19.1673V16.6673C14.6667 16.2071 14.2936 15.834 13.8333 15.834H11.3333C10.8731 15.834 10.5 16.2071 10.5 16.6673V19.1673ZM13 18.334H12.1667V17.5007H13V18.334Z" fill="#79808A"/>
<path fill-rule="evenodd" clip-rule="evenodd" d="M17.1666 14.1667C16.7064 14.1667 16.3333 13.7936 16.3333 13.3333V10.8333C16.3333 10.3731 16.7064 10 17.1666 10H19.6666C20.1269 10 20.5 10.3731 20.5 10.8333V13.3333C20.5 13.7936 20.1269 14.1667 19.6666 14.1667H17.1666ZM18 12.5H18.8333V11.6667H18V12.5Z" fill="#79808A"/>
<path fill-rule="evenodd" clip-rule="evenodd" d="M16.3333 19.1673C16.3333 19.6276 16.7064 20.0007 17.1666 20.0007H19.6666C20.1269 20.0007 20.5 19.6276 20.5 19.1673V16.6673C20.5 16.2071 20.1269 15.834 19.6666 15.834H17.1666C16.7064 15.834 16.3333 16.2071 16.3333 16.6673V19.1673ZM18.8333 18.334H18V17.5007H18.8333V18.334Z" fill="#79808A"/>
</svg>
