<svg width="20" height="21" viewBox="0 0 20 21" fill="none" xmlns="http://www.w3.org/2000/svg">
<path d="M3.33332 4.6665C3.33332 4.20627 3.70642 3.83317 4.16666 3.83317H5.83332C6.29356 3.83317 6.66666 3.46007 6.66666 2.99984C6.66666 2.5396 6.29356 2.1665 5.83332 2.1665H4.16666C2.78595 2.1665 1.66666 3.2858 1.66666 4.6665V6.33317C1.66666 6.79341 2.03976 7.1665 2.49999 7.1665C2.96022 7.1665 3.33332 6.79341 3.33332 6.33317V4.6665Z" fill="#1152F4"/>
<path d="M16.6667 16.3335C16.6667 16.7937 16.2936 17.1668 15.8333 17.1668H14.1667C13.7064 17.1668 13.3333 17.5399 13.3333 18.0002C13.3333 18.4604 13.7064 18.8335 14.1667 18.8335H15.8333C17.2141 18.8335 18.3333 17.7142 18.3333 16.3335V14.6668C18.3333 14.2066 17.9603 13.8335 17.5 13.8335C17.0398 13.8335 16.6667 14.2066 16.6667 14.6668V16.3335Z" fill="#1152F4"/>
<path d="M3.33332 16.3335C3.33332 16.7937 3.70642 17.1668 4.16666 17.1668H5.83332C6.29356 17.1668 6.66666 17.5399 6.66666 18.0002C6.66666 18.4604 6.29356 18.8335 5.83332 18.8335H4.16666C2.78595 18.8335 1.66666 17.7142 1.66666 16.3335V14.6668C1.66666 14.2066 2.03976 13.8335 2.49999 13.8335C2.96023 13.8335 3.33332 14.2066 3.33332 14.6668V16.3335Z" fill="#1152F4"/>
<path d="M15.8333 3.83317C16.2936 3.83317 16.6667 4.20627 16.6667 4.6665V6.33317C16.6667 6.7934 17.0398 7.1665 17.5 7.1665C17.9603 7.1665 18.3333 6.79341 18.3333 6.33317V4.6665C18.3333 3.2858 17.2141 2.1665 15.8333 2.1665H14.1667C13.7064 2.1665 13.3333 2.5396 13.3333 2.99984C13.3333 3.46007 13.7064 3.83317 14.1667 3.83317H15.8333Z" fill="#1152F4"/>
<path fill-rule="evenodd" clip-rule="evenodd" d="M5.83333 9.66667C5.3731 9.66667 5 9.29358 5 8.83333V6.33333C5 5.87309 5.3731 5.5 5.83333 5.5H8.33333C8.79358 5.5 9.16667 5.8731 9.16667 6.33333V8.83333C9.16667 9.29358 8.79358 9.66667 8.33333 9.66667H5.83333ZM6.66667 8H7.5V7.16667H6.66667V8Z" fill="#1152F4"/>
<path fill-rule="evenodd" clip-rule="evenodd" d="M5 14.6668C5 15.1271 5.3731 15.5002 5.83333 15.5002H8.33333C8.79358 15.5002 9.16667 15.1271 9.16667 14.6668V12.1668C9.16667 11.7066 8.79358 11.3335 8.33333 11.3335H5.83333C5.3731 11.3335 5 11.7066 5 12.1668V14.6668ZM7.5 13.8335H6.66667V13.0002H7.5V13.8335Z" fill="#1152F4"/>
<path fill-rule="evenodd" clip-rule="evenodd" d="M11.6667 9.66667C11.2064 9.66667 10.8333 9.29358 10.8333 8.83333V6.33333C10.8333 5.87309 11.2064 5.5 11.6667 5.5H14.1667C14.6269 5.5 15 5.8731 15 6.33333V8.83333C15 9.29358 14.6269 9.66667 14.1667 9.66667H11.6667ZM12.5 8H13.3333V7.16667H12.5V8Z" fill="#1152F4"/>
<path fill-rule="evenodd" clip-rule="evenodd" d="M10.8333 14.6668C10.8333 15.1271 11.2064 15.5002 11.6667 15.5002H14.1667C14.6269 15.5002 15 15.1271 15 14.6668V12.1668C15 11.7066 14.6269 11.3335 14.1667 11.3335H11.6667C11.2064 11.3335 10.8333 11.7066 10.8333 12.1668V14.6668ZM13.3333 13.8335H12.5V13.0002H13.3333V13.8335Z" fill="#1152F4"/>
</svg>
