<svg width="24" height="24" viewBox="0 0 24 24" fill="none" xmlns="http://www.w3.org/2000/svg">
<path d="M2 12C2 6.47715 6.47715 2 12 2V2C17.5228 2 22 6.47715 22 12V12C22 17.5228 17.5228 22 12 22V22C6.47715 22 2 17.5228 2 12V12Z" fill="#FF3D54"/>
<path fill-rule="evenodd" clip-rule="evenodd" d="M6.41083 6.41058C6.73626 6.08514 7.2639 6.08514 7.58934 6.41058L12.0001 10.8213L16.4108 6.41058C16.7363 6.08514 17.2639 6.08514 17.5893 6.41058C17.9148 6.73602 17.9148 7.26366 17.5893 7.58909L13.1786 11.9998L17.5893 16.4106C17.9148 16.736 17.9148 17.2637 17.5893 17.5891C17.2639 17.9145 16.7363 17.9145 16.4108 17.5891L12.0001 13.1783L7.58934 17.5891C7.2639 17.9145 6.73626 17.9145 6.41083 17.5891C6.08539 17.2637 6.08539 16.736 6.41083 16.4106L10.8216 11.9998L6.41083 7.58909C6.08539 7.26366 6.08539 6.73602 6.41083 6.41058Z" fill="white"/>
</svg>
