<svg width="17" height="17" viewBox="0 0 17 17" fill="none" xmlns="http://www.w3.org/2000/svg">
<path fill-rule="evenodd" clip-rule="evenodd" d="M7.55556 1.88889C4.42594 1.88889 1.88889 4.42594 1.88889 7.55556C1.88889 10.6852 4.42594 13.2222 7.55556 13.2222C10.6852 13.2222 13.2222 10.6852 13.2222 7.55556C13.2222 4.42594 10.6852 1.88889 7.55556 1.88889ZM0 7.55556C0 3.38274 3.38274 0 7.55556 0C11.7284 0 15.1111 3.38274 15.1111 7.55556C15.1111 9.30156 14.5189 10.9092 13.5243 12.1887L16.7234 15.3877C17.0922 15.7566 17.0922 16.3545 16.7234 16.7234C16.3545 17.0922 15.7566 17.0922 15.3877 16.7234L12.1887 13.5243C10.9092 14.5189 9.30156 15.1111 7.55556 15.1111C3.38274 15.1111 0 11.7284 0 7.55556Z" fill="#79808A"/>
</svg>
