<svg width="24" height="25" viewBox="0 0 24 25" fill="none" xmlns="http://www.w3.org/2000/svg">
<path fill-rule="evenodd" clip-rule="evenodd" d="M19.2111 2.5671L3.70001 6.44487C1.63843 6.96027 1.38108 9.786 3.31563 10.6653L8.09467 12.8376C9.07447 13.283 10.1351 13.4439 11.1658 13.334C11.056 14.3647 11.2168 15.4254 11.6622 16.4052L13.8345 21.1842C14.7139 23.1188 17.5396 22.8614 18.055 20.7998L21.9327 5.28874C22.3437 3.64504 20.8548 2.15618 19.2111 2.5671ZM8.92228 11.0169C9.85936 11.4428 10.9082 11.4754 11.8474 11.1423C12.2024 11.0163 12.5417 10.8382 12.8534 10.6092C12.8968 10.5774 12.9397 10.5445 12.982 10.5107L15.2708 8.67962C15.6351 8.38819 16.1117 8.86479 15.8202 9.22908L13.9892 11.5179C13.9553 11.5602 13.9225 11.6031 13.8906 11.6465C13.6617 11.9582 13.4835 12.2975 13.3576 12.6524C13.0244 13.5917 13.057 14.6405 13.4829 15.5776L15.6552 20.3566C15.751 20.5672 16.0586 20.5392 16.1147 20.3148L19.9925 4.80367C20.0372 4.62473 19.8751 4.46265 19.6962 4.50738L4.18509 8.38515C3.96065 8.44126 3.93264 8.74888 4.14324 8.84461L8.92228 11.0169Z" fill="#1152F4"/>
</svg>
