<svg width="24" height="24" viewBox="0 0 24 24" fill="none" xmlns="http://www.w3.org/2000/svg">
<path fill-rule="evenodd" clip-rule="evenodd" d="M19.2111 2.0671L3.70001 5.94487C1.63843 6.46027 1.38108 9.286 3.31563 10.1653L8.09467 12.3376C9.07447 12.783 10.1351 12.9439 11.1658 12.834C11.056 13.8647 11.2168 14.9254 11.6622 15.9052L13.8345 20.6842C14.7139 22.6188 17.5396 22.3614 18.055 20.2998L21.9327 4.78874C22.3437 3.14504 20.8548 1.65618 19.2111 2.0671ZM8.92228 10.5169C9.85936 10.9428 10.9082 10.9754 11.8474 10.6423C12.2024 10.5163 12.5417 10.3382 12.8534 10.1092C12.8968 10.0774 12.9397 10.0445 12.982 10.0107L15.2708 8.17962C15.6351 7.88819 16.1117 8.36479 15.8202 8.72908L13.9892 11.0179C13.9553 11.0602 13.9225 11.1031 13.8906 11.1465C13.6617 11.4582 13.4835 11.7975 13.3576 12.1524C13.0244 13.0917 13.057 14.1405 13.4829 15.0776L15.6552 19.8566C15.751 20.0672 16.0586 20.0392 16.1147 19.8148L19.9925 4.30367C20.0372 4.12473 19.8751 3.96265 19.6962 4.00738L4.18509 7.88515C3.96065 7.94126 3.93264 8.24888 4.14324 8.34461L8.92228 10.5169Z" fill="#79808A"/>
</svg>
