<svg width="17" height="17" viewBox="0 0 17 17" fill="none" xmlns="http://www.w3.org/2000/svg">
<path fill-rule="evenodd" clip-rule="evenodd" d="M0.708374 13.1105C0.708374 9.32734 3.47207 6.21285 7.08334 5.55764V3.90383C7.08334 2.57761 8.60868 1.83156 9.65555 2.6458L15.5651 7.24205C16.3854 7.88011 16.3855 9.12003 15.5651 9.75811L9.65559 14.3544C8.60872 15.1686 7.08337 14.4226 7.08337 13.0963V11.7009C5.48329 12.0081 4.22348 12.832 3.49055 13.9427C3.0687 14.582 2.34156 14.7146 1.81312 14.5659C1.27839 14.4154 0.708453 13.9051 0.708374 13.1105ZM8.78581 3.76405C8.66949 3.67358 8.50001 3.75647 8.50001 3.90383V6.67025C8.50001 6.76805 8.42023 6.84709 8.32247 6.84972C5.73113 6.91933 3.52594 8.5082 2.59649 10.7423C2.45663 11.0785 2.34565 11.4293 2.2666 11.7918C2.17855 12.1954 2.13009 12.6135 2.12541 13.0419C2.12517 13.0647 2.12504 13.0876 2.12504 13.1105C2.12505 13.206 2.2555 13.2422 2.30812 13.1625C2.3196 13.1451 2.33117 13.1277 2.34283 13.1105C2.34284 13.1105 2.34283 13.1105 2.34283 13.1105C2.57445 12.7674 2.84087 12.4501 3.13792 12.1608C3.33974 11.9642 3.5557 11.7806 3.7845 11.6105C5.00003 10.7071 6.57792 10.1875 8.32271 10.1546C8.42049 10.1527 8.50004 10.2322 8.50004 10.33V13.0963C8.50004 13.2437 8.66952 13.3266 8.78584 13.2361L14.6953 8.63986C14.7865 8.56896 14.7865 8.43119 14.6953 8.3603L8.78581 3.76405Z" fill="white"/>
</svg>
