<svg width="55" height="54" viewBox="0 0 55 54" fill="none" xmlns="http://www.w3.org/2000/svg">
<path d="M3 17.0185C3 9.00016 9.50016 2.5 17.5185 2.5H37.4815C45.4998 2.5 52 9.00016 52 17.0185V36.9815C52 44.9998 45.4998 51.5 37.4815 51.5H17.5185C9.50016 51.5 3 44.9998 3 36.9815V17.0185Z" fill="#4175F6"/>
<path fill-rule="evenodd" clip-rule="evenodd" d="M43.3357 30.2892C42.1463 29.6129 41.4076 28.3531 41.4076 26.9998C41.4076 25.6472 42.1462 24.3874 43.3322 23.7118C44.5495 23.0211 45.0557 21.5861 44.5356 20.2999C43.8836 18.6752 42.9958 17.1577 41.9035 15.789C41.0331 14.6992 39.5211 14.4138 38.304 15.1089C37.118 15.789 35.6407 15.791 34.4513 15.114C33.2652 14.437 32.5301 13.1751 32.5336 11.8195C32.5336 10.4326 31.5279 9.28169 30.1373 9.0832C28.3896 8.83336 26.6141 8.83475 24.8593 9.08831C23.4722 9.28819 22.4666 10.4385 22.47 11.8226C22.47 13.1765 21.7348 14.4377 20.5488 15.114C19.3593 15.7903 17.8856 15.7889 16.6961 15.1096C15.479 14.4145 13.967 14.7013 13.0966 15.791C12.5556 16.47 12.0562 17.196 11.6158 17.9499C11.1754 18.7026 10.7905 19.4915 10.4645 20.2933C9.94086 21.5816 10.4472 23.0187 11.6644 23.7111C12.8539 24.3867 13.5925 25.6472 13.5925 26.9997C13.5925 28.3523 12.8539 29.6118 11.6679 30.2884C10.4507 30.9792 9.94442 32.4135 10.4645 33.6993C11.1165 35.325 12.0043 36.8426 13.0966 38.2105C13.967 39.3003 15.479 39.5857 16.6961 38.8906C17.8821 38.2105 19.3594 38.2091 20.5488 38.8855C21.7348 39.5625 22.47 40.8244 22.47 42.18C22.4665 43.5665 23.4756 44.7174 24.8627 44.9164C25.7332 45.0406 26.6071 45.1025 27.4809 45.1025C28.3687 45.1025 29.2564 45.0388 30.1407 44.9112C31.5278 44.7109 32.5334 43.5617 32.5334 42.1776C32.5299 40.823 33.2651 39.5617 34.4511 38.8855C35.6405 38.2092 37.1144 38.2106 38.3038 38.8899C39.521 39.585 41.0329 39.2989 41.9034 38.2085C42.4443 37.5291 42.9437 36.8032 43.3841 36.0502C43.821 35.2977 44.2129 34.5087 44.5354 33.7062C45.0592 32.4179 44.5529 30.9805 43.3357 30.2892ZM32.218 29.6889C31.4932 30.9326 30.3176 31.8228 28.9097 32.1945C27.5053 32.5662 26.0349 32.3756 24.7761 31.6568C22.1753 30.1741 21.2806 26.8793 22.7821 24.3107C23.7878 22.5878 25.6257 21.6233 27.5087 21.6233C28.4346 21.6233 29.3675 21.8547 30.224 22.3428C32.8248 23.8251 33.7195 27.1209 32.218 29.6889Z" fill="white"/>
</svg>
