<svg width="24" height="24" viewBox="0 0 24 24" fill="none" xmlns="http://www.w3.org/2000/svg">
<path d="M10.7148 13.2584L9.84724 12.3908C11.237 10.545 11.9926 8.29927 12.0012 5.98879H12.9984C13.2629 5.98879 13.5165 5.88373 13.7035 5.69672C13.8905 5.50971 13.9956 5.25607 13.9956 4.99159C13.9956 4.72712 13.8905 4.47348 13.7035 4.28647C13.5165 4.09946 13.2629 3.9944 12.9984 3.9944H9.00959V2.9972C9.00959 2.73272 8.90453 2.47908 8.71752 2.29207C8.53051 2.10506 8.27687 2 8.01239 2C7.74792 2 7.49428 2.10506 7.30727 2.29207C7.12026 2.47908 7.01519 2.73272 7.01519 2.9972V3.9944H3.0264C2.76193 3.9944 2.50829 4.09946 2.32128 4.28647C2.13427 4.47348 2.02921 4.72712 2.02921 4.99159C2.02921 5.25607 2.13427 5.50971 2.32128 5.69672C2.50829 5.88373 2.76193 5.98879 3.0264 5.98879H10.0068C10.0046 7.77445 9.45085 9.51584 8.42124 10.9748L5.72881 8.27237C5.54103 8.0846 5.28635 7.97911 5.0208 7.97911C4.75524 7.97911 4.50056 8.0846 4.31279 8.27237C4.12501 8.46015 4.01952 8.71483 4.01952 8.98038C4.01952 9.24594 4.12501 9.50062 4.31279 9.6884L7.09497 12.4706C6.86576 12.6828 6.62256 12.8793 6.36702 13.0589L3.44523 15.153C3.27497 15.2763 3.14801 15.4502 3.08249 15.6499C3.01696 15.8496 3.01621 16.0649 3.08035 16.2651C3.14449 16.4653 3.27024 16.64 3.43964 16.7645C3.60903 16.8889 3.81342 16.9566 4.0236 16.958C4.23143 16.9566 4.43364 16.8904 4.60198 16.7685L7.52377 14.6844C7.87117 14.4378 8.20412 14.1714 8.52096 13.8866L9.30875 14.6744C9.40145 14.7678 9.51174 14.842 9.63326 14.8927C9.75478 14.9433 9.88512 14.9694 10.0168 14.9694C10.1484 14.9694 10.2787 14.9433 10.4003 14.8927C10.5218 14.842 10.6321 14.7678 10.7248 14.6744C10.8176 14.581 10.891 14.4702 10.9408 14.3483C10.9905 14.2265 11.0157 14.0959 11.0148 13.9643C11.0138 13.8327 10.9869 13.7025 10.9354 13.5813C10.8839 13.4602 10.8089 13.3504 10.7148 13.2584Z" fill="#000001"/>
<path d="M21.8836 20.5383L16.8976 9.5691C16.8182 9.395 16.6905 9.2474 16.5296 9.14389C16.3687 9.04039 16.1814 8.98535 15.9901 8.98535C15.7988 8.98535 15.6115 9.04039 15.4506 9.14389C15.2897 9.2474 15.162 9.395 15.0827 9.5691L10.0967 20.5383C10.0332 20.6587 9.99507 20.7909 9.98462 20.9266C9.97416 21.0623 9.99161 21.1988 10.0359 21.3275C10.0802 21.4562 10.1503 21.5745 10.242 21.6751C10.3338 21.7757 10.4451 21.8564 10.5692 21.9124C10.6934 21.9683 10.8276 21.9982 10.9637 22.0003C11.0998 22.0023 11.2349 21.9765 11.3607 21.9244C11.4865 21.8723 11.6002 21.7949 11.6949 21.6972C11.7897 21.5994 11.8634 21.4833 11.9116 21.356L13.4572 17.9555H18.523L20.0687 21.356C20.1473 21.5309 20.2747 21.6795 20.4357 21.7839C20.5966 21.8882 20.7843 21.9439 20.9761 21.9443C21.1172 21.9437 21.2566 21.9131 21.385 21.8546C21.6253 21.7458 21.8127 21.5461 21.9061 21.2994C21.9996 21.0527 21.9915 20.779 21.8836 20.5383ZM14.3647 15.9611L15.9901 12.3912L17.6155 15.9611H14.3647Z" fill="#000001"/>
</svg>
