<svg width="16" height="13" viewBox="0 0 16 13" fill="none" xmlns="http://www.w3.org/2000/svg">
<path fill-rule="evenodd" clip-rule="evenodd" d="M6.66675 3.33333C6.66675 1.49238 8.15913 0 10.0001 0C11.841 0 13.3334 1.49238 13.3334 3.33333C13.3334 5.17428 11.841 6.66667 10.0001 6.66667C8.15913 6.66667 6.66675 5.17428 6.66675 3.33333ZM10.0001 1.33333C8.89551 1.33333 8.00008 2.22876 8.00008 3.33333C8.00008 4.4379 8.89551 5.33333 10.0001 5.33333C11.1047 5.33333 12.0001 4.4379 12.0001 3.33333C12.0001 2.22876 11.1047 1.33333 10.0001 1.33333Z" fill="#FF3D54"/>
<path d="M0.666748 6C0.666748 5.63181 0.965225 5.33333 1.33341 5.33333H5.33341C5.7016 5.33333 6.00008 5.63181 6.00008 6C6.00008 6.36819 5.7016 6.66667 5.33341 6.66667H1.33341C0.965225 6.66667 0.666748 6.36819 0.666748 6Z" fill="#FF3D54"/>
<path fill-rule="evenodd" clip-rule="evenodd" d="M10.0001 7.33333C8.67086 7.33333 7.39704 7.50282 6.42969 7.93237C5.44352 8.37028 4.66675 9.14279 4.66675 10.3333C4.66675 10.6445 4.72358 10.9985 4.93523 11.3362C5.14686 11.6738 5.47199 11.9292 5.89195 12.1192C6.698 12.4839 7.98936 12.6667 10.0001 12.6667C12.0108 12.6667 13.3022 12.4839 14.1082 12.1192C14.5282 11.9292 14.8533 11.6738 15.0649 11.3362C15.2766 10.9985 15.3334 10.6445 15.3334 10.3333C15.3334 9.14279 14.5566 8.37028 13.5705 7.93237C12.6031 7.50282 11.3293 7.33333 10.0001 7.33333ZM6.00008 10.3333C6.00008 9.85721 6.26798 9.46305 6.97081 9.15096C7.69246 8.83051 8.75197 8.66667 10.0001 8.66667C11.2482 8.66667 12.3077 8.83051 13.0294 9.15096C13.7322 9.46305 14.0001 9.85721 14.0001 10.3333C14.0001 10.4824 13.9736 10.5668 13.9352 10.628C13.8969 10.6892 13.8053 10.7928 13.5586 10.9044C13.0313 11.143 11.9894 11.3333 10.0001 11.3333C8.01081 11.3333 6.96883 11.143 6.44154 10.9044C6.19484 10.7928 6.1033 10.6892 6.06493 10.628C6.02659 10.5668 6.00008 10.4824 6.00008 10.3333Z" fill="#FF3D54"/>
</svg>
