<svg width="20" height="20" viewBox="0 0 20 20" fill="none" xmlns="http://www.w3.org/2000/svg">
<path fill-rule="evenodd" clip-rule="evenodd" d="M1.6665 10.8333C1.6665 12.6743 3.15889 14.1667 4.99984 14.1667H5.16374C5.58073 14.1667 5.98257 14.323 6.28995 14.6047L8.7309 16.8423C9.1924 17.2653 9.79571 17.5 10.4218 17.5C11.466 17.5 12.4576 16.8347 12.7166 15.7336C12.9918 14.5633 13.3332 12.5901 13.3332 10C13.3332 7.40993 12.9918 5.4367 12.7166 4.26645C12.4576 3.16532 11.466 2.5 10.4218 2.5C9.79571 2.5 9.1924 2.73468 8.7309 3.15772L6.28995 5.39526C5.98257 5.67702 5.58073 5.83333 5.16374 5.83333H4.99984C3.15889 5.83333 1.6665 7.32572 1.6665 9.16667V10.8333ZM4.99984 12.5C4.07936 12.5 3.33317 11.7538 3.33317 10.8333V9.16667C3.33317 8.24619 4.07936 7.5 4.99984 7.5H5.16374C5.99771 7.5 6.80139 7.18738 7.41616 6.62385L9.85711 4.38631C10.0112 4.24504 10.2127 4.16667 10.4218 4.16667C10.7811 4.16667 11.0318 4.3828 11.0942 4.64801C11.3444 5.71161 11.6665 7.55602 11.6665 10C11.6665 12.444 11.3444 14.2884 11.0942 15.352C11.0318 15.6172 10.7811 15.8333 10.4218 15.8333C10.2127 15.8333 10.0112 15.755 9.85711 15.6137L7.41616 13.3762C6.80139 12.8126 5.99771 12.5 5.16374 12.5H4.99984Z" fill="#000001"/>
<path d="M17.1434 5.08006C17.5595 4.88322 18.0563 5.06091 18.2531 5.47694C18.8704 6.78159 19.1648 8.40362 19.1665 9.99071C19.1682 11.5778 18.8774 13.2066 18.2528 14.5237C18.0556 14.9396 17.5586 15.1168 17.1428 14.9196C16.7269 14.7224 16.5497 14.2255 16.7469 13.8096C17.2399 12.7699 17.5014 11.3992 17.4998 9.99254C17.4983 8.58583 17.2338 7.21965 16.7466 6.18973C16.5497 5.77371 16.7274 5.27689 17.1434 5.08006Z" fill="#000001"/>
<path d="M14.6272 13.2454C14.2155 13.0395 14.0487 12.539 14.2545 12.1273C14.9705 10.6953 14.9705 9.30474 14.2545 7.87268C14.0487 7.46103 14.2155 6.96047 14.6272 6.75464C15.0388 6.54882 15.5394 6.71567 15.7452 7.12732C16.6958 9.02859 16.6958 10.9714 15.7452 12.8727C15.5394 13.2843 15.0388 13.4512 14.6272 13.2454Z" fill="#000001"/>
</svg>
