<svg width="20" height="21" viewBox="0 0 20 21" fill="none" xmlns="http://www.w3.org/2000/svg">
<path fill-rule="evenodd" clip-rule="evenodd" d="M8.33334 7.16667C8.33334 4.86548 10.1988 3 12.5 3C14.8012 3 16.6667 4.86548 16.6667 7.16667C16.6667 9.46785 14.8012 11.3333 12.5 11.3333C10.1988 11.3333 8.33334 9.46785 8.33334 7.16667ZM12.5 4.66667C11.1193 4.66667 10 5.78595 10 7.16667C10 8.54738 11.1193 9.66667 12.5 9.66667C13.8807 9.66667 15 8.54738 15 7.16667C15 5.78595 13.8807 4.66667 12.5 4.66667Z" fill="#1152F4"/>
<path d="M4.16668 7.16667C4.62691 7.16667 5.00001 7.53976 5.00001 8V9.66667H6.66668C7.12691 9.66667 7.50001 10.0398 7.50001 10.5C7.50001 10.9602 7.12691 11.3333 6.66668 11.3333H5.00001V13C5.00001 13.4602 4.62691 13.8333 4.16668 13.8333C3.70644 13.8333 3.33334 13.4602 3.33334 13V11.3333H1.66668C1.20644 11.3333 0.833344 10.9602 0.833344 10.5C0.833344 10.0398 1.20644 9.66667 1.66668 9.66667H3.33334V8C3.33334 7.53976 3.70644 7.16667 4.16668 7.16667Z" fill="#1152F4"/>
<path fill-rule="evenodd" clip-rule="evenodd" d="M12.5 12.1667C10.8385 12.1667 9.24621 12.3785 8.03702 12.9155C6.80431 13.4628 5.83334 14.4285 5.83334 15.9167C5.83334 16.3056 5.90438 16.7482 6.16894 17.1702C6.43348 17.5922 6.83989 17.9116 7.36485 18.1491C8.37241 18.6049 9.9866 18.8333 12.5 18.8333C15.0134 18.8333 16.6276 18.6049 17.6352 18.1491C18.1601 17.9116 18.5665 17.5922 18.8311 17.1702C19.0956 16.7482 19.1667 16.3056 19.1667 15.9167C19.1667 14.4285 18.1957 13.4628 16.963 12.9155C15.7538 12.3785 14.1615 12.1667 12.5 12.1667ZM7.50001 15.9167C7.50001 15.3215 7.83488 14.8288 8.71342 14.4387C9.61548 14.0381 10.9399 13.8333 12.5 13.8333C14.0601 13.8333 15.3845 14.0381 16.2866 14.4387C17.1651 14.8288 17.5 15.3215 17.5 15.9167C17.5 16.103 17.4669 16.2085 17.4189 16.285C17.371 16.3615 17.2566 16.491 16.9482 16.6306C16.2891 16.9287 14.9866 17.1667 12.5 17.1667C10.0134 17.1667 8.71095 16.9287 8.05184 16.6306C7.74346 16.491 7.62904 16.3615 7.58108 16.285C7.53314 16.2085 7.50001 16.103 7.50001 15.9167Z" fill="#1152F4"/>
</svg>
