<svg width="54" height="54" viewBox="0 0 54 54" fill="none" xmlns="http://www.w3.org/2000/svg">
<g clip-path="url(#clip0_5284_25374)">
<path d="M49.1364 0H9.86364C5.79681 0 2.5 3.29681 2.5 7.36364V46.6364C2.5 50.7032 5.79681 54 9.86364 54H49.1364C53.2032 54 56.5 50.7032 56.5 46.6364V7.36364C56.5 3.29681 53.2032 0 49.1364 0Z" fill="#7AD06D"/>
<path d="M41.4045 15.0957C38.5954 12.2585 34.8649 10.5186 30.8859 10.1897C26.9069 9.86087 22.9413 10.9647 19.7045 13.3022C16.4677 15.6396 14.1727 19.0568 13.2335 22.9373C12.2943 26.8178 12.7728 30.9063 14.5825 34.4651L12.806 43.0898C12.7876 43.1756 12.787 43.2643 12.8045 43.3504C12.8219 43.4365 12.8569 43.518 12.9073 43.5899C12.981 43.699 13.0864 43.7831 13.2092 43.8308C13.332 43.8785 13.4664 43.8876 13.5945 43.8568L22.0474 41.8533C25.5962 43.6172 29.6558 44.0649 33.5037 43.1166C37.3516 42.1683 40.7383 39.8856 43.0612 36.6747C45.3841 33.4638 46.4924 29.5329 46.1891 25.5815C45.8857 21.6301 44.1903 17.9144 41.4045 15.0957ZM38.769 36.1311C36.8253 38.0693 34.3225 39.3487 31.6132 39.7891C28.9039 40.2294 26.1248 39.8085 23.6674 38.5857L22.4892 38.0027L17.307 39.23L17.3224 39.1656L18.3962 33.9497L17.8194 32.8114C16.5638 30.3454 16.1209 27.5453 16.5541 24.8121C16.9873 22.079 18.2744 19.5531 20.231 17.5963C22.6896 15.1385 26.0236 13.7578 29.5 13.7578C32.9764 13.7578 36.3104 15.1385 38.769 17.5963C38.7899 17.6203 38.8124 17.6428 38.8365 17.6638C41.2645 20.1279 42.62 23.452 42.6074 26.9114C42.5947 30.3707 41.215 33.6848 38.769 36.1311Z" fill="white"/>
<path d="M38.3089 32.3053C37.6737 33.3055 36.6704 34.5298 35.4094 34.8335C33.2003 35.3674 29.81 34.8519 25.5912 30.9185L25.5391 30.8725C21.8296 27.4331 20.8662 24.5704 21.0994 22.3C21.2283 21.0113 22.3021 19.8454 23.2073 19.0845C23.3504 18.9624 23.52 18.8754 23.7028 18.8306C23.8855 18.7858 24.0761 18.7844 24.2595 18.8264C24.4429 18.8684 24.6139 18.9528 24.7588 19.0727C24.9037 19.1927 25.0186 19.3449 25.0942 19.5171L26.4595 22.5853C26.5483 22.7843 26.5811 23.0036 26.5547 23.2198C26.5282 23.436 26.4433 23.641 26.3092 23.8126L25.6189 24.7085C25.4707 24.8935 25.3813 25.1186 25.3622 25.3548C25.3431 25.591 25.395 25.8275 25.5115 26.034C25.8981 26.712 26.8246 27.7092 27.8525 28.6327C29.0061 29.6759 30.2856 30.6301 31.0956 30.9553C31.3123 31.0439 31.5506 31.0655 31.7797 31.0174C32.0089 30.9692 32.2183 30.8536 32.3811 30.6853L33.1819 29.8784C33.3364 29.726 33.5286 29.6174 33.7388 29.5635C33.949 29.5096 34.1697 29.5124 34.3785 29.5716L37.6216 30.492C37.8005 30.5469 37.9645 30.642 38.101 30.7699C38.2375 30.8979 38.3429 31.0554 38.4093 31.2304C38.4756 31.4053 38.501 31.5932 38.4836 31.7795C38.4662 31.9658 38.4064 32.1457 38.3089 32.3053Z" fill="white"/>
</g>
<defs>
<clipPath id="clip0_5284_25374">
<rect x="2.5" y="2.5" width="49" height="49" rx="16" fill="white"/>
</clipPath>
</defs>
</svg>
