<svg width="54" height="54" viewBox="0 0 54 54" fill="none" xmlns="http://www.w3.org/2000/svg">
<path d="M28.6386 26.1632L39.6654 41.9354H35.14L26.1419 29.0652V29.0644L24.8208 27.1751L14.3096 12.1396H18.835L27.3175 24.2738L28.6386 26.1632Z" fill="black"/>
<g clip-path="url(#clip0_5284_25375)">
<path d="M46.2054 2.5H7.79456C4.87053 2.5 2.5 4.87053 2.5 7.79456V46.2054C2.5 49.1295 4.87053 51.5 7.79456 51.5H46.2054C49.1295 51.5 51.5 49.1295 51.5 46.2054V7.79456C51.5 4.87053 49.1295 2.5 46.2054 2.5ZM33.7538 44.053L24.6482 30.801L13.2481 44.053H10.3017L23.34 28.8977L10.3017 9.92188H20.2462L28.8685 22.4706L39.6637 9.92188H42.6101L30.1772 24.3743L43.6983 44.053H33.7538Z" fill="black"/>
</g>
<defs>
<clipPath id="clip0_5284_25375">
<rect x="2.5" y="2.5" width="49" height="49" rx="14" fill="white"/>
</clipPath>
</defs>
</svg>
