<svg width="20" height="18" viewBox="0 0 20 18" fill="none" xmlns="http://www.w3.org/2000/svg">
<path d="M16.8182 1.5H3.18186C2.05219 1.5 1.13641 2.41578 1.13641 3.54545V14.4545C1.13641 15.5842 2.05219 16.4999 3.18186 16.4999H16.8182C17.9478 16.4999 18.8636 15.5842 18.8636 14.4545V3.54545C18.8636 2.41578 17.9478 1.5 16.8182 1.5Z" stroke="white" stroke-width="1.36363" stroke-linejoin="round"/>
<path d="M13.4091 6.95431C14.1622 6.95431 14.7727 6.3438 14.7727 5.59068C14.7727 4.83757 14.1622 4.22705 13.4091 4.22705C12.656 4.22705 12.0455 4.83757 12.0455 5.59068C12.0455 6.3438 12.656 6.95431 13.4091 6.95431Z" stroke="white" stroke-width="1.36363" stroke-miterlimit="10"/>
<path d="M12.0455 12.4004L8.18213 8.54431C7.93629 8.29853 7.60587 8.15592 7.25839 8.14562C6.91092 8.13532 6.57263 8.25812 6.31267 8.48891L1.13641 13.0912M8.63639 16.5002L13.8923 11.2443C14.1327 11.0034 14.4544 10.8612 14.7943 10.8454C15.1342 10.8296 15.4678 10.9415 15.7294 11.1591L18.8636 13.773" stroke="white" stroke-width="1.36363" stroke-linecap="round" stroke-linejoin="round"/>
</svg>
